<svg width="60" height="69" viewBox="0 0 60 69" fill="none" xmlns="http://www.w3.org/2000/svg">
<path d="M43.2266 51.658C43.5889 52.3091 44.0968 52.8709 44.7119 53.3004C44.8654 53.4165 45.0233 53.5244 45.1864 53.6246C46.0219 54.1304 46.9074 54.5497 47.8295 54.876L48.0797 54.5852C48.8626 53.6976 49.4937 52.6916 49.9499 51.6049L49.9382 51.5609C50.0054 51.3764 50.0658 51.1931 50.1121 51.0068C50.2821 50.3969 50.2811 49.7522 50.1088 49.141L50.0504 48.9206C49.8822 48.3051 49.414 47.8107 48.8012 47.6018C48.6085 47.5353 48.4072 47.4953 48.2037 47.4831C47.7794 47.4166 47.3462 47.505 46.9852 47.7314C46.6243 47.9581 46.3609 48.3071 46.2452 48.7127C46.2265 48.8181 46.2207 48.9254 46.2277 49.0328C45.895 48.3925 45.1386 48.0832 44.4455 48.3042C44.3107 48.3249 44.1778 48.3582 44.049 48.4036C43.6335 48.5626 43.2835 48.8522 43.0535 49.2283C42.8238 49.6039 42.7274 50.0445 42.7789 50.4813C42.7943 50.5557 42.8138 50.6295 42.8373 50.7018L42.8939 50.9157C42.9702 51.1767 43.082 51.4263 43.2266 51.658Z" fill="#304973"/>
<path d="M45.2255 4.41367C44.2503 3.76155 43.0397 3.55111 41.9018 3.83632L41.1345 4.02862L40.8677 3.02098C40.5907 1.9948 39.9148 1.11493 38.9859 0.571182C38.0571 0.027437 36.9501 -0.136377 35.9043 0.115434L3.06208 8.34714C2.01108 8.61197 1.11305 9.27643 0.563722 10.1945C0.0144102 11.1126 -0.141205 12.2097 0.131049 13.245L13.1064 62.2366C13.3822 63.2711 14.0634 64.1584 15.0004 64.704C15.9374 65.2495 17.0537 65.4091 18.1054 65.1469L18.8726 64.9546L19.1395 65.9623C19.3588 66.794 19.8423 67.5366 20.519 68.0818C21.1957 68.6274 22.0305 68.947 22.9022 68.9946C23.3096 69.0153 23.7174 68.9763 24.1125 68.8791L56.9547 60.6474C57.3095 60.5608 57.6505 60.428 57.9688 60.2522L58.0393 60.2346C59.1842 59.5574 59.916 58.3711 60 57.0573L59.9884 57.0134C60.0055 56.6128 59.9612 56.2122 59.8574 55.8237L46.8654 6.76915C46.6288 5.81481 46.0453 4.97683 45.2255 4.41367ZM42.0531 4.38253C42.9415 4.15938 43.8857 4.28668 44.6838 4.73727L44.0233 5.82278L41.7337 4.46257L42.0531 4.38253ZM43.7268 6.2999L42.345 8.57372L41.3743 4.90857L43.7268 6.2999ZM50.5036 39.3786L52.4776 40.5495L51.3176 42.452L50.5036 39.3786ZM49.1994 34.4541L51.2296 35.6577L50.0366 37.6154L49.1994 34.4541ZM47.8951 29.5296L49.982 30.7659L48.754 32.7727L47.8951 29.5296ZM51.8078 44.3031L53.7333 45.4455L52.6017 47.3006L51.8078 44.3031ZM53.8559 52.0362L53.1105 49.2215L54.9798 50.331L53.881 52.1307L53.8527 52.0239L53.8559 52.0362ZM53.9067 53.8498L56.2288 55.2286L54.6634 57.7901L52.2346 56.344C53.097 55.7531 53.6953 54.8584 53.9051 53.8442L53.9067 53.8498ZM53.9838 53.2393C53.9688 53.1826 53.9876 53.1241 53.985 53.0643L55.4683 50.6311L58.0828 52.1853L56.5114 54.7489L53.9838 53.2393ZM52.9052 48.4465L52.8019 48.0565L54.2318 45.7308L56.8463 47.285L55.2763 49.8539L52.9052 48.4465ZM51.601 43.5221L51.5178 43.208L52.9676 40.83L55.582 42.3842L54.0167 44.9458L51.601 43.5221ZM50.2968 38.5976L50.2384 38.3771L51.7232 35.95L54.3377 37.5042L52.774 40.072L50.2968 38.5976ZM48.9925 33.6732L48.9559 33.5348L50.4675 31.0542L53.0882 32.6069L51.5179 35.1495L48.9925 33.6732ZM47.6883 28.7487L47.6819 28.7246L49.228 26.195L51.8488 27.7477L50.2835 30.3092L47.6883 28.7487ZM47.4715 27.93L46.5911 24.6061L48.7264 25.8706L47.4715 27.93ZM45.2867 19.6808L47.4782 20.978L46.1889 23.0872L45.2867 19.6808ZM43.9825 14.7564L46.2241 16.0883L44.9064 18.2449L43.9825 14.7564ZM42.6782 9.83192L44.9752 11.1917L43.6247 13.4038L42.6782 9.83192ZM17.9632 64.6118C17.0568 64.8371 16.0945 64.6989 15.2879 64.227C14.4818 63.7555 13.8969 62.9892 13.6621 62.0972L0.683517 13.0932C0.447357 12.2015 0.580819 11.2561 1.05428 10.4647C1.52732 9.67352 2.30202 9.10181 3.20801 8.87473L36.0445 0.644457C36.9504 0.417389 37.9126 0.553747 38.7198 1.02407C39.5274 1.49429 40.1139 2.25931 40.3501 3.15102L53.3287 52.155C53.5633 53.0391 53.4339 53.9765 52.9692 54.7633L52.9125 54.858C52.4904 55.5273 51.8464 56.0325 51.0886 56.289L17.9587 64.5928L17.9632 64.6118ZM50.9504 56.9279L49.6849 58.9978L47.625 57.7614L50.9504 56.9279ZM45.9497 58.1813L44.7171 60.1958L42.6948 58.9971L45.9497 58.1813ZM40.949 59.4347L39.751 61.4002L37.7771 60.2297L40.949 59.4347ZM35.9482 60.6881L34.6447 62.8209L32.5015 61.552L35.9482 60.6881ZM30.9475 61.9415L29.5144 64.2549L27.2001 62.8807L30.9475 61.9415ZM25.9468 63.1949L24.4398 65.6678L21.9564 64.195L25.9468 63.1949ZM19.6847 65.839L19.4179 64.8313L20.9461 64.4483L19.8332 66.2716C19.7779 66.1295 19.7336 65.9837 19.6982 65.8356L19.6847 65.839ZM20.1656 66.8534L21.5495 64.586L24.1703 66.1386L22.7772 68.4219C21.7117 68.3156 20.7499 67.7379 20.1656 66.8534ZM23.9699 68.3441C23.7836 68.3912 23.5936 68.4229 23.4019 68.4391L24.6187 66.4418L26.6814 67.664L23.9699 68.3441ZM27.455 67.4705L24.9474 65.9837L26.6495 63.1934L29.264 64.7476L27.6107 67.4652L27.455 67.4705ZM28.3632 67.2429L29.7172 65.0168L31.9508 66.3437L28.3632 67.2429ZM30.0136 64.5391L31.7682 61.7424L34.3889 63.295L32.6543 66.0666L30.0136 64.5391ZM33.3639 65.9895L34.8266 63.6082L37.2454 65.0166L33.3639 65.9895ZM35.1181 63.1122L36.721 60.4879L36.9833 60.4221L39.4171 61.8872L37.715 64.6774L35.1181 63.1122ZM38.3646 64.7361L39.9299 62.1745L42.5143 63.696L38.3646 64.7361ZM40.2244 61.6913L41.7218 59.2345L41.9007 59.1896L44.4421 60.6745L42.8723 63.2438L40.2244 61.6913ZM43.365 63.4828L44.9307 60.975L47.4479 62.473L43.365 63.4828ZM45.1901 60.487L46.7221 57.9812L46.818 57.9571L49.3756 59.4782L47.8119 62.046L45.1901 60.487ZM48.3782 62.2263L49.8756 59.7694L52.3111 61.2405L48.3782 62.2263ZM50.2086 59.276L51.774 56.7145L54.375 58.272L52.8097 60.8336L50.2086 59.276ZM56.8322 60.1073L53.3851 60.9713L54.8607 58.5868L57.2412 60.0048C57.1008 60.0494 56.9576 60.0852 56.8126 60.1122L56.8322 60.1073ZM57.8033 59.6288L55.1889 58.0745L56.7159 55.523L59.3304 57.0773L57.8033 59.6288ZM59.3611 55.8807C59.4121 56.068 59.4467 56.2593 59.4645 56.4525L57.0456 55.0441L58.5022 52.6644L59.3611 55.8807ZM58.2187 51.5673L55.7999 50.1589L57.2264 47.8204L58.2187 51.5673ZM56.9145 46.6429L54.5407 45.2232L55.9338 42.9399L56.9145 46.6429ZM55.6103 41.7184L53.2961 40.3442L54.6563 38.1166L55.6103 41.7184ZM54.306 36.794L52.0402 35.4479L53.3721 33.2677L54.306 36.794ZM53.0018 31.8695L50.789 30.5711L52.0879 28.4459L53.0018 31.8695ZM51.6976 26.945L49.4948 25.6844L50.7653 23.6066L51.6976 26.945ZM50.6052 22.8204L49.0511 25.3721L46.4367 23.8179L47.9701 21.2652L50.5745 22.8083L50.6052 22.8204ZM50.3933 22.0205L48.2905 20.7747L49.5277 18.7521L50.3933 22.0205ZM49.3226 17.9777L47.7952 20.4759L45.1807 18.9217L46.746 16.3601L49.2959 17.8767L49.3226 17.9777ZM49.0891 17.0961L47.041 15.8768L48.2435 13.9032L49.0891 17.0961ZM48.0401 13.1353L46.5137 15.5869L43.8993 14.0327L45.463 11.4649L47.9627 12.9471L48.0401 13.1353ZM47.785 12.172L45.7869 10.9875L46.9628 9.06779L47.785 12.172ZM46.7593 8.29921L45.2903 10.6821L42.6523 9.16792L44.2176 6.60636L46.6481 8.0586L46.7593 8.29921ZM46.4808 7.24763L44.539 6.09583L45.1803 5.04184C45.7592 5.51599 46.1686 6.16052 46.3488 6.87837L46.4808 7.24763Z" fill="#304973"/>
<path d="M29.7337 29.8958C29.6217 30.0337 29.5176 30.1695 29.4202 30.3031C28.4476 31.6364 28.0375 32.8997 28.0557 33.9861C28.074 35.0429 28.5017 35.9354 29.2107 36.5559C29.2704 36.608 29.3285 36.6558 29.3851 36.6998C29.5118 36.7975 29.6573 36.8727 29.8165 36.9323C29.8223 36.9345 29.8275 36.936 29.8333 36.9382C30.2479 37.0902 30.7526 37.1389 31.2647 37.1873C31.8227 37.2403 32.3886 37.294 32.9049 37.4788C33.0651 37.5362 33.1494 37.715 33.0934 37.8786C33.0374 38.0427 32.8629 38.1292 32.7034 38.0718C32.2553 37.9123 31.7286 37.8614 31.2093 37.8124C30.7736 37.7706 30.3422 37.7297 29.9428 37.6283C29.5952 39.1188 29.1486 40.5804 28.2545 41.9355C27.3613 43.2896 26.0294 44.5237 23.9184 45.5505C24.3331 45.8242 24.7252 46.0345 25.1849 46.1678C25.787 46.3429 26.5225 46.3922 27.5984 46.2908C27.6346 46.2386 27.6712 46.1856 27.7062 46.1335C28.0822 45.5667 28.3668 44.9634 28.6131 44.2534C28.6691 44.0893 28.8445 44.0037 29.0043 44.0618C29.1644 44.1192 29.2478 44.299 29.1912 44.4628C28.9279 45.2206 28.621 45.8692 28.2122 46.4852C28.1498 46.5791 28.0856 46.6724 28.018 46.7642C28.0122 46.7732 28.0055 46.782 27.9982 46.791C27.7239 47.1652 27.4082 47.5301 27.0365 47.9037C27.5239 48.0095 27.8337 47.9492 28.1735 47.8828C29.0144 47.7186 30.0117 47.5232 33.4186 49.0887C34.5715 49.4355 35.7092 48.8902 36.8468 48.3453C37.3603 48.0994 37.8746 47.8525 38.3981 47.678L38.0352 46.42C37.9871 46.2537 38.0803 46.0792 38.2426 46.0299C38.4048 45.9806 38.575 46.0761 38.6231 46.2424L39.0682 47.786C39.0703 47.7935 39.0733 47.801 39.0749 47.8085C39.0755 47.8107 39.0764 47.8129 39.0764 47.8154L39.256 48.4386C39.7245 48.3871 40.1617 48.2926 40.6214 48.109C41.1161 47.9115 41.6449 47.6103 42.2769 47.1478C42.1031 46.7967 41.8513 46.3416 41.5664 45.8279C40.695 44.2575 39.5246 42.1455 39.1942 40.4359C39.1424 40.5395 39.0901 40.6431 39.0377 40.7467C38.61 41.5938 38.1822 42.4411 38.1199 43.4342C38.1089 43.6071 37.9634 43.7391 37.7947 43.7279C37.6261 43.7166 37.4973 43.5675 37.5083 43.3946C37.5789 42.2701 38.0355 41.3647 38.4931 40.4587C39.235 38.989 39.9763 37.52 38.7674 35.1075C38.7449 35.2632 38.6109 35.3796 38.4539 35.3737C38.2852 35.3677 38.1528 35.2223 38.1586 35.0485C38.224 33.1759 37.1336 32.9768 35.9256 32.7562L35.8245 32.7374C35.7895 32.7315 35.756 32.7181 35.7234 32.6987C34.6162 32.0418 33.8366 31.1825 33.0381 30.3028C32.2459 29.4302 31.435 28.5376 30.2754 27.8366C30.1299 27.7486 30.0811 27.5554 30.1676 27.4063C30.2535 27.2571 30.4419 27.2071 30.5874 27.2958C30.7235 27.3779 30.8544 27.4621 30.981 27.5486C30.9637 26.847 31.125 26.2428 31.2925 25.6186C31.571 24.5775 31.8663 23.4739 31.2328 21.7312L30.2894 21.4038C29.2318 22.1272 29.2705 23.7445 29.3088 25.3611C29.3225 25.9354 29.3366 26.5103 29.3046 27.0502C29.1831 29.0979 29.3387 29.1391 29.6784 29.2283C29.8842 29.2827 30.1293 29.3469 30.4212 29.5504L30.4255 29.5535L30.4261 29.5529C32.9297 31.3537 35.0988 32.9117 37.6716 34.5424C37.8156 34.6332 37.86 34.8264 37.7711 34.974C37.6825 35.1216 37.4941 35.1672 37.3501 35.076L34.7381 33.4198C34.7271 33.4139 34.717 33.407 34.7067 33.3995L30.0739 30.0663L30.0745 30.0657C29.9536 29.982 29.8389 29.9315 29.7326 29.895L29.7337 29.8958ZM19.0692 13.4235C19.2918 13.1676 19.6242 12.9501 20.033 12.7881C20.5472 12.5852 21.1902 12.4638 21.8833 12.4638C22.7068 12.4638 23.4597 12.6355 24.0101 12.912C24.6269 13.2222 25.008 13.6741 25.008 14.1953C25.008 14.7165 24.6269 15.1684 24.0101 15.4786C23.4594 15.7551 22.7065 15.9268 21.8833 15.9268C19.9368 15.9761 19.3106 14.9702 18.7666 14.0954C18.4348 13.563 18.1419 13.0917 17.5278 13.0949L17.5257 12.4679C18.3172 12.4641 18.7126 12.8861 19.07 13.4238L19.0692 13.4235ZM20.254 13.3742C19.8437 13.5359 19.5472 13.7509 19.4263 13.9872C19.8598 14.6591 20.4321 15.3376 21.8761 15.2989L21.8834 15.2973C22.6159 15.2973 23.2728 15.1513 23.741 14.9157C24.1441 14.7128 24.3934 14.4572 24.3934 14.196C24.3934 13.9351 24.1438 13.6785 23.741 13.4763C23.2719 13.2406 22.6158 13.0946 21.8834 13.0946C21.2636 13.0946 20.6976 13.1985 20.254 13.3742ZM18.0631 14.97C17.8427 15.2234 17.5139 15.4391 17.1102 15.6007C16.5945 15.8064 15.9479 15.9297 15.2489 15.9297C14.4254 15.9297 13.6725 15.758 13.1221 15.4815C12.5054 15.1713 12.1242 14.7194 12.1242 14.1982C12.1242 13.6771 12.5053 13.2251 13.1221 12.9149C13.6728 12.6384 14.4257 12.4667 15.2489 12.4667C17.1954 12.4174 17.8216 13.4233 18.3656 14.2981C18.6975 14.8305 18.9903 15.3018 19.6044 15.2987L19.6065 15.9257C18.815 15.9294 18.4196 15.5074 18.0622 14.9697L18.0631 14.97ZM16.8898 15.0146C17.2941 14.853 17.5872 14.6404 17.7065 14.406C17.273 13.7341 16.7007 13.0556 15.2567 13.0943L15.2494 13.0958C14.517 13.0958 13.86 13.2419 13.3918 13.4775C12.9887 13.6804 12.7394 13.936 12.7394 14.1972C12.7394 14.4581 12.989 14.7147 13.3918 14.9169C13.8609 15.1525 14.517 15.2986 15.2494 15.2986C15.8741 15.2986 16.4437 15.1919 16.8903 15.0137L16.8898 15.0146ZM13.423 44.0785C13.5569 43.9727 13.7487 43.998 13.8528 44.1353C13.956 44.2727 13.9314 44.4702 13.7974 44.576C13.6528 44.6902 13.5609 44.8251 13.5189 44.9602C13.4781 45.09 13.4811 45.2189 13.5246 45.3263C13.6549 45.3821 13.8032 45.4137 13.9661 45.4105C14.0105 45.0214 14.2352 44.5969 14.6745 44.2936C14.8148 44.1965 15.0054 44.2346 15.1007 44.3785C15.1954 44.5224 15.1582 44.7177 15.0179 44.8154C14.6958 45.0383 14.5582 45.3426 14.5719 45.5866C14.5761 45.6649 14.5965 45.7336 14.6315 45.7851C14.6599 45.8269 14.7013 45.8581 14.7536 45.8737C14.8961 45.9162 15.1086 45.8669 15.3893 45.6715C15.4118 45.5223 15.5369 45.4084 15.6888 45.4068C17.3057 45.3891 18.7746 45.351 20.2882 44.817C21.8003 44.2845 23.376 43.2509 25.2273 41.2369C25.343 41.1108 25.5372 41.1043 25.6608 41.2235C25.7838 41.3421 25.7902 41.5412 25.6739 41.6679C23.7447 43.767 22.088 44.8491 20.4876 45.4127C18.9694 45.9474 17.5206 46.0101 15.9436 46.031C15.396 46.4807 14.9247 46.58 14.5804 46.476C14.3883 46.4186 14.2364 46.301 14.1295 46.1433C14.1064 46.109 14.0851 46.0725 14.0662 46.0354C13.437 46.0787 12.9338 45.7929 12.6269 45.3843C12.4835 45.1933 12.3824 44.9749 12.3322 44.7498C12.2804 44.5201 12.2798 44.2814 12.3389 44.0564C12.4509 43.6247 12.7687 43.2502 13.3383 43.0795C13.9691 42.8907 14.6948 42.7967 15.3655 42.9565C15.6079 43.0139 15.8413 43.1041 16.0608 43.2324C16.7345 43.3279 17.597 43.3816 18.4037 43.1928C19.201 43.0064 19.9502 42.5767 20.4011 41.6975C20.6461 41.2187 20.9198 40.6467 21.2012 40.0197C21.477 39.4061 21.7583 38.7482 22.0262 38.0825C22.0901 37.9221 22.2691 37.8453 22.4256 37.9118C22.5821 37.9773 22.6569 38.1608 22.5921 38.3213C22.3157 39.0082 22.0319 39.6733 21.7577 40.2831C21.4724 40.9176 21.1938 41.4999 20.943 41.9909C20.3938 43.0623 19.4933 43.5829 18.5374 43.8061C17.959 43.9409 17.3641 43.9655 16.8192 43.9381L16.8271 43.9493C16.9261 44.0904 16.8947 44.2864 16.7574 44.3872C16.6198 44.4886 16.4286 44.4565 16.3303 44.3157C16.0371 43.8966 15.6487 43.6691 15.2282 43.5692C14.6711 43.4365 14.0519 43.5192 13.5079 43.6825C13.1733 43.7823 12.9907 43.9868 12.931 44.2165C12.8981 44.341 12.8996 44.4768 12.9295 44.6094C12.9368 44.6422 12.9462 44.6749 12.9572 44.7071C13.0415 44.4789 13.1949 44.2589 13.4236 44.0792L13.423 44.0785ZM28.7542 33.4691C28.749 33.3611 28.8297 33.2684 28.9359 33.2634C29.0413 33.2581 29.1317 33.3408 29.1365 33.4497C29.1597 33.9188 29.2434 34.4453 29.4632 34.8613C29.6699 35.2536 30.0029 35.5489 30.5332 35.5973C30.6386 35.6069 30.7165 35.7018 30.7071 35.8098C30.6976 35.9178 30.6051 35.9977 30.4997 35.988C29.816 35.9253 29.3882 35.5473 29.1249 35.0471C28.8747 34.5714 28.7797 33.9859 28.7542 33.4691ZM13.8882 37.575C13.8553 37.472 13.9108 37.3609 14.0112 37.3275C14.1117 37.2938 14.2201 37.3506 14.2526 37.4536C14.4201 37.9801 14.6831 38.2798 14.9903 38.4423C15.3029 38.6078 15.6719 38.6371 16.0347 38.6162C16.1401 38.6103 16.2305 38.693 16.2363 38.8013C16.2421 38.9092 16.1614 39.0019 16.0557 39.0079C15.6347 39.0325 15.2003 38.9951 14.8149 38.7916C14.4228 38.585 14.0913 38.2133 13.8882 37.575ZM17.8504 28.7744C17.9624 28.6446 18.1561 28.6328 18.2824 28.7476C18.364 28.8216 18.3981 28.9302 18.3813 29.0332C18.4708 29.0675 18.5436 29.1443 18.5704 29.2463C18.6139 29.4142 18.5165 29.5865 18.353 29.6312L17.7034 29.8109C17.6075 29.8371 17.5012 29.8147 17.4218 29.7426C17.2951 29.6277 17.2836 29.4292 17.3956 29.2997L17.8504 28.7744ZM14.6457 29.0332C14.6295 28.9302 14.663 28.8213 14.7446 28.7476C14.8712 28.6321 15.0655 28.644 15.1781 28.7738L15.6326 29.2988C15.7453 29.4286 15.7337 29.6277 15.6071 29.7432C15.5255 29.8178 15.415 29.8393 15.3175 29.8103L14.6746 29.6327C14.5108 29.5881 14.4134 29.4158 14.4572 29.2479C14.4834 29.1458 14.5562 29.0697 14.6457 29.0347L14.6457 29.0332ZM19.0718 31.0764C19.0063 30.917 19.0791 30.7328 19.2347 30.6654C19.3902 30.5983 19.5698 30.6729 19.6356 30.8324L19.6472 30.8599C20.1848 32.1603 20.747 33.5189 17.9743 35.4177C17.834 35.5138 17.6434 35.4758 17.5496 35.3319C17.4559 35.188 17.493 34.9926 17.6333 34.8965C19.9857 33.2858 19.5245 32.171 19.0831 31.1039L19.0718 31.0764ZM12.2997 28.4299C12.2598 28.4552 12.2196 28.4804 12.1804 28.5073C11.6369 28.8777 11.2929 29.3552 11.1883 29.9286C11.0799 30.5206 11.2187 31.229 11.6437 32.0464C11.7426 32.2374 11.8598 32.4372 11.9956 32.646L12.0218 32.6862L12.0349 32.734C12.1673 33.2128 11.97 33.6662 11.7722 34.1194C11.711 34.2595 11.6507 34.399 11.6056 34.5273C11.4513 34.968 11.4753 35.3952 12.4334 35.7473C12.6638 35.8322 12.8109 35.9299 12.9317 36.08C13.0416 36.2174 13.1098 36.3762 13.1957 36.6012C13.3485 37.0038 13.3935 37.4454 13.438 37.884C13.5479 38.9607 13.6563 40.0196 15.9292 39.7281C16.0972 39.7072 16.2506 39.8296 16.271 40.0025C16.2914 40.1747 16.1721 40.332 16.0034 40.3529C15.9279 40.3626 15.8552 40.3707 15.783 40.3782C15.8077 40.4513 15.8369 40.5243 15.8689 40.5967C16.0296 40.9562 16.2768 41.2895 16.608 41.5034C16.9301 41.7121 17.339 41.8092 17.8331 41.7047C18.0142 41.6666 18.2078 41.601 18.4127 41.5049C18.5662 41.4325 18.7479 41.5018 18.8185 41.66C18.8892 41.8173 18.8216 42.0036 18.6672 42.076C18.4185 42.1931 18.1814 42.273 17.9552 42.3207C17.2888 42.4618 16.7295 42.326 16.2814 42.0352C15.8421 41.7502 15.5176 41.3186 15.3118 40.8577C15.2463 40.7122 15.1934 40.563 15.1517 40.4148C13.08 40.4238 12.9549 39.1954 12.8277 37.9486C12.7869 37.552 12.7461 37.1531 12.624 36.8285C12.5607 36.6615 12.5135 36.5482 12.459 36.4795C12.4139 36.4237 12.3454 36.3819 12.2276 36.3385C10.7737 35.8039 10.7633 35.0783 11.0303 34.3161C11.0848 34.1595 11.1497 34.0119 11.2136 33.8642C11.3576 33.534 11.5016 33.2029 11.4544 32.9464C11.3241 32.7429 11.2078 32.5416 11.1037 32.3415C10.609 31.3909 10.4528 30.5436 10.5859 29.813C10.7225 29.0636 11.1576 28.4498 11.8419 27.9832C11.9052 27.9398 11.9728 27.8974 12.0425 27.8549C11.9378 27.5431 11.9074 27.2754 11.9311 27.0391C11.9667 26.6842 12.1165 26.4143 12.318 26.1824C12.2773 25.957 12.2614 25.7289 12.2809 25.5173C12.3065 25.2408 12.3908 24.9892 12.5537 24.7998C12.6745 24.6597 12.8316 24.5589 13.0322 24.5105C13.1522 24.4799 13.284 24.5261 13.358 24.6372C13.4323 24.7467 13.5099 24.8429 13.59 24.9281C13.6298 24.8625 13.6722 24.7976 13.7181 24.7333C14.1181 24.1719 14.7285 23.7043 15.4034 23.464C16.0936 23.2187 16.8553 23.2075 17.5385 23.5685C17.5747 23.5879 17.6112 23.6082 17.6474 23.6303C17.8505 23.444 18.0889 23.2858 18.3531 23.18C18.7525 23.0205 19.207 22.9793 19.6856 23.1397C20.1018 23.2792 20.5308 23.5701 20.949 24.0682C21.2407 24.0323 21.5229 24.0457 21.7905 24.1138C22.3375 24.2523 22.8094 24.6119 23.1653 25.2426C23.2402 25.3762 23.3108 25.5229 23.3763 25.6855C23.4156 25.7042 23.4554 25.7236 23.4962 25.7445C23.5705 25.7735 23.4417 25.722 23.5325 25.7579C23.7477 25.8422 23.9958 25.9392 24.1754 26.1174C24.489 26.4277 24.5645 26.858 23.9413 27.52L23.9407 27.5194C23.0271 28.5387 21.9689 28.5821 20.8602 28.6267C20.7287 28.632 20.5963 28.637 20.4462 28.646C20.2775 28.6551 20.1335 28.5215 20.1247 28.3486C20.1159 28.1757 20.2462 28.0281 20.4148 28.019C20.5451 28.0115 20.6906 28.0056 20.8358 27.9997C21.8164 27.96 22.7526 27.9213 23.4944 27.0905L23.4996 27.0846L23.499 27.084C23.79 26.7744 23.8177 26.6358 23.7498 26.5693C23.6612 26.4813 23.4755 26.4089 23.3133 26.3456C23.3017 26.3412 23.2886 26.3359 23.3133 26.3456L23.2542 26.3218C23.2454 26.3181 23.2369 26.3143 23.228 26.31C22.003 25.6852 21.3369 26.2295 20.6711 26.7738C20.2769 27.0958 19.8826 27.4173 19.3705 27.573C19.2083 27.6223 19.0381 27.5268 18.99 27.3605C18.9644 27.2719 18.979 27.1807 19.0229 27.1077C17.4663 26.1689 16.7192 26.5796 15.5161 27.2419C15.3189 27.3499 15.1119 27.4647 14.914 27.5677C14.7627 27.6467 14.5779 27.5849 14.5009 27.4298C14.4238 27.2747 14.4841 27.0852 14.6354 27.0063C14.8616 26.8883 15.0485 26.7856 15.2254 26.6879C15.296 26.6492 15.3651 26.6111 15.4333 26.5737C15.1852 26.4239 14.9146 26.3284 14.6418 26.2323C14.0811 26.0347 13.513 25.834 13.0125 25.2136L13.0095 25.2173C12.9398 25.2985 12.9017 25.4255 12.888 25.5753C12.8719 25.7541 12.8917 25.9586 12.9361 26.1599C13.0189 26.5356 13.1785 26.8824 13.3429 27.0309C13.4613 27.1383 13.6178 27.2353 13.7888 27.3277C13.7983 27.3321 13.8077 27.3374 13.8165 27.3427C13.9213 27.3985 14.0303 27.4531 14.1386 27.5075C14.3816 27.6282 14.6224 27.7484 14.8276 27.8907C14.9679 27.9878 15.005 28.1838 14.9104 28.3276C14.8157 28.4715 14.6245 28.5096 14.4842 28.4125C14.3146 28.2955 14.1036 28.1897 13.8905 28.083C13.847 28.6148 13.9785 29.1472 14.1103 29.6787C14.1998 30.0383 14.2884 30.3975 14.3322 30.7764C14.3511 30.9486 14.2303 31.1044 14.0625 31.1247C13.8945 31.144 13.7426 31.0201 13.7228 30.8481C13.7161 30.7901 13.7082 30.7317 13.6987 30.6731C13.6552 30.767 13.6092 30.8609 13.5636 30.9558C13.1331 31.8381 12.6877 32.7516 14.331 34.1966C14.4598 34.3092 14.4744 34.5074 14.3645 34.6394C14.2546 34.7715 14.0613 34.7864 13.9325 34.6738C11.9273 32.9095 12.4813 31.7728 13.0168 30.6752C13.2263 30.2448 13.433 29.8222 13.4095 29.3919C13.2917 28.8698 13.2132 28.3405 13.3112 27.7746C13.1772 27.6926 13.0509 27.6039 12.938 27.5019C12.8034 27.3805 12.674 27.1885 12.5663 26.9629C12.5532 27.0084 12.5437 27.0553 12.5385 27.1052C12.5145 27.3489 12.5873 27.666 12.8171 28.1014C12.8972 28.2543 12.8411 28.445 12.692 28.5271C12.5538 28.6033 12.3842 28.5599 12.2962 28.4316L12.2997 28.4299ZM17.2364 24.1161C16.7206 23.853 16.1386 23.8671 15.6034 24.0571C15.0454 24.2556 14.5415 24.6411 14.2127 25.1027C14.1646 25.1698 14.1205 25.24 14.0797 25.3121C14.3263 25.4538 14.586 25.5455 14.8426 25.6363C15.2579 25.7833 15.6697 25.9278 16.0557 26.2515C17.1045 25.7549 17.9986 25.6638 19.6441 26.763C19.8666 26.6272 20.0782 26.4543 20.2901 26.2811C20.9251 25.7627 21.5592 25.2446 22.5456 25.4116C22.2947 25.0312 21.9875 24.8115 21.6436 24.7234C21.4122 24.6645 21.1604 24.6629 20.8943 24.71C20.8834 24.7131 20.8718 24.7153 20.8603 24.716C20.6749 24.7518 20.4828 24.8105 20.2864 24.891C20.0864 24.9722 19.8797 25.0774 19.6687 25.2028C19.5226 25.2902 19.3347 25.2387 19.2498 25.0886C19.1646 24.9388 19.2148 24.7462 19.3612 24.6591C19.5941 24.5212 19.8276 24.4032 20.0602 24.3087C20.1263 24.2818 20.1926 24.2565 20.2587 24.2334C19.9975 23.9775 19.7409 23.8196 19.4958 23.7375C19.1655 23.627 18.8519 23.6548 18.5764 23.765C18.2905 23.8792 18.0434 24.0811 17.8576 24.3115C17.6509 24.568 17.5267 24.8476 17.5188 25.0677C17.513 25.2406 17.3712 25.3763 17.2016 25.3704C17.0329 25.3645 16.9005 25.219 16.9063 25.0452C16.9172 24.7559 17.0357 24.4232 17.2357 24.1155L17.2364 24.1161ZM27.6094 32.6171C27.61 32.5968 27.6131 32.5768 27.6173 32.5559C27.6843 32.2704 27.7132 31.9735 27.6952 31.6977C27.6779 31.4389 27.6188 31.2049 27.5077 31.0267C27.4088 30.8678 27.2633 30.7514 27.0633 30.7024C26.9643 30.6787 26.8486 30.6696 26.7156 30.6787C26.3375 30.7049 26.0894 30.6756 25.8812 30.4827C25.6927 30.3082 25.5953 30.033 25.5125 29.5655C25.4863 29.4172 25.4717 29.2821 25.4586 29.151C25.4078 28.6604 25.3627 28.2285 24.4549 28.2734C24.2862 28.2815 24.1422 28.1474 24.1349 27.9744C24.127 27.8015 24.2579 27.6539 24.4266 27.6464C25.9113 27.5734 25.9853 28.2809 26.069 29.0849C26.0821 29.2116 26.0958 29.3421 26.1155 29.4547C26.1731 29.779 26.2218 29.9522 26.2924 30.0177C26.3417 30.0639 26.4647 30.0661 26.6757 30.0515C26.8693 30.038 27.0453 30.053 27.206 30.0923C27.5756 30.1825 27.8432 30.3972 28.0249 30.6897C28.1004 30.8105 28.1601 30.944 28.2055 31.0864C28.4049 30.7053 28.6463 30.3183 28.9315 29.9269C28.9897 29.8479 29.0487 29.7687 29.109 29.6906C28.7321 29.4781 28.5802 28.9644 28.695 27.0151C28.7263 26.4895 28.7133 25.9337 28.6993 25.3775C28.6679 24.0614 28.6368 22.7459 29.1495 21.7803C29.4265 20.9311 29.5495 19.7729 29.6521 18.5739C29.3568 18.7842 29.0113 18.9356 28.6009 19.0042C28.4335 19.0317 28.2764 18.9156 28.2496 18.7449C28.2228 18.5732 28.3361 18.4122 28.5026 18.3847C29.0177 18.2989 29.411 18.023 29.7298 17.6441C29.8738 15.9245 30.0476 14.2526 30.657 13.278C30.9261 12.847 31.3749 12.5726 31.8702 12.4203C32.4461 12.2428 33.0952 12.2303 33.5853 12.3258C33.968 12.3467 34.3315 12.44 34.6706 12.6301C35.3188 12.9934 35.8534 13.6965 36.2208 14.9009C36.2239 14.9106 36.226 14.9196 36.2281 14.9293L36.2287 14.9337C36.6638 17.0456 36.6857 19.7053 36.7073 22.3653C36.7094 22.5988 36.711 22.8322 36.7131 23.0656C37.0425 23.5341 37.2717 24.0627 37.2026 24.7725C37.1649 25.1632 37.0245 25.7247 36.767 26.1541C36.5953 26.4397 36.3712 26.6738 36.0863 26.7858C35.9611 27.4159 35.8427 28.1893 35.8485 29.0722C35.8552 29.9991 35.9977 31.0559 36.4144 32.2116C37.3768 32.3994 38.2264 32.6591 38.5899 33.6344C38.6191 33.6553 38.6453 33.6822 38.6663 33.7143C40.2506 36.1065 40.2396 37.7263 39.7674 39.122C39.4131 40.6731 41.0056 43.5447 42.1015 45.5209C42.4558 46.1592 42.7597 46.7072 42.9402 47.1086C43.0063 47.2428 42.9707 47.4097 42.8492 47.5024C42.079 48.087 41.444 48.4584 40.8451 48.6978C40.2384 48.9393 39.6777 49.0439 39.0593 49.0922C38.9065 49.1041 38.7719 48.9989 38.7379 48.8513L38.5741 48.2845C38.0845 48.4487 37.5965 48.6828 37.1077 48.9168C35.8589 49.5158 34.6098 50.1143 33.2314 49.6908C33.2116 49.6849 33.1936 49.6774 33.176 49.6677C29.9399 48.181 29.043 48.356 28.2871 48.5037C27.7583 48.6073 27.2898 48.699 26.3348 48.3523C26.1747 48.2949 26.0913 48.1151 26.1479 47.9513C26.1683 47.8923 26.2039 47.8439 26.2484 47.808C26.5583 47.5193 26.831 47.2406 27.074 46.9622C26.217 47.0047 25.5741 46.9376 25.02 46.7765C24.318 46.573 23.7755 46.2269 23.1325 45.7669C23.0817 45.7341 23.0394 45.6864 23.0141 45.6258C22.9465 45.4669 23.0178 45.2822 23.1727 45.2126C25.456 44.1955 26.8445 42.9539 27.7465 41.587C28.6011 40.2918 29.0267 38.8718 29.3627 37.4193C29.2428 37.3587 29.1271 37.2879 29.0178 37.2045C28.9445 37.1477 28.8754 37.0919 28.812 37.036C27.9718 36.3001 27.4649 35.2455 27.4439 33.9987C27.4366 33.5608 27.4899 33.0992 27.6098 32.6198L27.6094 32.6171ZM15.1532 34.2606C15.004 34.3426 14.818 34.2852 14.7379 34.1323C14.6579 33.9794 14.7139 33.7887 14.8631 33.7066C15.0107 33.6254 15.152 33.5627 15.296 33.5231L15.317 32.5693C15.0972 32.5187 14.8588 32.4089 14.5946 32.2194C14.4563 32.1202 14.4222 31.9248 14.5191 31.7825C14.6159 31.6408 14.8064 31.6058 14.9453 31.7051C15.5855 32.1645 16.0394 31.8892 16.4933 31.6143C16.787 31.436 17.0811 31.2579 17.4409 31.1973C17.6084 31.1698 17.7655 31.2859 17.7923 31.4566C17.819 31.6283 17.7058 31.7893 17.5393 31.8168C17.2948 31.8577 17.0498 32.0062 16.8053 32.1545C16.5237 32.3252 16.2424 32.4959 15.9295 32.5683L15.9091 33.4855C16.2713 33.5339 16.6932 33.7018 17.2866 34.0186C17.4373 34.0991 17.4955 34.2886 17.4175 34.4431C17.339 34.5975 17.1542 34.6572 17.0035 34.5773C16.4717 34.2933 16.1103 34.1456 15.8287 34.1082C15.5821 34.0754 15.3827 34.1328 15.1538 34.2595L15.1532 34.2606ZM23.3152 26.3459C23.335 26.3534 23.3253 26.3496 23.3152 26.3459V26.3459ZM36.451 23.8516C35.9375 24.3921 35.1926 24.5532 34.3794 24.5048C33.6731 24.463 32.9135 24.261 32.2213 24.0207C32.1827 24.6733 32.0323 25.237 31.8852 25.785C31.691 26.5106 31.5047 27.2056 31.6459 28.0458C32.3501 28.6229 32.9245 29.2552 33.4899 29.8772C34.1648 30.62 34.826 31.3478 35.6741 31.928C35.3569 30.8884 35.2421 29.9296 35.2364 29.072C35.2306 28.186 35.3405 27.4151 35.4619 26.7781C35.1624 26.7116 34.6312 26.652 33.8079 27.0169C33.7513 27.0422 33.6916 27.0615 33.6289 27.0774C33.3008 27.1586 32.9814 27.0743 32.7138 26.8939C32.4621 26.7247 32.2569 26.4682 32.1385 26.1876C32.1071 26.1137 32.0809 26.0331 32.0605 25.9467C32.0212 25.7782 32.1229 25.609 32.2873 25.5694C32.4517 25.5291 32.6167 25.6334 32.6554 25.8019C32.6648 25.8437 32.681 25.8899 32.702 25.9392C32.7747 26.1121 32.8992 26.2688 33.049 26.3702C33.183 26.4604 33.3355 26.5038 33.484 26.4673C33.5081 26.4613 33.5349 26.4517 33.5647 26.4389C34.6972 25.9377 35.3941 26.113 35.7258 26.1964C35.7709 26.2076 35.7563 26.2232 35.7797 26.2195C35.9615 26.1911 36.1179 26.0322 36.2437 25.8219C36.4495 25.4789 36.5615 25.0254 36.5929 24.7086C36.6242 24.3893 36.5646 24.1088 36.451 23.8516ZM32.2191 23.3557C32.919 23.6106 33.7029 23.835 34.4128 23.8778C35.1185 23.9196 35.7462 23.7795 36.1127 23.2954C35.9861 23.1275 35.8457 22.9659 35.7048 22.8039C35.2886 22.3245 34.8718 21.8448 34.7157 21.1841C34.7136 21.1751 34.7121 21.1654 34.7105 21.1567C34.5331 20.4869 34.5163 19.7591 34.499 19.0313C34.4953 18.8746 34.4917 18.7179 34.4865 18.5622C34.4086 18.6293 34.3273 18.6898 34.2414 18.7426C33.9723 18.908 33.6682 18.996 33.3439 18.9751C33.069 18.9573 32.7847 18.8618 32.501 18.6686C32.4465 18.6315 32.3941 18.594 32.3433 18.5569C32.4837 19.2594 32.7564 19.917 33.0286 20.5756C33.2249 21.0499 33.4213 21.524 33.5726 22.0162C33.6234 22.1816 33.5339 22.3585 33.372 22.4113C33.3023 22.4338 33.2301 22.4291 33.1662 22.4038L31.9662 21.9868C32.1153 22.4902 32.1923 22.9422 32.2191 23.3567L32.2191 23.3557ZM34.4668 17.6018C34.4698 17.5965 34.4719 17.5915 34.4756 17.5862C34.5928 17.3634 34.6704 17.1112 34.696 16.8562C34.6037 16.6421 34.5215 16.4231 34.4384 16.2046C34.074 15.2396 33.7087 14.2746 32.439 13.9354C32.1516 14.098 31.9254 14.4647 31.7159 14.9251C31.7537 15.2256 31.7473 15.5149 31.74 15.8036C31.7202 16.5873 31.7013 17.3703 32.839 18.1453C33.0281 18.2742 33.2113 18.3375 33.3824 18.3488C33.5767 18.3616 33.7614 18.3069 33.9274 18.2049C34.1042 18.096 34.2613 17.9334 34.3877 17.738C34.416 17.694 34.4422 17.6494 34.4677 17.6032L34.4668 17.6018ZM35.0546 17.8047C35.0918 18.1986 35.1018 18.6071 35.1112 19.0156C35.131 19.8455 35.1499 20.6763 35.4227 21.3557C35.5776 21.6959 35.8321 22.0014 36.0949 22.3051C36.0738 19.7057 36.0498 17.1106 35.6309 15.0711C35.3167 14.048 34.8869 13.4635 34.3776 13.1785C34.1246 13.0368 33.8457 12.9659 33.5477 12.9503C33.5368 12.9503 33.5258 12.9497 33.5158 12.9488C33.2902 12.9397 33.0545 12.9616 32.8101 13.0062L32.7525 13.3723C34.1943 13.8189 34.6022 14.8981 35.0096 15.9771C35.097 16.2083 35.184 16.4393 35.283 16.6609C35.286 16.6668 35.2888 16.6727 35.2909 16.6786C35.4081 16.9405 35.5411 17.1886 35.7092 17.408C35.8139 17.5444 35.7908 17.742 35.6574 17.8493C35.5244 17.9567 35.3317 17.933 35.227 17.7963C35.1907 17.7485 35.1557 17.7008 35.1229 17.6524C35.1018 17.7039 35.0793 17.7544 35.0553 17.8037L35.0546 17.8047ZM31.1259 16.3834C30.9055 16.9212 30.6559 17.4536 30.3244 17.8996L30.3098 18.0756C30.2364 18.9639 30.1637 19.8527 30.0349 20.6513L32.7793 21.6035C32.6798 21.3405 32.572 21.0802 32.4642 20.8199C32.0825 19.8973 31.7004 18.9757 31.6408 17.8909C31.2487 17.3868 31.1463 16.8853 31.1259 16.3834ZM30.469 16.3597C30.5825 16.0979 30.6864 15.8295 30.7883 15.5686C31.1549 14.6267 31.4925 13.7603 32.129 13.392L32.1939 12.9804C32.1437 12.9922 32.0943 13.0066 32.0456 13.0212C31.6791 13.1339 31.3546 13.3255 31.1728 13.6155C30.7896 14.2291 30.5978 15.2305 30.469 16.3597Z" fill="#304973"/>
</svg>
