<svg width="10" height="10" viewBox="0 0 10 10" fill="none" xmlns="http://www.w3.org/2000/svg">
<path d="M4.61487 2.89979C4.61487 1.29828 3.58166 0.000153934 2.30734 0.000153823C1.03315 0.000153711 7.60733e-07 1.29823 6.2072e-07 2.89979C4.83651e-07 4.46768 0.990753 5.74207 2.22777 5.79468C2.07811 7.06615 1.35268 8.61527 0.250854 10C2.2576 10.0004 4.61487 6.40513 4.61487 2.89979Z" fill="#253858" fill-opacity="0.2"/>
<path d="M7.69245 -2.01733e-07C6.41834 6.40556e-07 5.38491 1.29818 5.38491 2.89963C5.38491 4.46753 6.37566 5.74191 7.61268 5.79453C7.46302 7.066 6.73765 8.61511 5.63592 9.99985C7.64286 10.0002 10 6.40473 10 2.89938C10 1.29788 8.96685 -9.0321e-08 7.69245 -2.01733e-07Z" fill="#253858" fill-opacity="0.2"/>
</svg>
