<svg width="13" height="15" viewBox="0 0 13 15" fill="none" xmlns="http://www.w3.org/2000/svg">
<path d="M6.00327 4.34969C6.00327 1.94743 4.73782 0.000243254 3.17705 0.000243254C1.61646 0.000243254 0.351074 1.94736 0.351074 4.34969C0.351074 6.70153 1.56453 8.61311 3.0796 8.69203C2.8963 10.5992 2.0078 12.9229 0.658313 15C3.11613 15.0006 6.00327 9.6077 6.00327 4.34969Z" fill="#D32432"/>
<path d="M9.77262 0C8.21212 0 6.9464 1.94726 6.9464 4.34945C6.9464 6.70128 8.15985 8.61286 9.67493 8.69179C9.49162 10.599 8.6032 12.9227 7.25383 14.9998C9.71189 15.0003 12.5989 9.60709 12.5989 4.34907C12.5989 1.94682 11.3335 0 9.77262 0Z" fill="#D32432"/>
</svg>
