<svg width="10" height="10" viewBox="0 0 10 10" fill="none" xmlns="http://www.w3.org/2000/svg">
<path d="M5.38513 7.10021C5.38513 8.70172 6.41834 9.99985 7.69266 9.99985C8.96685 9.99985 10 8.70177 10 7.10021C10 5.53232 9.00925 4.25793 7.77223 4.20532C7.92189 2.93385 8.64732 1.38473 9.74915 3.16335e-08C7.7424 -0.000389397 5.38513 3.59487 5.38513 7.10021Z" fill="#253858" fill-opacity="0.2"/>
<path d="M2.30755 10C3.58166 10 4.61509 8.70182 4.61509 7.10037C4.61509 5.53247 3.62434 4.25809 2.38732 4.20547C2.53698 2.934 3.26235 1.38489 4.36408 0.000153742C2.35714 -0.000235686 -2.60085e-07 3.59527 0 7.10062C1.18826e-07 8.70212 1.03315 10 2.30755 10Z" fill="#253858" fill-opacity="0.2"/>
</svg>
