<svg width="55" height="50" viewBox="0 0 55 50" fill="none" xmlns="http://www.w3.org/2000/svg">
<path fill-rule="evenodd" clip-rule="evenodd" d="M52.6378 8.59502C51.7363 8.82405 50.8923 9.18077 50.1803 9.76371C49.2659 10.5104 49.1199 11.4821 49.4264 12.5514C49.4734 12.7172 49.4793 12.9101 49.738 13.0261C49.5866 12.8291 49.691 12.6645 49.6885 12.5035C49.6721 11.6993 49.9535 11.0377 50.7266 10.6352C51.1233 10.4289 51.5627 10.3887 51.9933 10.3206C52.4357 10.2513 52.6495 10.0754 52.7518 9.66923C52.8243 9.38264 52.865 9.08469 53.044 8.84796C52.9786 8.63717 52.8508 8.54192 52.6378 8.59502Z" fill="#253858"/>
<path fill-rule="evenodd" clip-rule="evenodd" d="M54.6536 7.1671C54.2506 6.7289 53.7064 6.45812 53.1165 6.31057C52.1752 6.07424 51.2197 5.87196 50.3119 5.53348C49.5962 5.26716 48.8562 5.07218 48.1454 4.79491C47.7735 4.64898 47.3668 4.71991 46.9903 4.59506C46.3572 4.38509 45.7106 4.21199 45.08 3.99471C44.392 3.75757 43.6536 3.76528 42.9576 3.54881C42.0164 3.25654 41.0394 3.06602 40.1099 2.74497C39.2919 2.46325 38.4545 2.23542 37.6365 1.95532C36.6202 1.60711 35.5376 1.447 34.5066 1.12473C33.5741 0.834081 32.5963 0.746527 31.6538 0.505327C31.0366 0.346834 30.4307 0.142121 29.7864 0.0882111C29.2098 0.0399732 28.684 0.123072 28.2379 0.514657C27.9595 0.759499 27.7788 1.07082 27.5805 1.38578C27.4031 1.09594 27.2773 0.782599 27.0581 0.551133C26.6023 0.0687536 26.0027 -0.032996 25.3382 0.00834726C24.5822 0.0565852 23.9059 0.379658 23.1756 0.516265C22.6594 0.612742 22.1521 0.768403 21.6322 0.832452C20.9957 0.911498 20.3819 1.09108 19.7467 1.17012C19.3895 1.21471 19.0801 1.39672 18.7442 1.50414C18.0105 1.73885 17.244 1.83127 16.4939 1.99464C15.67 2.17381 14.9186 2.56133 14.0859 2.72511C13.2042 2.89901 12.3404 3.14831 11.4608 3.34005C10.5874 3.53139 9.70691 3.69271 8.82857 3.8658C8.31998 3.96512 7.83697 4.14875 7.33681 4.27603C6.26386 4.54924 5.16743 4.74341 4.13185 5.14594C3.1893 5.5128 2.15825 5.60684 1.22624 6.02112C0.791864 6.21448 0.457275 6.4804 0.23087 6.87928C-0.215243 7.66204 0.0954434 8.46462 0.249319 9.22839C0.467341 10.3123 0.857702 11.361 1.19186 12.4211C1.71051 14.0572 2.13777 15.7195 2.60441 17.371C2.90126 18.4212 3.19811 19.4707 3.49539 20.5207C3.68785 21.2013 3.83795 21.8961 4.08155 22.5589C4.5264 23.7681 4.80816 25.0195 5.1767 26.2477C5.62995 27.7637 5.99724 29.3046 6.45379 30.819C6.91668 32.3565 7.28985 33.916 7.80387 35.4418C8.31246 36.9506 8.64915 38.5133 9.10447 40.0391C9.72165 42.1081 10.2194 44.2098 10.9443 46.2484C11.2781 47.1848 11.4349 48.1715 11.8579 49.0844C12.2139 49.8521 13.0415 49.9016 13.6739 49.6162C13.8017 49.5586 13.9204 49.4893 14.0604 49.4541C15.0374 49.2048 16.0139 48.951 16.9896 48.6956C18.6742 48.255 20.3568 47.8115 22.041 47.3717C23.384 47.0214 24.7273 46.6639 26.0774 46.3339C26.4284 46.2472 26.7663 46.0676 27.1625 46.1706C28.7369 46.582 30.3193 46.9667 31.8924 47.3859C33.1301 47.7158 34.3917 47.9461 35.637 48.2432C37.3825 48.6591 39.0815 49.2258 40.8026 49.7175C41.338 49.8703 41.8756 49.9498 42.4236 49.998C42.5058 50.0057 42.6173 49.9915 42.6727 49.9429C43.0052 49.6425 43.45 49.4098 43.3934 48.8601C43.3825 48.7568 43.4391 48.6433 43.4794 48.5399C43.6274 48.1576 43.7343 47.7616 43.8672 47.3748C44.3611 45.9452 44.6773 44.4656 45.1024 43.0159C45.52 41.5858 45.8735 40.1375 46.3033 38.711C46.8551 36.878 47.2899 35.0158 47.9129 33.2009C48.3192 32.0188 48.5951 30.7943 48.9355 29.5907C49.5624 27.3689 50.2341 25.1589 50.8102 22.9253C51.3984 20.6456 52.1997 18.4246 52.7293 16.1294C52.8856 15.4513 53.1427 14.7946 53.349 14.1274C53.6529 13.1476 53.902 12.1548 54.2705 11.1893C54.6286 10.2529 54.9577 9.28208 54.9984 8.26219C55.0139 7.86858 54.9179 7.45674 54.6538 7.16728L54.6536 7.1671ZM24.0208 46.2803C21.6796 46.9528 19.3307 47.594 16.9705 48.2045C16.2317 48.3959 15.4937 48.6002 14.7609 48.8199C14.1621 48.9995 13.5366 49.1255 12.9156 49.2419C12.636 49.2941 12.376 49.0639 12.2775 48.7084C11.9404 47.5065 11.6121 46.3018 11.2783 45.0982C10.8842 43.6722 10.4897 42.2465 10.0888 40.8216C9.73076 39.5447 9.4079 38.256 8.99367 36.9962C8.24357 34.712 7.67547 32.3788 6.97982 30.0791C6.77647 29.4054 6.63349 28.7163 6.42552 28.0447C6.19282 27.2903 5.95131 26.5383 5.714 25.7859C5.52825 25.1973 5.43811 24.5779 5.24105 23.9849C4.58571 22.0238 4.10189 20.016 3.53419 18.0314C3.15138 16.6929 2.77445 15.3535 2.40007 14.013C1.90951 12.2557 1.37659 10.5094 0.927946 8.7416C0.867989 8.5069 0.792519 8.27624 0.730887 8.04194C0.556046 7.37998 0.950175 6.73388 1.63361 6.55829C4.21183 5.89228 6.78952 5.22221 9.37022 4.56024C11.2545 4.07664 13.1379 3.59143 15.0276 3.13378C15.4959 3.02109 15.9551 2.88326 16.4171 2.7576C16.5278 2.7272 16.6376 2.6822 16.7789 2.7199C17.2003 2.68382 17.615 2.52856 18.0435 2.43574C18.5273 2.33075 19.0065 2.19819 19.4782 2.04861C20.8577 1.61325 22.2937 1.38949 23.676 0.980061C24.1913 0.828459 24.7217 0.811025 25.2388 0.698742C26.0488 0.522006 26.7439 1.13978 26.9926 1.74011C27.2933 2.46773 27.4845 3.21566 27.6417 3.9704C28.0102 5.73008 28.6304 7.42978 28.9893 9.18822C29.44 11.3955 30.1562 13.5329 30.7247 15.7085C31.2719 17.8091 31.921 19.887 32.4119 21.9998C32.8874 24.0513 33.492 26.0671 34.0279 28.1017C34.331 29.2493 34.5759 30.4127 34.9356 31.5437C35.256 32.5518 35.4467 33.5863 35.7214 34.6022C36.2744 36.6606 36.8543 38.7118 37.4212 40.7669C37.5373 41.1877 37.6488 41.6089 37.757 42.0317C37.8568 42.4217 37.596 42.8368 37.1914 42.9564C36.3801 43.1959 35.5444 43.3374 34.7239 43.5417C33.5109 43.8445 32.2854 44.0954 31.0808 44.4339C29.8691 44.774 28.6435 45.0638 27.4263 45.3812C26.2888 45.6739 25.1492 45.9565 24.0209 46.2803L24.0208 46.2803ZM39.0125 31.1283C38.0121 31.2005 37.0217 31.1843 36.0317 31.059C35.8707 31.0387 35.7102 30.9986 35.5563 30.9475C35.4506 30.9123 35.3617 30.8592 35.3261 30.7238C34.9408 29.2686 34.5416 27.8181 34.1571 26.3625C34.0757 26.0528 34.041 25.731 34.0292 25.4006C34.2665 25.7735 34.5156 26.1392 34.7386 26.5206C35.1881 27.2949 35.8258 27.9054 36.5218 28.4664C37.2803 29.0764 38.1453 29.5 39.0975 29.7355C40.1398 29.9941 41.1964 30.0857 42.2333 29.697C42.5302 29.5855 42.8027 29.4132 43.1457 29.2385C43.1176 29.5361 42.9792 29.6832 42.8098 29.8028C41.6799 30.6078 40.4128 31.0266 39.0124 31.1283L39.0125 31.1283ZM41.3873 36.5975C40.9391 36.6242 40.7567 36.9125 40.5445 37.2124C40.5014 36.8533 40.5269 36.514 40.155 36.3413C40.3676 36.0957 40.7194 36.1131 40.851 35.7981C41.1445 36.028 41.0284 36.4366 41.3873 36.5975ZM39.1345 34.5067C39.0595 34.5586 38.9844 34.61 38.9173 34.6558C38.7048 34.6226 38.654 34.4868 38.7081 34.334C38.7723 34.1499 38.937 34.1836 39.1131 34.2363C39.1219 34.3344 39.1278 34.4167 39.1345 34.5067ZM37.4138 38.0224C37.2708 37.9608 37.2847 37.87 37.3513 37.7423C37.4692 37.84 37.4595 37.9231 37.4138 38.0224ZM36.3358 23.9777C36.1782 23.9603 36.182 23.9603 36.1199 23.6478C36.0868 23.4816 35.9388 23.3774 35.8394 23.2124C36.0486 23.0519 36.2549 22.9068 36.5132 22.8184C36.6486 23.0247 36.7706 23.214 36.901 23.4159C36.7635 23.6664 36.2222 23.5176 36.3358 23.9777ZM40.4779 22.7178C40.6503 23.0437 40.9169 23.257 41.2649 23.471C40.8893 23.6947 40.4608 23.7134 40.1341 23.9813C39.7891 24.2655 39.7903 24.696 39.5342 25.0231C39.343 25.0422 39.2511 24.9952 39.278 24.7633C39.3568 24.0969 39.2461 23.4819 38.6532 23.0385C38.5992 22.9983 38.592 22.9448 38.6134 22.8666C38.8516 22.7624 39.1405 22.7726 39.3824 22.6218C39.657 22.4503 39.8742 22.2541 39.987 21.9464C40.0386 21.8086 40.0692 21.5966 40.3417 21.6647C40.4415 22.0072 40.2947 22.3757 40.4779 22.7178ZM41.4352 26.9405C41.392 27.0771 41.3786 27.2335 41.2012 27.2554C41.0297 27.2769 40.9475 27.163 40.9115 27.0009C40.9534 26.9007 41.0322 26.8278 41.171 26.7852C41.2612 26.8379 41.3417 26.8861 41.4352 26.9405ZM42.1324 22.034C42.1681 21.7307 41.9941 21.5301 41.9257 21.2926C42.109 21.179 42.2943 21.066 42.5022 20.9383C42.6867 21.07 42.7064 21.3011 42.867 21.5163C42.5018 21.5313 42.475 21.9205 42.1324 22.034ZM40.9056 15.2551C40.2096 15.294 39.4943 15.3285 38.8251 15.5822C38.0477 15.8769 37.3002 16.2259 36.6276 16.7079C36.1089 17.0801 35.5894 17.4534 35.1668 17.937C34.353 18.8682 33.9237 19.9529 33.6839 21.1366C33.4902 22.0961 33.5162 23.0434 33.6864 23.9952C33.691 24.0191 33.678 24.0447 33.6738 24.069C33.6407 24.0759 33.6097 24.0836 33.5765 24.0905C32.8277 21.3324 32.0776 18.5751 31.32 15.7931C31.5984 15.3853 32.0219 15.091 32.4411 14.819C33.2491 14.294 34.06 13.7638 35.0029 13.4731C35.7333 13.249 36.4847 13.127 37.2407 13.0406C38.5648 12.8906 39.8658 13.0524 41.1316 13.4399C42.026 13.7135 42.9224 14.0026 43.6662 14.5831C44.5479 15.2734 45.3169 16.0642 45.8838 17.025C45.9269 17.0983 45.9504 17.1575 45.9072 17.2439C45.6301 17.1677 45.5118 16.909 45.3198 16.7436C44.0586 15.6504 42.5761 15.1627 40.9056 15.2551ZM53.4157 11.9112C53.0509 13.1431 52.731 14.3884 52.3486 15.6158C51.962 16.8598 51.5566 18.0983 51.2145 19.3553C50.5491 21.8057 49.8682 24.2528 49.1906 26.7C48.9781 27.4629 48.8066 28.2413 48.5282 28.9822C47.8582 30.7715 47.4389 32.6293 46.9072 34.4554C46.3738 36.2865 45.9118 38.1394 45.3411 39.9599C44.8447 41.5445 44.3973 43.1411 43.9491 44.7383C43.5612 46.121 43.178 47.5045 42.7927 48.8876C42.667 49.3391 42.2011 49.5844 41.7042 49.4437C40.9001 49.2163 40.0992 48.98 39.2963 48.7485C37.1973 48.1425 35.0766 47.6111 32.9601 47.0679C31.5546 46.7071 30.1484 46.3452 28.7442 45.9771C28.5409 45.9235 28.3329 45.9069 28.0495 45.8915C28.4583 45.6532 28.8524 45.5697 29.2209 45.4558C30.2331 45.142 31.267 44.8911 32.2917 44.615C32.4024 44.5854 32.5097 44.5457 32.6217 44.5214C32.8879 44.461 33.0196 44.568 33.0305 44.8392C33.0502 45.3394 33.7114 46.0362 34.4054 45.9316C34.4607 45.9235 34.5202 45.9032 34.5546 45.8214C34.3479 45.4999 34.1458 45.1602 33.7811 44.8294C35.2171 44.9827 36.5747 45.1829 37.8209 44.3762C37.6964 44.0933 37.4242 44.0532 37.1962 43.962C36.4322 43.6539 35.7216 43.8699 35.1332 44.3235C34.5471 44.7767 34.0335 44.5392 33.4754 44.3596C33.7983 44.2027 34.1434 44.12 34.4956 44.0892C35.1387 44.0313 35.7421 43.8128 36.363 43.6701C36.7349 43.5854 37.1144 43.5237 37.4724 43.379C37.9911 43.1703 38.407 42.8845 38.3928 42.2777C38.3869 42.0012 38.5282 42.0146 38.719 42.0632C39.7277 42.319 40.7348 42.5781 41.742 42.8298C42.2128 42.9473 42.6732 43.1018 43.1805 43.1638C43.3679 42.7884 43.422 42.3811 43.5365 41.9947C44.1809 39.7923 44.7315 37.5637 45.4664 35.386C45.5205 35.2263 45.4886 35.1627 45.3641 35.0467C44.8253 34.5404 44.2606 34.0357 43.9624 33.3555C43.5435 32.405 43.7171 31.4714 44.1951 30.58C44.3443 30.3011 44.5129 30.0328 44.6496 29.7454C44.9171 29.1811 44.5364 28.7911 44.2777 28.3647C43.9314 27.7939 43.3972 27.378 42.9721 26.8693C42.1863 25.928 42.1113 24.4976 43.3712 23.7585C44.0744 23.3466 44.8185 23.0519 45.5855 22.7897C46.0198 22.6409 46.4517 22.4824 46.8442 22.2457C47.3197 21.9599 47.6387 21.1443 47.4123 20.4495C47.2719 20.0161 47.1293 19.5812 47.1624 19.1162C47.2056 18.4773 47.5641 18.0476 48.1121 17.7261C48.6429 17.4152 49.1687 17.0946 49.6962 16.78C50.8727 16.08 50.7801 14.6089 50.0694 13.7325C49.8534 13.4662 49.5801 13.2469 49.404 12.9473C49.0446 12.336 49.0467 11.6797 49.175 11.0198C49.357 10.0733 50.0413 9.53256 50.8564 9.07689C51.2442 8.86083 51.6547 8.73801 52.0622 8.58924C52.1246 8.56613 52.1901 8.54789 52.2244 8.46844C51.4521 8.19482 50.6404 8.05335 49.8705 7.7931C48.725 7.40679 47.5364 7.16763 46.3993 6.75329C45.8831 6.56521 45.3108 6.52508 44.7745 6.3832C44.0856 6.20079 43.4081 5.9754 42.7226 5.78244C41.6647 5.48491 40.5846 5.24777 39.5482 4.89429C38.5889 4.56878 37.6073 4.31299 36.6523 3.97777C35.9713 3.739 35.2422 3.63564 34.5424 3.44876C33.6527 3.21162 32.7802 2.91003 31.8808 2.71789C31.3169 2.59708 30.7831 2.394 30.223 2.27198C29.9849 2.2201 29.7534 2.19334 29.4997 2.25617C29.4373 2.47467 29.3731 2.69681 29.306 2.92746C29.6176 3.37904 30.0939 3.66279 30.527 3.98502C31.6293 4.80912 32.8905 5.40173 34.0326 6.16788C34.7533 6.65149 35.5131 7.0909 36.054 7.78405C36.4615 8.30534 36.8732 8.82261 36.841 9.53481C36.8187 9.9957 36.7776 10.453 36.625 10.8907C36.4171 11.4894 35.8774 11.6925 35.3218 11.8555C34.2875 12.1587 33.2178 12.2081 32.1449 12.2519C31.672 12.271 31.1894 12.2483 30.7236 12.3768C30.6141 12.4064 30.4758 12.4449 30.3714 12.2839C30.5324 12.0282 30.8317 12.0505 31.0711 12.0095C31.9667 11.8563 32.877 11.8684 33.7831 11.8381C34.4582 11.8153 35.1235 11.6743 35.7181 11.3224C36.4765 10.8737 36.6786 10.1724 36.5986 9.3856C36.5587 8.99443 36.2698 8.68067 35.9847 8.40705C35.2455 7.7005 34.3097 7.33248 33.3525 6.98255C31.7525 6.39681 30.1651 5.77536 28.8842 4.55851C28.8188 4.72228 28.7634 4.84389 28.7219 4.97037C28.68 5.10171 28.654 5.23831 28.5999 5.45275C28.4213 5.00117 28.2875 4.60878 28.2662 4.20872C28.2439 3.79686 28.1098 3.41704 28.0163 3.02622C27.9764 2.85638 27.966 2.69747 28.0104 2.53451C28.0976 2.22076 28.1962 1.90985 28.2817 1.59609C28.4259 1.06952 28.8406 0.831978 29.3299 0.679161C29.5446 0.61106 29.742 0.736723 29.9395 0.786587C32.4003 1.41774 34.8611 2.05542 37.3176 2.69788C39.3097 3.21918 41.3008 3.74371 43.2887 4.28323C43.6865 4.39187 44.1012 4.45307 44.4874 4.58725C45.2622 4.8556 46.0555 5.05747 46.8367 5.29907C47.37 5.46405 47.939 5.43285 48.4614 5.62783C49.7281 6.10251 51.0736 6.31938 52.3578 6.73726C52.8471 6.89576 53.3356 7.06561 53.7867 7.31897C53.91 7.38747 53.9947 7.49206 54.0416 7.61285C54.1758 7.95335 54.3494 8.26386 54.3091 8.67206C54.1963 9.80506 53.7339 10.8367 53.4156 11.9105L53.4157 11.9112ZM33.2943 44.7855C33.7065 44.9521 33.9375 45.2719 34.1723 45.6299C33.7073 45.638 33.3191 45.2598 33.2943 44.7855ZM35.2101 44.6599C35.6457 44.1207 36.634 43.963 37.1527 44.3311C36.9112 44.5849 36.4076 44.6716 35.2101 44.6599ZM46.0962 11.4182C46.2303 11.346 46.3943 11.2958 46.4509 11.0546C46.653 11.3095 46.6396 11.5852 46.8769 11.7798C46.4626 11.7315 46.4568 12.1203 46.2115 12.3185C46.0966 12.038 46.167 11.7506 45.9838 11.537C45.9482 11.496 46.0333 11.4526 46.0962 11.4182ZM47.7486 15.4945C47.7532 15.3964 47.8388 15.3575 47.8954 15.2934C47.9964 15.2947 48.0765 15.334 48.1444 15.4021C48.1608 15.5281 48.1235 15.6234 48.0027 15.6866C47.8832 15.6652 47.7918 15.6088 47.7486 15.4945ZM32.158 7.50925C32.2787 7.38481 32.4104 7.40629 32.5374 7.53479C32.5068 7.626 32.4808 7.70342 32.4502 7.79463C32.3643 7.80962 32.2729 7.82543 32.1852 7.84124C32.0288 7.73585 32.0548 7.61464 32.158 7.50925ZM34.1278 9.35766C34.5995 9.29604 34.8054 8.96891 35.1811 8.75205C35.1282 9.19592 35.345 9.45333 35.6884 9.74681C35.1773 9.75208 34.9769 10.0038 34.8431 10.3281C34.7928 10.4489 34.7408 10.5547 34.5341 10.4996C34.5777 10.1031 34.6733 9.66858 34.1278 9.35766Z" fill="#253858"/>
<path fill-rule="evenodd" clip-rule="evenodd" d="M9.04947 22.2204C9.74296 22.2107 10.3388 21.9298 10.9153 21.5504C10.8683 21.5139 10.8436 21.4823 10.8109 21.4697C10.1732 21.2228 9.53585 20.974 8.89602 20.7336C8.00714 20.4 7.13838 20.0177 6.24029 19.7072C6.05455 19.6431 5.80466 19.5722 5.82814 19.258C7.52084 19.0882 9.23018 19.0906 10.9337 19.0104C10.5966 18.8446 10.2209 18.7838 9.93707 18.5511C9.57901 18.26 9.26077 17.924 8.94547 17.5892C8.657 17.2827 8.46036 16.9045 8.1069 16.6467C7.64234 16.3098 7.09182 16.1813 6.56104 16.0018C6.02897 15.821 5.47597 15.6734 5.14173 15.1878C4.8868 14.8193 4.63942 14.4423 4.44069 14.0442C4.30317 13.7657 4.11323 13.4893 4.10149 13.1435C4.19163 13.1698 4.25662 13.182 4.31323 13.2088C4.35515 13.2286 4.38367 13.272 4.42391 13.2971C5.07926 13.7045 5.7493 14.0835 6.53254 14.2149C7.13463 14.3158 7.74426 14.2736 8.35093 14.2842C9.34254 14.3012 10.2084 14.69 10.9006 15.326C11.5027 15.8785 12.164 16.2174 12.9538 16.3658C12.997 16.2985 12.948 16.2669 12.9304 16.2259C12.2847 14.7504 11.641 13.2748 10.9954 11.7994C10.8818 11.5395 10.8872 11.4751 11.0658 11.2809C12.3526 12.2903 13.5195 13.4281 14.7338 14.5137C14.7962 14.4508 14.8017 14.3985 14.7769 14.3596C14.3887 13.754 14.4411 13.0941 14.4654 12.42C14.483 11.9591 14.6218 11.5124 14.5677 11.0462C14.4902 10.3802 14.1254 9.8269 13.8436 9.24235C13.6403 8.82117 13.4151 8.41176 13.5442 7.92246C13.6302 7.5937 13.7065 7.26131 13.8017 6.93378C13.9166 6.53125 14.0273 6.12386 14.309 5.73021C14.3618 5.91344 14.4042 6.04396 14.4369 6.17774C14.5799 6.78375 14.7249 7.39624 15.0566 7.93337C15.3903 8.47331 15.8667 8.90625 16.335 9.3424C17.1392 10.0907 17.4926 11.0393 17.5115 12.0928C17.5241 12.8517 17.7899 13.4974 18.2381 14.1423C18.8025 12.6315 19.4624 11.2084 20.0662 9.76237C20.1613 9.53578 20.1869 9.24675 20.5747 9.15028C20.7647 10.8111 20.7534 12.4604 20.8108 14.1172C20.9228 14.0653 20.9341 13.9834 20.9622 13.9031C21.0523 13.6522 21.1299 13.4009 21.3047 13.1796C21.7274 12.6449 22.2519 12.2172 22.7991 11.8208C23.1169 11.5913 23.3508 11.3185 23.5211 10.9841C23.7454 10.5431 23.8846 10.0712 24.0494 9.60785C24.1949 9.19641 24.3617 8.78455 24.7664 8.54376C25.376 8.18095 25.9747 7.79627 26.6494 7.5494C26.7454 7.51454 26.8242 7.50359 26.9324 7.56156C26.5613 8.05043 26.2536 8.55511 26.02 9.09222C25.7651 9.67918 25.69 10.3116 25.7332 10.9467C25.8192 12.1555 25.4854 13.2411 24.6213 14.1114C24.0645 14.6712 23.7442 15.3052 23.566 16.0385C23.6716 16.124 23.748 16.0369 23.8297 16.0032C25.3043 15.3976 26.7773 14.7888 28.2544 14.1908C28.4293 14.1199 28.636 13.9995 28.8494 14.2228C27.779 15.5066 26.5672 16.6591 25.4318 17.8841C25.6893 17.805 25.9224 17.6794 26.1735 17.6104C26.8167 17.4321 27.4792 17.4888 28.1245 17.5727C28.7639 17.6554 29.3782 17.6883 29.9769 17.3672C29.9895 17.1102 29.8687 16.8804 29.8117 16.6396C29.5484 15.5463 29.2943 14.4506 28.958 13.3748C28.4826 11.8563 27.9706 10.3471 27.5908 8.8015C27.2055 7.23235 26.769 5.67741 26.3371 4.11998C26.1929 3.5999 26.0402 3.08101 25.9283 2.55363C25.8604 2.22934 25.8285 2.19731 25.4822 2.27514C24.3258 2.53417 23.1786 2.83658 22.0235 3.10168C20.4704 3.45799 18.9044 3.76525 17.3757 4.22616C16.4902 4.49289 15.5606 4.61774 14.6672 4.85894C13.4567 5.18566 12.2193 5.39807 11.0043 5.69561C10.1213 5.91126 9.20931 5.97693 8.34267 6.27083C7.2253 6.64903 6.05801 6.86144 4.90876 7.13223C4.29492 7.27694 3.7067 7.5076 3.07352 7.60407C2.73642 7.65596 2.35863 7.73947 2.12132 8.02849C3.46432 13.0583 5.0119 18.0187 6.2219 23.086C6.33386 23.0434 6.38416 23.0353 6.42023 23.0081C7.198 22.4305 8.09103 22.2335 9.04955 22.2201L9.04947 22.2204Z" fill="#253858"/>
<path fill-rule="evenodd" clip-rule="evenodd" d="M13.4245 37.6702C13.7893 37.7395 14.1465 37.8672 14.5256 37.8672C15.5402 37.8684 16.4543 38.2182 17.3574 38.6179C17.7776 38.8044 18.1964 39.029 18.6828 38.9824C19.1461 38.9382 19.6141 38.898 20.0694 38.8072C20.8111 38.6589 21.4832 38.8109 22.1415 39.1356C22.5558 39.3403 22.8082 39.7027 23.1281 40.0148C23.2711 39.9755 23.4111 39.9427 23.5457 39.8973C24.5507 39.5645 25.6593 39.5195 26.5264 38.8012C27.1336 38.2986 27.6816 37.7777 28.0233 37.0626C28.3583 36.3613 28.4518 35.5814 28.8144 34.8951C29.3285 33.9251 30.0497 33.1971 31.2249 32.9944C31.4421 32.9579 31.6781 32.9693 31.8823 32.8509C32.419 32.54 32.7519 32.0677 33.0203 31.5391C33.2321 31.1208 33.4019 30.6761 33.3641 30.2147C33.3285 29.7753 33.1952 29.3408 33.0786 28.9107C32.6128 27.198 32.2371 25.4647 31.692 23.7711C31.3054 22.5741 31.0228 21.3478 30.7646 20.118C30.7281 19.9421 30.661 19.7722 30.6048 19.5923C30.5344 19.6283 30.4769 19.647 30.4333 19.6818C29.8945 20.0998 29.2685 20.3077 28.5981 20.422C28.1423 20.5007 27.6765 20.4565 27.222 20.5538C26.7419 20.6567 26.339 20.8931 25.8942 21.1659C27.6074 21.84 29.2631 22.4902 30.9134 23.1388C30.9533 23.2353 30.9872 23.32 31.0329 23.4347C29.3072 23.6236 27.5894 23.6107 25.8733 23.6962C26.5743 23.8875 27.1177 24.2649 27.5801 24.7927C27.8757 25.1295 28.1529 25.4814 28.456 25.8097C28.9193 26.3099 29.5709 26.4851 30.2053 26.6837C30.7474 26.8535 31.3323 26.9776 31.6695 27.4851C31.9525 27.9103 32.2175 28.3493 32.4539 28.8001C32.576 29.0332 32.742 29.2703 32.7076 29.5877C32.63 29.5391 32.5722 29.5058 32.5202 29.4681C32.0154 29.1066 31.4498 28.8435 30.8791 28.6149C30.3886 28.4174 29.8355 28.4223 29.2988 28.4142C28.8846 28.4085 28.4661 28.4568 28.0543 28.383C27.1701 28.2253 26.4162 27.8297 25.7697 27.2232C25.2343 26.7193 24.5747 26.4482 23.8246 26.3322C23.8632 26.4101 23.8984 26.4741 23.9282 26.5398C24.5504 27.9509 25.1727 29.3607 25.7868 30.7747C25.8745 30.9757 26.0309 31.193 25.7797 31.435C24.4875 30.4139 23.3076 29.2663 22.0381 28.2027C22.3093 28.6822 22.4314 29.1828 22.3953 29.7013C22.3597 30.2076 22.3634 30.7147 22.2708 31.2222C22.1311 31.9729 22.5643 32.5972 22.8754 33.2364C23.1114 33.72 23.4225 34.1809 23.2896 34.7513C23.1764 35.2377 23.0791 35.7323 22.9114 36.2005C22.8188 36.4554 22.7563 36.7518 22.5194 36.954C22.501 36.9269 22.485 36.9139 22.4829 36.8993C22.3957 36.2751 22.1949 35.6783 21.9509 35.1031C21.6859 34.4744 21.1886 33.9932 20.6809 33.5368C20.1609 33.0702 19.7593 32.5355 19.5479 31.874C19.3928 31.3839 19.3106 30.8873 19.3106 30.3729C19.3106 29.7122 18.9915 29.1544 18.6297 28.5994C18.5911 28.6477 18.545 28.685 18.5261 28.7332C18.2586 29.383 17.9978 30.0357 17.7291 30.6847C17.3685 31.5509 17.0083 32.4172 16.6377 33.279C16.5811 33.4075 16.4909 33.5502 16.2469 33.5056C16.0767 31.8878 16.0733 30.2558 15.9748 28.6189C15.7568 29.5273 15.0473 30.0409 14.4017 30.6076C14.1702 30.8115 13.8876 30.9445 13.6776 31.1763C13.1962 31.7054 13.0482 32.3754 12.8142 33.0082C12.6381 33.4828 12.4524 33.9433 11.9815 34.2222C11.5837 34.4581 11.1958 34.7204 10.7732 34.9044C10.5149 35.0171 10.252 35.2016 9.87505 35.1647C10.104 34.8943 10.2436 34.6316 10.3987 34.3779C10.8717 33.6085 11.1404 32.7921 11.1019 31.8841C11.0834 31.4325 11.0713 30.9716 11.1685 30.5274C11.3421 29.7316 11.7341 29.0425 12.3334 28.4657C12.8583 27.959 13.1304 27.3359 13.257 26.6306C13.0503 26.5998 12.9308 26.7323 12.7862 26.7903C11.4042 27.3468 10.026 27.9152 8.64407 28.4753C8.44448 28.556 8.24239 28.7084 7.97279 28.4964C9.04196 27.1988 10.2642 26.0424 11.4067 24.8116C11.1589 24.8903 10.9338 25.0143 10.6918 25.0836C9.97234 25.29 9.2373 25.1907 8.51278 25.112C8.04444 25.0614 7.59371 25.0387 7.14424 25.1988C6.98031 25.2575 6.90273 25.3406 6.95179 25.5113C7.21133 26.408 7.426 27.3152 7.66751 28.2158C7.88092 29.0144 8.2218 29.7786 8.3979 30.588C8.67128 31.8439 9.16309 33.042 9.42053 34.3068C9.59662 35.1731 9.91947 36.0134 10.1191 36.8816C10.2117 37.285 10.3283 37.6834 10.436 38.0948C10.7245 38.0134 10.9694 37.9364 11.218 37.8759C11.9417 37.7045 12.657 37.5237 13.4247 37.67L13.4245 37.6702ZM29.6828 30.4726C29.9142 30.3222 29.9796 30.533 30.1029 30.6546C30.0866 30.7535 30.0723 30.8358 30.0572 30.9169C29.8799 31.0551 29.6924 31.0377 29.5817 30.8662C29.5054 30.7478 29.5243 30.576 29.6828 30.4726ZM25.6958 36.9945C25.7536 36.9049 25.832 36.8997 25.9201 36.9098C26.1406 36.9329 26.1222 37.1242 26.1935 37.2511C26.0786 37.393 25.9893 37.5543 25.7461 37.4526C25.6161 37.3103 25.5889 37.1624 25.6958 36.9945ZM18.5604 36.7456C18.6564 36.7546 18.718 36.8304 18.7985 36.8806V37.1968C18.6354 37.2086 18.4769 37.4652 18.3356 37.1915C18.2266 36.9787 18.3092 36.8174 18.5604 36.7456Z" fill="#253858"/>
<path fill-rule="evenodd" clip-rule="evenodd" d="M22.7982 40.085C22.6959 39.8653 22.4812 39.7899 22.3425 39.6411C21.9324 39.1993 21.3928 39.0457 20.8104 39.0108C20.3668 38.9844 19.9333 39.0984 19.4951 39.1486C19.0209 39.2025 18.558 39.2666 18.0738 39.1405C17.5514 39.0051 17.1019 38.6966 16.5627 38.6099C16.0835 38.5333 15.6202 38.4903 15.1761 38.7546C14.9422 38.8936 14.7065 39.027 14.4763 39.1754C13.1993 39.9995 12.3586 41.1579 11.7246 42.4803C11.6202 42.6988 11.8067 43.0195 12.013 42.9818C12.4885 42.8942 12.9711 42.8545 13.4394 42.7138C14.0407 42.5338 14.6441 42.364 15.244 42.1787C15.8461 41.9923 16.4636 41.8463 17.0742 41.6866C18.3107 41.3623 19.55 41.0555 20.7806 40.7125C21.4494 40.5241 22.1479 40.4235 22.7982 40.085Z" fill="#253858"/>
<path fill-rule="evenodd" clip-rule="evenodd" d="M32.0818 34.8683C31.348 34.7508 30.7011 34.8549 30.1811 35.4419C29.8902 35.7703 29.6587 36.1375 29.377 36.4675C29.068 36.8291 28.7157 37.1562 28.3904 37.5044C28.1049 37.81 27.8055 38.0999 27.4726 38.3569C27.1648 38.5928 26.8843 38.8567 26.5782 39.1113C29.4357 38.3617 32.2922 37.6127 35.1647 36.8586C34.9522 36.0856 34.7513 35.3563 34.54 34.5939C34.2432 34.7751 33.9719 34.9166 33.649 34.9567C33.1186 35.024 32.6009 34.9518 32.0818 34.8683Z" fill="#253858"/>
<path fill-rule="evenodd" clip-rule="evenodd" d="M28.8112 41.6011C28.6326 41.927 28.5169 42.2829 28.0821 42.4066C27.5487 42.5578 27.0116 42.6745 26.4699 42.7795C26.4087 42.7917 26.3282 42.7917 26.3147 42.6867C27.1508 42.1261 27.3139 41.293 27.3185 40.3668C27.2326 40.3725 27.199 40.3656 27.1755 40.3778C26.3303 40.8144 25.9475 41.5501 25.8112 42.4205C25.7714 42.6835 25.6833 42.7877 25.4158 42.7703C24.9823 42.7435 24.5508 42.7196 24.1172 42.7099C23.6837 42.6994 23.2523 42.7071 22.799 42.7071C23.6934 42.0127 24.0787 41.3463 23.8523 40.9028C22.8892 41.1974 22.433 41.8999 22.2141 42.8249C21.3667 42.8975 20.5906 43.2202 19.8217 43.5968C19.7689 43.3045 19.9483 43.1103 19.9731 42.8813C19.9965 42.6551 19.9894 42.4322 19.8967 42.2189C19.1923 42.3989 18.5702 43.5185 18.7873 44.3029C18.55 44.6657 18.1898 44.945 18.0557 45.3706C18.1961 45.4363 18.2636 45.371 18.3412 45.2875C18.7513 44.8416 19.2032 44.4436 19.7161 44.1079C19.8419 44.0248 19.9588 44.0447 20.0167 44.1144C20.2938 44.4428 20.6683 44.6292 21.0616 44.7448C21.5274 44.8814 22.0066 45.0399 22.5491 44.9296C22.1252 44.1627 21.4863 43.7285 20.5416 43.5976C21.3433 43.2449 22.085 43.0292 22.8817 43.0426C23.3043 44.0131 24.7894 44.2956 25.2452 43.9782C25.1194 43.5238 24.7312 43.2895 24.3706 43.013C25.2909 43.0896 26.1962 43.1071 27.0918 42.9826C27.3798 43.7398 28.6511 43.9101 29.0616 43.3406C28.7203 43.0742 28.2855 42.9863 27.8746 42.7913C28.1937 42.6818 28.4637 42.542 28.7467 42.4346C29.5215 42.1386 30.1718 41.6729 30.7307 41.0912C30.903 40.912 31.0842 40.6915 31.0561 40.4013C29.9572 40.3024 29.2854 40.7361 28.8112 41.6011ZM18.9954 44.1772C18.9166 43.5744 19.3124 42.7552 19.7606 42.6149C19.6671 43.2144 19.5132 43.7507 18.9954 44.1772ZM22.0285 44.7102C21.4495 44.7074 20.5384 44.3227 20.265 43.966C20.6268 43.6847 21.745 44.2437 22.0285 44.7102ZM23.6012 41.263C23.641 41.7162 23.0482 42.3891 22.5681 42.4434C22.7698 41.9096 23.1257 41.5557 23.6012 41.263ZM24.8334 43.8857C24.2263 43.8212 23.7026 43.6749 23.3294 43.173C23.877 43.0644 24.5843 43.4008 24.8334 43.8857ZM26.9995 40.826C27.0351 41.4369 26.4607 42.4637 25.9919 42.5706C26.2095 41.9087 26.3328 41.2337 26.9995 40.826ZM28.5772 43.3308C28.1755 43.5541 27.4326 43.3255 27.4317 42.9785C27.8347 43.0284 28.2359 43.0685 28.5772 43.3308ZM29.02 41.9789C28.9575 41.3903 30.0917 40.5318 30.5189 40.8192C30.1638 41.3798 29.6011 41.683 29.02 41.9789Z" fill="#253858"/>
<path fill-rule="evenodd" clip-rule="evenodd" d="M18.1677 15.2801C14.8654 15.4191 12.029 18.005 12.0559 21.4108C11.9879 24.6274 14.824 27.5602 18.7074 27.351C21.842 27.1824 24.6864 24.7384 24.6541 21.1433C24.6247 17.938 21.8163 15.1268 18.1677 15.2801ZM21.1589 26.4534C19.6502 27.1956 18.0817 27.3071 16.4721 26.8526C15.6516 26.622 14.8587 26.2872 14.2344 25.712C13.0297 24.6033 12.2281 23.2972 12.3267 21.6393C12.26 20.3863 12.5929 19.2549 13.2357 18.2107C13.7678 17.3453 14.5363 16.7258 15.4675 16.2714C16.5057 15.7651 17.5841 15.4497 18.7547 15.5089C20.1622 15.5803 21.3882 16.0687 22.4411 16.9921C23.1631 17.6261 23.7333 18.3537 24.0658 19.2371C24.5811 20.6052 24.7011 22.0021 24.0855 23.3608C23.4809 24.699 22.5358 25.7756 21.1589 26.4534Z" fill="#253858"/>
<path fill-rule="evenodd" clip-rule="evenodd" d="M32.0249 33.155C31.0915 33.1493 30.313 33.5093 29.671 34.168C28.8471 35.0128 28.7532 36.1555 28.3209 37.1613C28.806 36.6631 29.3188 36.1949 29.7029 35.6148C30.0634 35.0725 30.5553 34.7145 31.2475 34.631C31.6773 34.5787 32.0861 34.6967 32.5037 34.7234C33.0404 34.7579 33.5876 34.8418 34.0664 34.5179C34.2274 34.4105 34.489 34.3302 34.4211 34.0728C34.2782 33.526 34.1054 32.986 33.936 32.4153C33.8484 32.4688 33.775 32.4906 33.7377 32.5397C33.2983 33.0942 32.6869 33.1599 32.0249 33.155Z" fill="#253858"/>
<path fill-rule="evenodd" clip-rule="evenodd" d="M13.9268 39.2486C14.3751 38.9336 14.8224 38.617 15.3591 38.4468C15.5201 38.3969 15.703 38.4415 15.864 38.3462C15.326 38.1213 14.7864 38.0167 14.2258 38.1209C13.0728 38.3349 12.1134 38.9012 11.2719 39.6726C11.0861 39.8424 10.9574 40.0179 11.0832 40.3009C11.1792 40.519 11.1952 40.7703 11.2509 41.0054C11.3344 41.3512 11.4233 41.6957 11.513 42.0493C11.6291 41.9889 11.6409 41.8883 11.6891 41.8109C12.2878 40.8368 12.9629 39.9243 13.9268 39.2486Z" fill="#253858"/>
<path fill-rule="evenodd" clip-rule="evenodd" d="M25.8809 8.6137C25.8222 8.62748 25.7933 8.62748 25.7727 8.64045C25.7409 8.66072 25.7103 8.68626 25.6881 8.71504C25.2113 9.28741 24.9946 9.9599 24.8616 10.6705C24.7275 11.3848 24.5979 12.0861 24.0424 12.6633C23.6386 13.0841 23.2109 13.5 22.9028 14.0026C22.6198 14.4627 22.3472 14.9285 22.3007 15.4745C22.5602 15.6598 22.8105 15.8393 23.0852 16.0347C23.1036 15.9974 23.138 15.9581 23.1464 15.9151C23.2956 15.0919 23.7615 14.4461 24.351 13.8607C25.047 13.1696 25.4475 12.3569 25.3661 11.3638C25.3217 10.8194 25.3837 10.281 25.4575 9.74189C25.5108 9.34423 25.7061 8.99602 25.881 8.61377L25.8809 8.6137Z" fill="#253858"/>
<path fill-rule="evenodd" clip-rule="evenodd" d="M20.7599 31.0713C20.7574 30.0623 20.6106 29.0874 20.0333 28.2069C19.6974 28.1802 19.3817 28.3005 19.0132 28.3208C19.1494 28.5807 19.2794 28.8044 19.3876 29.0363C19.6786 29.6577 19.7008 30.3294 19.7289 30.9914C19.7654 31.8584 20.1306 32.5541 20.77 33.1374C21.4534 33.7576 22.1104 34.3969 22.4018 35.2952C22.4169 35.3418 22.3745 35.4334 22.4781 35.4399C22.5335 35.3928 22.5238 35.3393 22.5188 35.2818C22.4534 34.4974 22.0739 33.8326 21.6077 33.2229C21.1121 32.5735 20.7611 31.8921 20.7599 31.0713Z" fill="#253858"/>
<path fill-rule="evenodd" clip-rule="evenodd" d="M28.8778 28.0743C29.6153 28.0256 30.3545 28.0787 31.0639 28.3289C31.2509 28.3945 31.3951 28.5713 31.6651 28.5502C31.5171 28.4294 31.409 28.3252 31.2869 28.2421C30.653 27.8132 29.9217 27.6442 29.1734 27.5388C28.3927 27.4289 27.7063 27.1338 27.1507 26.602C26.5591 26.0341 25.9076 25.557 25.1327 25.2578C24.9344 25.1816 24.6794 25.0166 24.4857 25.1865C24.2753 25.3717 24.1373 25.6356 23.9491 25.8898C24.8518 26.0775 25.565 26.5112 26.1906 27.1108C26.9294 27.819 27.8187 28.1452 28.8778 28.0743Z" fill="#253858"/>
<path fill-rule="evenodd" clip-rule="evenodd" d="M15.963 10.8448C16.111 11.3998 16.0502 11.9676 16.1228 12.5258C16.2075 13.1854 16.3861 13.81 16.7312 14.3876C16.7676 14.448 16.7911 14.4979 16.8779 14.4882C17.176 14.4549 17.4754 14.4253 17.8104 14.3203C17.2611 13.5457 17.1462 12.7159 17.1177 11.8614C17.0859 10.9437 16.7421 10.1711 16.0272 9.53588C15.3425 8.92622 14.6725 8.28822 14.4356 7.36308C14.4247 7.32457 14.3861 7.29295 14.3417 7.23013C14.2972 7.40971 14.3308 7.54915 14.3593 7.69427C14.5023 8.43649 14.9073 9.051 15.3501 9.65216C15.6163 10.0166 15.844 10.4005 15.9631 10.8447L15.963 10.8448Z" fill="#253858"/>
<path fill-rule="evenodd" clip-rule="evenodd" d="M10.0273 16.4029C10.6294 17.0045 11.3749 17.4252 12.247 17.5914C12.4034 17.3008 12.6487 17.0904 12.8432 16.8087C11.9875 16.6295 11.2852 16.2213 10.689 15.644C9.90327 14.8828 8.97452 14.5572 7.85714 14.6294C7.16575 14.674 6.4681 14.629 5.79553 14.3789C5.60978 14.3096 5.46052 14.1138 5.21314 14.1762C5.73557 14.7242 6.42025 14.963 7.13221 15.0631C8.2542 15.2216 9.22195 15.5994 10.0274 16.4029L10.0273 16.4029Z" fill="#253858"/>
<path fill-rule="evenodd" clip-rule="evenodd" d="M10.9697 34.0807C11.1337 34.0555 11.1857 33.9457 11.2502 33.8581C11.6754 33.2781 11.8758 32.6186 11.9852 31.9266C12.0603 31.4491 12.1685 30.9829 12.4104 30.5544C12.706 30.0295 13.1756 29.6407 13.5596 29.1851C13.9995 28.6622 14.3403 28.0939 14.5131 27.4157C14.2468 27.2386 13.9881 27.0659 13.7018 26.8745C13.6645 26.9455 13.6338 26.984 13.6229 27.027C13.4456 27.7424 13.0158 28.3039 12.5005 28.8272C11.8326 29.5054 11.392 30.2813 11.4649 31.2675C11.5144 31.9482 11.4771 32.6304 11.2947 33.2928C11.2234 33.5583 11.0846 33.8076 10.9697 34.0808L10.9697 34.0807Z" fill="#253858"/>
<path fill-rule="evenodd" clip-rule="evenodd" d="M22.0082 30.4123C22.108 29.4313 21.7051 28.5898 21.2556 27.7478C20.9411 27.8682 20.6426 27.9825 20.3084 28.111C20.3822 28.2428 20.4481 28.3547 20.5093 28.469C20.9269 29.244 21.0191 30.0908 21.0732 30.9429C21.1248 31.7836 21.3453 32.5433 21.8984 33.232C22.316 33.7529 22.6204 34.361 22.6732 35.0525C22.6917 35.2974 22.6376 35.5495 22.7386 35.8475C22.7973 35.5349 22.8619 35.2848 22.9344 35.0355C23.0145 34.7582 23.0095 34.4575 22.8946 34.194C22.6828 33.7197 22.4229 33.2665 22.2011 32.7975C21.9919 32.3569 21.8267 31.8899 21.903 31.4038C21.9541 31.0739 21.9747 30.7435 22.0082 30.4123Z" fill="#253858"/>
<path fill-rule="evenodd" clip-rule="evenodd" d="M24.8118 8.95304C24.4668 9.42123 24.3636 9.98469 24.1712 10.512C23.9632 11.0828 23.6848 11.6069 23.1733 11.9676C22.31 12.5761 21.5779 13.2712 21.307 14.3155C21.2542 14.5247 21.0655 14.6933 21.0991 14.9309C21.429 14.9949 21.6827 15.2069 21.9762 15.3091C22.0043 15.277 22.0244 15.2637 22.0278 15.2487C22.2873 14.2008 22.9665 13.4046 23.6772 12.6191C24.1351 12.114 24.4873 11.5432 24.5837 10.8537C24.6613 10.2906 24.8114 9.74619 25.091 9.24154C25.2848 8.89131 25.5443 8.59013 25.8248 8.29178C25.4671 8.49122 25.0621 8.61161 24.8118 8.95293L24.8118 8.95304Z" fill="#253858"/>
<path fill-rule="evenodd" clip-rule="evenodd" d="M15.0839 13.9528C15.2022 14.205 15.3242 14.4543 15.4303 14.7117C15.4701 14.8086 15.5162 14.8742 15.637 14.8896C15.8919 14.7137 16.2219 14.7117 16.502 14.5832C16.4034 14.3862 16.2965 14.1916 16.2051 13.9905C15.8403 13.1782 15.8085 12.3059 15.7322 11.4428C15.668 10.7443 15.4387 10.1173 14.9934 9.5534C14.699 9.17924 14.4735 8.76091 14.3062 8.30812C14.136 7.84722 14.1498 7.37699 14.0882 6.91206C14.0412 7.11758 14.0119 7.32796 13.9464 7.52821C13.8316 7.88331 13.8198 8.23355 13.9758 8.57321C14.1863 9.02883 14.4156 9.47555 14.6357 9.92797C14.8882 10.4489 14.9695 10.9787 14.8882 11.5641C14.777 12.3638 14.7209 13.1798 15.084 13.9529L15.0839 13.9528Z" fill="#253858"/>
<path fill-rule="evenodd" clip-rule="evenodd" d="M31.1447 27.4724C30.7162 27.2178 30.2219 27.1157 29.7552 26.956C29.0567 26.7188 28.4399 26.4103 28.0097 25.7768C27.7242 25.3576 27.3087 25.024 26.9062 24.6978C26.3989 24.2863 25.736 24.217 25.1733 23.9328C25.024 24.23 24.8877 24.5028 24.7506 24.7768C24.7904 24.8615 24.868 24.8984 24.954 24.9187C25.985 25.155 26.7242 25.8449 27.499 26.4704C27.9757 26.8551 28.4806 27.1749 29.0957 27.2815C29.8889 27.4194 30.6663 27.5766 31.3388 28.0521C31.5618 28.2098 31.7157 28.4356 31.9656 28.5645C31.7295 28.1729 31.571 27.725 31.1446 27.4725L31.1447 27.4724Z" fill="#253858"/>
<path fill-rule="evenodd" clip-rule="evenodd" d="M5.46658 15.0663C5.7672 15.3679 6.1781 15.4457 6.55926 15.5811C7.11482 15.7781 7.69091 15.92 8.18777 16.2569C8.60538 16.5386 8.84395 16.9654 9.16471 17.3226C9.81502 18.0486 10.6309 18.4726 11.5936 18.7122C11.7341 18.4402 11.8779 18.1642 12.0175 17.8934C11.9509 17.7779 11.8511 17.814 11.7957 17.7686C11.7194 17.7065 11.6293 17.7467 11.5479 17.7122C10.7039 17.3648 10.0133 16.7981 9.32574 16.2326C8.78696 15.7892 8.20332 15.4701 7.48298 15.3805C6.89472 15.308 6.32782 15.1381 5.80671 14.8418C5.5086 14.6728 5.23648 14.479 4.97526 14.2484C5.09098 14.5536 5.23397 14.8333 5.46666 15.0664L5.46658 15.0663Z" fill="#253858"/>
<path fill-rule="evenodd" clip-rule="evenodd" d="M12.1912 33.5047C12.3782 33.0528 12.5237 32.5838 12.6876 32.1217C12.8822 31.5764 13.1631 31.0714 13.6583 30.7422C14.6893 30.0571 15.384 29.1576 15.6721 27.9573C15.4139 27.8398 15.1325 27.7117 14.8319 27.5751C14.6617 27.7465 14.6445 27.9707 14.5598 28.1633C14.242 28.8901 13.7028 29.4608 13.1862 30.0514C12.6743 30.6347 12.2847 31.2659 12.2118 32.0644C12.1745 32.484 12.0244 32.8966 11.8361 33.289C11.6328 33.7122 11.3288 34.058 11.0026 34.4006C11.2143 34.3243 11.4214 34.2449 11.6013 34.1249C11.8424 33.9632 12.0809 33.7719 12.1912 33.5047Z" fill="#253858"/>
<path fill-rule="evenodd" clip-rule="evenodd" d="M26.8158 19.265C26.35 19.3919 25.8708 19.4981 25.5005 19.8467C25.6284 20.1292 25.5957 20.4336 25.6779 20.7308C25.9676 20.5998 26.2322 20.4709 26.5043 20.3599C27.1697 20.0875 27.8875 20.1325 28.5848 20.066C29.3374 19.9934 29.9806 19.7162 30.4951 19.1523C30.4129 18.9658 30.441 18.7413 30.2825 18.5288C29.6716 18.982 28.9584 19.0785 28.2242 19.1012C27.7504 19.1142 27.2749 19.1405 26.8158 19.265Z" fill="#253858"/>
<path fill-rule="evenodd" clip-rule="evenodd" d="M7.82261 23.6702C8.49179 23.5789 9.17731 23.647 9.83517 23.4829C10.2985 23.3677 10.7861 23.2903 11.1689 22.9571C11.0666 22.6559 11.1056 22.3503 10.987 22.0621C10.7509 22.165 10.5534 22.2587 10.3505 22.3369C9.72493 22.5793 9.05827 22.5862 8.39955 22.6276C7.59872 22.6774 6.89222 22.9174 6.35801 23.5429C6.45193 23.7277 6.42467 23.9446 6.56219 24.1181C6.66073 24.0828 6.76178 24.0674 6.83557 24.0163C7.13284 23.8141 7.46413 23.7196 7.82261 23.6702Z" fill="#253858"/>
<path fill-rule="evenodd" clip-rule="evenodd" d="M28.5042 17.9419C27.295 17.742 26.1655 17.9496 25.1047 18.588C25.2032 18.86 25.3101 19.1547 25.4309 19.4831C25.4812 19.4652 25.5181 19.4567 25.5491 19.4405C26.1575 19.1308 26.7969 18.9435 27.4841 18.8641C28.1935 18.7822 28.9201 18.8183 29.6064 18.5783C29.8366 18.4976 30.0643 18.4149 30.2521 18.2617C30.2089 18.0902 30.1687 17.9402 30.1289 17.7862C30.0475 17.7992 29.9871 17.7984 29.9352 17.8186C29.4702 18.0007 28.9909 18.0221 28.5041 17.9419L28.5042 17.9419Z" fill="#253858"/>
<path fill-rule="evenodd" clip-rule="evenodd" d="M8.12208 24.7359C8.67135 24.8563 9.21133 24.787 9.75521 24.8028C10.4374 24.8227 10.9724 24.4412 11.5736 24.2012C11.4159 23.9021 11.4126 23.5766 11.1858 23.3115C10.2642 23.8044 9.25327 23.8652 8.23819 23.9369C7.68767 23.9758 7.13842 24.0723 6.66378 24.3873C6.65916 24.5733 6.71535 24.7262 6.81765 24.898C7.25749 24.7537 7.70074 24.6435 8.12208 24.7359Z" fill="#253858"/>
<path fill-rule="evenodd" clip-rule="evenodd" d="M14.0632 37.9224C12.76 37.5085 11.2808 37.984 10.5131 38.2989C10.6188 38.7708 10.763 39.2333 10.9513 39.7494C11.7718 38.7494 12.7982 38.1932 14.0632 37.9225V37.9224Z" fill="#253858"/>
<path fill-rule="evenodd" clip-rule="evenodd" d="M25.2122 30.0948C24.6688 28.8239 24.125 27.5536 23.5711 26.2588C23.3162 26.4728 23.0663 26.6808 22.8013 26.9021C23.5925 27.984 24.3745 29.0546 25.1577 30.1252C25.1761 30.1155 25.195 30.1049 25.2122 30.0948Z" fill="#253858"/>
<path fill-rule="evenodd" clip-rule="evenodd" d="M23.5184 16.3573C23.6614 16.6244 23.9222 16.759 24.0581 16.9989C24.1205 17.11 24.2233 17.0743 24.3268 17.0014C24.7801 16.6799 25.2404 16.3678 25.6991 16.0549C26.3297 15.626 26.9603 15.1983 27.5901 14.7707C27.5779 14.7597 27.5666 14.7488 27.5544 14.7382C26.2102 15.2774 24.866 15.817 23.5184 16.3573L23.5184 16.3573Z" fill="#253858"/>
<path fill-rule="evenodd" clip-rule="evenodd" d="M18.4597 28.3804C18.1616 28.3618 17.8693 28.3391 17.5779 28.3293C17.4396 28.3241 17.4287 28.4258 17.409 28.5385C17.2609 29.4019 17.0987 30.2633 16.9498 31.1264C16.8899 31.4758 16.7809 31.8208 16.8303 32.188C17.3687 30.9281 17.9091 29.6674 18.4597 28.3804Z" fill="#253858"/>
<path fill-rule="evenodd" clip-rule="evenodd" d="M18.3513 14.3192C18.6997 14.3406 19.0213 14.4087 19.3739 14.3702C19.6099 13.0731 19.8435 11.7836 20.0783 10.4941C20.0535 10.4872 20.0301 10.4807 20.0057 10.4742C19.4842 11.7535 18.9487 13.0269 18.3513 14.3192Z" fill="#253858"/>
<path fill-rule="evenodd" clip-rule="evenodd" d="M29.7375 22.9064C28.3925 22.4236 27.0746 21.8743 25.7074 21.3141C25.6826 21.6651 25.6617 21.9586 25.6394 22.278C26.9967 22.5099 28.3552 22.743 29.7153 22.9753C29.722 22.9526 29.7304 22.9295 29.7375 22.9064Z" fill="#253858"/>
<path fill-rule="evenodd" clip-rule="evenodd" d="M20.4089 10.6321C20.3905 10.6317 20.3716 10.6309 20.3523 10.6305C20.1267 11.9126 19.9016 13.1948 19.676 14.4786C20.0378 14.4916 20.3167 14.6784 20.6491 14.7323C20.5686 13.3594 20.4886 11.9962 20.4089 10.6321Z" fill="#253858"/>
<path fill-rule="evenodd" clip-rule="evenodd" d="M11.5461 12.4564C12.105 13.7528 12.6635 15.0499 13.2333 16.3698C13.4996 16.1298 13.7285 15.9259 13.9625 15.7168C13.1629 14.6191 12.3709 13.5278 11.5755 12.4362C11.5659 12.4431 11.5558 12.4503 11.5461 12.4564Z" fill="#253858"/>
<path fill-rule="evenodd" clip-rule="evenodd" d="M24.8054 30.156C24.0599 29.1332 23.3148 28.1105 22.5639 27.0813C22.2461 27.1968 22.0297 27.4335 21.6461 27.5329C22.7098 28.451 23.724 29.3278 24.7387 30.205C24.7601 30.1888 24.7823 30.1726 24.8054 30.156Z" fill="#253858"/>
<path fill-rule="evenodd" clip-rule="evenodd" d="M24.887 18.1484C25.8392 17.1151 26.7678 16.107 27.6966 15.098C27.687 15.087 27.679 15.0761 27.6706 15.0647C26.5671 15.8195 25.4648 16.5756 24.3562 17.3348C24.5419 17.6189 24.7109 17.8788 24.887 18.1484Z" fill="#253858"/>
<path fill-rule="evenodd" clip-rule="evenodd" d="M25.3335 23.5197C26.7549 23.4342 28.1489 23.3332 29.5436 23.2258C28.2228 23.0118 26.9 22.7981 25.5788 22.5849C25.4958 22.9003 25.4195 23.1946 25.3335 23.5197Z" fill="#253858"/>
<path fill-rule="evenodd" clip-rule="evenodd" d="M16.1916 28.094C16.2705 29.4714 16.348 30.8282 16.4244 32.1854C16.4382 32.1866 16.4516 32.1882 16.4642 32.189C16.6872 30.902 16.9116 29.6142 17.138 28.3012C16.8067 28.229 16.5132 28.1645 16.1916 28.094Z" fill="#253858"/>
<path fill-rule="evenodd" clip-rule="evenodd" d="M12.0066 12.5291C12.7454 13.5372 13.4833 14.5465 14.2221 15.5555C14.5144 15.3897 14.7752 15.2418 15.0758 15.0715C14.0427 14.1829 13.052 13.3305 12.0594 12.4772C12.0414 12.4946 12.0242 12.5116 12.0066 12.5291Z" fill="#253858"/>
<path fill-rule="evenodd" clip-rule="evenodd" d="M10.9654 21.3311C11.0099 20.9991 11.0468 20.7198 11.0874 20.4081C9.73607 20.1778 8.39984 19.95 7.06446 19.7222C8.35798 20.2601 9.65517 20.779 10.9654 21.3311Z" fill="#253858"/>
<path fill-rule="evenodd" clip-rule="evenodd" d="M13.2088 26.3828C12.88 26.2089 12.7555 25.9296 12.4868 25.7265C11.4163 26.4566 10.3383 27.1915 9.25957 27.926C9.26544 27.9389 9.27215 27.9527 9.27928 27.9649C10.5695 27.4456 11.8608 26.9255 13.2088 26.3828Z" fill="#253858"/>
<path fill-rule="evenodd" clip-rule="evenodd" d="M11.3851 19.2484C10.0019 19.2488 8.63462 19.3988 7.26103 19.4705C8.54907 19.6809 9.83797 19.8917 11.1273 20.1017C11.2409 19.8155 11.2417 19.5366 11.3851 19.2484Z" fill="#253858"/>
<path fill-rule="evenodd" clip-rule="evenodd" d="M9.21584 27.6032C10.2502 26.8925 11.2842 26.1827 12.3491 25.4511C12.0581 25.2209 12.03 24.912 11.7864 24.7271C10.9072 25.6801 10.0422 26.6197 9.17514 27.5594C9.18856 27.5744 9.20326 27.5886 9.21584 27.6032Z" fill="#253858"/>
<path fill-rule="evenodd" clip-rule="evenodd" d="M32.6013 32.8821C33.0101 32.782 33.348 32.5684 33.6449 32.2882C33.7153 32.2222 33.8444 32.1905 33.8197 32.056C33.7669 31.7475 33.6952 31.4439 33.5522 31.1127C33.2822 31.7986 32.9673 32.2529 32.3757 32.8318C32.4537 32.9177 32.5195 32.902 32.6013 32.8821Z" fill="#253858"/>
<path fill-rule="evenodd" clip-rule="evenodd" d="M32.9469 40.2075C32.7532 40.3672 32.5897 40.5423 32.7448 40.7851C32.8643 40.9752 33.0513 41.0895 33.305 40.9967C33.5184 40.9181 33.6031 40.7604 33.5632 40.5569C33.4982 40.2192 33.2127 40.22 32.9469 40.2075ZM33.1167 40.8195C32.9825 40.8305 32.9075 40.7555 32.9075 40.6489C32.9075 40.4957 33.0156 40.4227 33.1796 40.4308C33.3029 40.4284 33.3804 40.4908 33.3683 40.6116C33.3569 40.7486 33.2546 40.8078 33.1167 40.8195Z" fill="#253858"/>
<path fill-rule="evenodd" clip-rule="evenodd" d="M15.7269 44.844C15.5143 44.8453 15.303 45.056 15.339 45.2701C15.3747 45.4833 15.5348 45.6021 15.7592 45.6118C15.9684 45.6211 16.1642 45.4278 16.1642 45.2259C16.1638 45.0167 15.9654 44.8428 15.7269 44.844ZM15.7747 45.401C15.6615 45.3674 15.5504 45.3341 15.5776 45.1809C15.5927 45.0978 15.6355 45.0548 15.7277 45.0398C15.8153 45.026 15.8979 45.0398 15.9235 45.1096C15.9709 45.2393 15.9147 45.3426 15.7747 45.401Z" fill="#253858"/>
<path fill-rule="evenodd" clip-rule="evenodd" d="M27.9128 9.49681C27.8696 9.57707 27.9434 9.61517 27.9795 9.68976C28.0029 9.58437 27.9455 9.54748 27.9128 9.49681Z" fill="#253858"/>
<path fill-rule="evenodd" clip-rule="evenodd" d="M49.8771 11.9708C49.7936 12.4175 49.7492 12.8593 50.0616 13.2817C50.4691 13.8338 50.7563 14.452 50.7542 15.1513C50.7542 15.8056 50.5463 16.3808 50.0113 16.8263C49.4939 17.2556 48.8666 17.5166 48.3186 17.8944C48.0381 18.0878 47.7295 18.2564 47.5488 18.5657C47.2657 19.051 47.327 19.539 47.4947 20.0384C47.5836 20.3035 47.7072 20.5702 47.6766 20.8556C47.5487 22.0806 46.9362 22.7924 45.6997 22.9983C44.4448 23.2075 43.7815 24.5691 44.0762 25.4746C44.3157 26.2063 44.8167 26.7171 45.3748 27.1971C45.9207 27.6677 46.5513 28.0483 46.969 28.6535C47.0537 28.7755 47.0604 28.9685 47.2729 29.0074C47.4314 28.3596 47.7262 27.7488 47.8423 27.0921C47.7534 26.9498 47.6277 26.848 47.4939 26.7597C47.0595 26.4751 46.8482 26.0718 46.9199 25.5801C46.9949 25.0604 47.2817 24.6121 47.792 24.4235C48.0805 24.3173 48.3794 24.1678 48.7065 24.1759C48.7438 24.0648 48.7815 23.9691 48.8109 23.8714C49.3907 21.9484 49.9626 20.0233 50.4108 18.067C50.7031 16.7981 51.0293 15.5392 51.449 14.3031C51.5462 14.0133 51.711 13.7024 51.545 13.3915C51.2138 12.7708 51.4909 12.267 51.9265 11.8714C52.1693 11.6505 52.2666 11.4145 52.3408 11.145C52.4049 10.9042 52.5169 10.6662 52.4922 10.3351C52.1752 10.5839 51.8502 10.5758 51.5437 10.6261C50.714 10.7603 50.0427 11.0846 49.8771 11.9708Z" fill="#253858"/>
<path fill-rule="evenodd" clip-rule="evenodd" d="M45.4548 27.5907C44.9643 27.1971 44.5404 26.7394 44.1764 26.2234C43.7282 25.5866 43.5928 24.9437 43.9203 24.2149C44.0494 23.9291 44.2821 23.711 44.4041 23.4066C44.0133 23.5241 43.7094 23.7609 43.3907 23.9745C42.5605 24.5323 42.3597 25.6434 42.9706 26.4059C43.5001 27.067 44.1161 27.6621 44.5718 28.3804C44.8712 28.8518 45.0829 29.3079 44.8112 29.8787C44.6796 30.1543 44.5228 30.4178 44.4121 30.7032C44.2163 31.2139 44.0943 31.7563 44.3735 32.2366C44.7353 32.8572 45.3123 33.3007 45.9857 33.6416C46.3555 32.4178 46.7098 31.2053 47.028 29.9824C47.1748 29.4193 46.9937 29.0679 46.6733 28.6824C46.3211 28.2596 45.8834 27.9337 45.4548 27.5907Z" fill="#253858"/>
<path fill-rule="evenodd" clip-rule="evenodd" d="M28.998 4.00472C28.9439 4.16808 28.9623 4.2755 29.1271 4.37724C29.3665 4.52641 29.5804 4.71491 29.8131 4.87746C30.5103 5.36147 31.2617 5.74615 32.0508 6.0721C32.9464 6.44057 33.8848 6.70568 34.751 7.14023C34.8004 7.16456 34.8533 7.20063 34.9187 7.13618C33.0957 5.74209 30.8885 4.87828 29.221 3.21428C29.1393 3.51141 29.0768 3.76068 28.998 4.00472Z" fill="#253858"/>
<path fill-rule="evenodd" clip-rule="evenodd" d="M47.271 25.6066C47.1653 26.1668 47.5037 26.502 47.941 26.8461C48.2131 26.05 48.4177 25.2757 48.6269 24.4755C47.6877 24.72 47.3896 24.9766 47.2709 25.6065L47.271 25.6066Z" fill="#253858"/>
<path fill-rule="evenodd" clip-rule="evenodd" d="M44.1056 32.2252C44.1182 33.3578 44.9496 33.9995 45.6527 34.7579C45.7773 34.4875 45.836 34.2552 45.8867 33.978C45.1773 33.4988 44.4839 33.0121 44.1056 32.2252Z" fill="#253858"/>
<path fill-rule="evenodd" clip-rule="evenodd" d="M39.1069 45.229C39.0436 45.5614 39.1388 45.8188 39.3665 45.8853C39.5732 45.9457 39.7631 45.8772 39.8763 45.7098C39.9912 45.5367 39.9292 45.3429 39.8013 45.2003C39.6 44.9769 39.4508 44.9927 39.1069 45.229ZM39.3744 45.636C39.2105 45.5667 39.2499 45.4354 39.3359 45.3008C39.5233 45.2339 39.6717 45.2777 39.7598 45.4767C39.6914 45.6701 39.5388 45.7049 39.3744 45.636Z" fill="#253858"/>
<path fill-rule="evenodd" clip-rule="evenodd" d="M51.6964 13.4225C51.8348 12.9142 51.9514 12.4845 52.083 12.0063C51.6247 12.3622 51.5006 12.8146 51.6964 13.4225Z" fill="#253858"/>
</svg>
