<svg width="31" height="50" viewBox="0 0 31 50" fill="none" xmlns="http://www.w3.org/2000/svg">
<path fill-rule="evenodd" clip-rule="evenodd" d="M30.8055 1.95359C30.6863 1.49383 30.4463 1.10527 30.0246 0.84265C29.5106 0.52491 28.9314 0.415805 28.3456 0.403555C27.2668 0.380969 26.1834 0.458298 25.1082 0.351875C24.1917 0.260382 23.2697 0.128697 22.3575 0.181902C21.6336 0.224777 20.9137 0.251192 20.1918 0.224777C19.4112 0.196831 18.6409 0.154339 17.8517 0.220567C16.4392 0.337325 15.0114 0.296747 13.5962 0.194918C12.6242 0.124096 11.6463 0.0586372 10.6798 0.0482981C8.80103 0.0280088 6.91787 -0.0810932 5.04031 0.116439C4.03774 0.221712 3.02277 0.0532746 2.0195 0.219037C1.28198 0.339627 0.712167 0.6631 0.371675 1.35066C0.0500136 2.00375 0.0742376 2.71425 0.0332044 3.3934C-0.0316762 4.50698 0.0046727 5.629 0.0890953 6.74876C0.161402 7.68245 0.122317 8.62343 0.125444 9.5613C0.134433 11.8334 0.138342 14.1053 0.147331 16.3774C0.149676 17.1139 0.107464 17.857 0.178207 18.5885C0.257939 19.4012 0.232535 20.2124 0.245432 21.024C0.309921 25.2377 0.187587 29.4525 0.344707 33.6662C0.388873 34.8399 0.356433 36.0163 0.375584 37.1912C0.417013 39.8364 0.303277 42.4852 0.479942 45.1285C0.561629 46.3716 0.431087 47.6195 0.617911 48.8602C0.726172 49.5845 1.6669 50.1997 2.3791 49.939C2.51121 49.89 2.63863 49.8678 2.77464 49.867C3.33276 49.8636 3.89087 49.867 4.44788 49.8617C9.57187 49.8134 14.6957 49.9532 19.8176 49.7836C20.8787 49.7484 21.9418 49.7786 23.0042 49.7786C24.0637 49.779 25.1225 49.7587 26.1844 49.8219C27.2933 49.8866 28.4189 50.0029 29.5375 49.7641C29.8877 49.6894 30.1265 49.5562 30.2547 49.2641C30.3681 49.0084 30.6128 48.7569 30.5276 48.4747C30.4341 48.1646 30.4502 47.8676 30.4638 47.5625C30.5002 46.669 30.5862 45.7778 30.558 44.8816C30.5412 44.3262 30.5412 43.7703 30.5455 43.2137C30.5885 38.938 30.4771 34.6604 30.646 30.3853C30.6808 29.5121 30.6882 28.6397 30.6276 27.7638C30.5815 27.0774 30.6601 26.3817 30.6686 25.6904C30.7242 21.4664 30.6038 17.2409 30.7785 13.0179C30.8094 12.294 30.8008 11.5659 30.7116 10.8446C30.6687 10.4989 30.7879 10.1716 30.798 9.83247C30.8457 8.33256 30.7711 6.83314 30.9043 5.33048C31.0017 4.2165 31.0951 3.07067 30.8055 1.95365L30.8055 1.95359ZM30.283 5.22017C30.1391 7.20774 30.2857 9.19922 30.1786 11.184C29.9656 15.1485 30.1528 19.1149 30.0754 23.0804C30.0574 23.9869 30.1204 24.8992 30.0457 25.8007C29.8753 27.8702 29.9886 29.9409 29.9476 32.0112C29.9034 34.2881 29.9879 36.5694 29.8968 38.8445C29.796 41.3489 29.8706 43.8514 29.8268 46.3539C29.8151 47.0437 29.8178 47.7347 29.8151 48.4257C29.8135 48.9456 29.4407 49.341 28.9064 49.3334C27.5932 49.3119 26.2795 49.2932 24.9663 49.2319C23.6847 49.1714 22.3984 49.2116 21.1145 49.212C18.8191 49.2132 16.5221 49.168 14.2294 49.2334C11.2821 49.3169 8.33429 49.3169 5.38693 49.3521C4.84678 49.3582 4.29761 49.3758 3.75981 49.3854C3.07504 49.3977 2.37543 49.3869 1.68674 49.3199C1.36742 49.2886 1.22007 49.0478 1.20561 48.7576C1.18099 48.2844 1.17747 47.8097 1.17708 47.3358C1.17551 45.1916 1.17747 43.0463 1.18098 40.9014C1.18098 40.7571 1.18763 40.6154 1.04614 40.5052C1.17277 40.328 1.18098 40.1676 1.18098 39.9991C1.17473 38.4422 1.23805 36.8818 1.15636 35.3288C0.991819 32.1464 1.09852 28.9633 1.04653 25.7813C1.03715 25.1447 1.06568 24.5077 1.0348 23.8725C0.848369 20.031 0.959762 16.1863 0.922631 12.3436C0.896836 9.78678 0.890191 7.22993 0.881593 4.67347C0.881202 4.44148 0.871039 4.2206 0.699069 4.00622C0.882373 3.95301 0.883944 3.8217 0.882373 3.67852C0.878464 3.20422 0.878855 2.72952 0.883936 2.25594C0.891753 1.49528 1.46904 0.915279 2.2409 0.915671C6.75825 0.917968 11.2749 0.930601 15.7915 0.929452C16.8534 0.929069 17.9197 0.911842 18.9745 0.965054C20.0251 1.01827 21.0722 1.03741 22.1212 1.04009C22.4574 1.04047 22.7786 0.908783 23.1214 0.950123C24.5663 1.12124 26.0199 0.992233 27.4672 1.05349C28.0887 1.07875 28.7128 1.14957 29.3187 1.31074C29.3965 1.33141 29.4828 1.36931 29.5317 1.42712C29.8565 1.80419 30.1516 2.16136 30.2344 2.70691C30.3591 3.55103 30.3411 4.38862 30.2829 5.22045L30.283 5.22017Z" fill="#253858"/>
<path fill-rule="evenodd" clip-rule="evenodd" d="M27.1294 32.1868C26.3149 31.6099 25.9741 30.8083 25.8783 29.8619C25.8064 29.1556 26.0284 28.4987 26.1742 27.8268C26.2825 27.333 26.1715 26.9345 25.7724 26.5508C25.1392 25.9422 24.3728 25.536 23.6595 25.0495C22.4878 24.2471 22.0262 22.7062 23.1882 21.5497C23.9116 20.8304 24.7508 20.2761 25.5747 19.69C25.9757 19.4048 26.4111 19.1257 26.5812 18.6242C26.7903 18.0105 26.7192 17.4321 26.3549 16.8855C26.2009 16.6539 26.0535 16.4123 25.941 16.1593C25.6115 15.4265 25.6088 14.7202 26.1946 14.0936C26.7063 13.5469 27.2288 13.011 27.7373 12.4605C28.1172 12.0493 28.349 11.5693 28.2954 11.0001C28.2235 10.2118 27.8976 9.54456 27.1995 9.11315C26.4296 8.63846 25.8053 8.09022 25.6064 7.15538C25.4032 6.19872 25.522 5.33628 26.1548 4.56599C26.5855 4.04076 27.0799 3.58137 27.6626 3.21652C27.7736 3.14723 27.894 3.08367 27.9714 2.96194C27.8694 2.8915 27.7619 2.92366 27.6626 2.92136C26.7785 2.90758 25.8901 2.96041 25.0158 2.87236C23.7159 2.74182 22.4058 2.73722 21.1128 2.73914C19.6604 2.74181 18.205 2.71425 16.7518 2.69971C15.537 2.68746 14.3176 2.6553 13.1001 2.59634C11.6231 2.52437 10.1458 2.38235 8.65581 2.46427C7.53528 2.52628 6.40494 2.44245 5.27931 2.41374C4.82593 2.40149 4.38075 2.51748 3.92504 2.45278C3.40052 2.37852 2.88225 2.37967 2.36246 2.57031V3.41327C3.11327 3.8627 3.91844 4.18809 4.74781 4.45228C6.337 4.9576 7.97423 5.32396 9.5138 5.96748C10.8994 6.54707 12.1091 7.30432 12.3009 8.97455C12.4013 9.84699 12.2673 10.5785 11.4297 11.0782C10.759 11.477 10.0551 11.7917 9.32849 12.0654C8.31192 12.4486 7.25192 12.6967 6.25406 13.1442C5.00025 13.7062 4.75241 15.1478 5.77996 16.1439C6.10709 16.4605 6.45573 16.7614 6.80514 17.0504C7.03495 17.2403 7.18738 17.4968 7.43947 17.6882C7.50514 17.5772 7.56259 17.493 7.60988 17.403C8.17075 16.3491 8.84538 15.3806 9.65514 14.4855C10.9969 13.0032 12.6877 12.1381 14.5915 11.6163C15.8074 11.2844 17.0464 11.2507 18.3092 11.3001C20.4288 11.3824 22.1341 12.294 23.6614 13.6327C23.7724 13.7299 23.9085 13.826 23.9112 14.0036C23.8092 14.0316 23.7482 13.963 23.6821 13.924C23.0564 13.5595 22.4095 13.2632 21.6896 13.1009C20.5437 12.8418 19.4035 12.8406 18.2947 13.1767C16.9478 13.5844 15.7152 14.2057 14.7138 15.2287C13.7406 16.2225 12.8463 17.2752 12.4746 18.617C11.8235 20.966 12.1877 23.2403 13.4557 25.3002C14.5395 27.0604 16.2174 28.182 18.2095 28.821C19.2624 29.159 20.3521 29.2045 21.4516 29.0552C22.5581 28.9056 23.5324 28.5036 24.2829 27.6607C24.3305 27.6075 24.3794 27.5458 24.4767 27.5887C24.5654 27.7572 24.4896 27.9087 24.3915 28.0404C24.2219 28.2632 24.0487 28.4857 23.8541 28.6863C22.1715 30.4227 19.9695 31.0559 17.6608 31.353C16.0302 31.5631 14.4383 31.1336 12.9401 30.5395C11.1036 29.8114 9.60626 28.6196 8.54276 26.9486C8.25549 26.498 7.94554 26.0616 7.64733 25.6222C7.12165 25.9851 6.62486 26.3296 6.12418 26.6711C5.52071 27.0834 4.99194 27.5799 4.62413 28.1977C4.14222 29.0051 3.93233 29.8485 4.54049 30.714C5.14278 31.57 4.87662 32.6974 4.12033 33.2598C3.79085 33.504 3.45629 33.7307 3.07524 33.8888C2.83605 33.9875 2.60192 34.0951 2.37758 34.1935C2.33146 35.1 2.317 35.974 2.33263 36.8464C2.87903 37.1312 3.44106 37.3149 4.02769 37.3766C4.86214 37.4643 5.69503 37.4803 6.54 37.4022C7.79341 37.287 8.98709 37.6212 10.1053 38.1453C10.887 38.5113 11.1852 39.2329 10.9198 39.9101C10.7909 40.2405 10.7217 40.58 10.6369 40.9184C10.5603 41.2262 10.5931 41.5083 10.8362 41.7465C10.9769 41.8843 11.102 42.0401 11.2372 42.1833C11.4107 42.3678 11.6195 42.4462 11.8837 42.4336C12.7842 42.3915 13.6863 42.4451 14.5911 42.3651C15.5318 42.2828 16.4828 42.3192 17.4302 42.3172C21.0099 42.31 24.5877 42.3088 28.1672 42.3031C28.299 42.3031 28.4424 42.3402 28.5843 42.2257C28.6667 39.2264 28.5284 36.2063 28.725 33.1709C28.1508 32.8731 27.6326 32.5431 27.1296 32.1867L27.1294 32.1868ZM25.5505 11.3694C25.6939 11.3766 25.7545 11.4773 25.7443 11.5925C25.7338 11.6959 25.6556 11.7736 25.4273 11.7506C25.4094 11.7483 25.3308 11.6875 25.3355 11.5684C25.3382 11.4398 25.4098 11.3628 25.5505 11.3694ZM22.9158 8.65286C22.471 8.52921 22.673 7.98332 22.2189 7.93125C22.4604 7.72912 22.6258 7.56949 22.7422 7.2973C22.9404 7.52738 23.0565 7.77084 23.3707 7.9278C22.9748 8.05298 22.9013 8.30642 22.9158 8.65286ZM16.0717 23.2364C15.9091 23.3398 15.7762 23.4558 15.7926 23.6755C15.8044 23.8413 15.6973 23.8501 15.5448 23.8118C15.5878 23.4562 15.3264 23.287 15.0696 23.1005C15.2216 22.8762 15.4557 22.746 15.5804 22.5106C15.9161 22.5803 15.9838 22.9122 16.2417 22.9979C16.2632 23.1427 16.1585 23.1821 16.0717 23.2364ZM20.6177 22.0895C19.9536 22.3973 19.5585 22.8789 19.5722 23.6284C19.5726 23.679 19.5659 23.7318 19.5519 23.7804C19.5147 23.9048 19.5065 24.0679 19.3166 24.0549C19.1512 24.0426 19.1462 23.8964 19.1262 23.7766C19.0426 23.2575 18.8753 22.7817 18.4544 22.4207C18.2769 22.2675 18.0049 22.2342 17.8869 21.9869C18.1495 21.7821 18.4837 21.6879 18.7072 21.4249C18.9015 21.196 19.0293 20.9575 19.0617 20.6562C19.0809 20.4855 19.0324 20.2194 19.417 20.2305C19.4846 21.0938 19.9181 21.6875 20.7866 21.8628C20.7819 22.0343 20.6893 22.0554 20.6177 22.0895L20.6177 22.0895ZM20.8272 19.4025C21.1352 19.2421 21.2235 18.9872 21.4541 18.8471C21.6069 19.0101 21.7527 19.1659 21.9165 19.3409C21.6917 19.5308 21.5537 19.7524 21.5119 20.0973C21.1598 19.9503 21.1617 19.5583 20.8272 19.4025ZM21.746 25.9353C21.6026 25.9116 21.499 25.8438 21.5135 25.675C21.528 25.513 21.6362 25.4346 21.7887 25.4476C21.9114 25.4591 22.0532 25.5046 22.0333 25.6662C22.0161 25.8162 21.9426 25.9399 21.746 25.9353ZM7.32391 29.4913C7.41576 29.4155 7.51112 29.4453 7.60805 29.5027C7.80738 29.6203 7.72726 29.7749 7.68192 29.9411C7.47789 30.0261 7.35361 29.9537 7.27857 29.7983C7.22815 29.6942 7.22151 29.5751 7.32391 29.4913ZM7.53848 34.2053C7.39778 34.5368 7.45054 34.9292 7.17578 35.3181C6.80134 34.6268 7.08041 33.6445 6.02042 33.4147C6.84198 33.2364 6.98074 32.6372 7.08122 32.0178C7.14024 32.0041 7.17776 31.9884 7.21802 31.9861C7.25788 31.9845 7.29932 31.996 7.35716 32.0037C7.45643 32.5856 7.63857 33.1215 8.29949 33.3937C8.14159 33.7578 7.69092 33.8447 7.53848 34.2053ZM10.3569 33.3203C9.98127 33.4148 10.12 33.1036 10.0532 32.9845C9.95898 32.8161 9.77568 32.7365 9.66038 32.5301C9.93201 32.4394 9.96016 32.1174 10.2314 31.9796C10.4397 32.1515 10.5585 32.4065 10.8388 32.5477C10.5245 32.7403 10.333 32.9711 10.3569 33.3203ZM17.2068 35.897C17.0767 35.9085 16.9692 35.8587 16.959 35.7263C16.95 35.6007 17.0356 35.5195 17.1713 35.5138C17.2924 35.5096 17.3694 35.5605 17.3808 35.6876C17.3788 35.8024 17.3343 35.8855 17.2068 35.897ZM20.8304 38.5201C20.6948 38.5167 20.5795 38.4692 20.5759 38.3111C20.5724 38.171 20.6627 38.1086 20.7944 38.107C20.9351 38.1047 21.0383 38.1553 21.0422 38.3138C21.045 38.4566 20.9648 38.5239 20.8304 38.5201ZM21.5652 34.4052C21.4073 34.4202 21.3377 34.313 21.3299 34.1778C21.3209 34.0308 21.3838 33.9148 21.555 33.906C21.7074 33.8988 21.7821 33.9849 21.8016 34.13C21.7864 34.272 21.7274 34.3903 21.5652 34.4052ZM24.6657 35.904C24.3777 35.9809 24.226 36.152 24.219 36.4529C24.2155 36.5793 24.1404 36.6658 23.9259 36.6022C24.0115 36.1987 23.7898 35.9729 23.3728 35.8362C23.6777 35.5816 23.8367 35.2719 24.2041 35.1085C24.2374 35.4867 24.5051 35.6195 24.7353 35.7543C24.7509 35.845 24.7083 35.8925 24.6657 35.904Z" fill="#253858"/>
<path fill-rule="evenodd" clip-rule="evenodd" d="M2.42451 18.1442C2.83138 18.6706 3.23043 19.2007 3.82139 19.553C4.55775 19.992 5.10732 20.6057 5.52315 21.3411C6.10473 22.3678 5.90462 23.7915 5.06704 24.636C4.50344 25.2041 3.80933 25.59 3.11864 25.9739C2.59529 26.2641 2.22555 26.5952 2.31232 27.2586C2.3604 27.6223 2.29434 27.999 2.29825 28.3695C2.30959 29.5494 2.32639 30.7292 2.34711 31.9098C2.35493 32.3064 2.30216 32.7057 2.37564 33.1425C2.64688 32.9982 2.86498 32.8401 3.05532 32.6563C3.52707 32.1996 3.63846 31.4945 3.30312 31.0194C3.07839 30.7017 2.94237 30.3457 2.77235 30.0046C2.38346 29.2275 2.75555 27.8145 3.29413 27.359C3.9187 26.8303 4.55934 26.3349 5.30856 25.9912C6.0242 25.6631 6.72106 25.3063 7.36442 24.734C6.60032 22.785 6.68631 20.771 7.13695 18.7065C6.75354 18.38 6.32791 18.1331 5.92577 17.8571C5.37507 17.4796 4.81855 17.1205 4.3866 16.593C3.87734 15.9713 3.87069 14.7517 4.60861 14.244C4.85172 14.0771 5.13743 13.9274 5.29455 13.6656C5.51264 13.3035 5.8343 13.0665 6.18841 12.8571C7.13425 12.2966 8.17973 11.9785 9.23813 11.7128C9.96666 11.5306 10.6198 11.2113 11.2122 10.7837C12.3402 9.96718 12.3301 8.27862 11.2279 7.53323C10.2383 6.86483 9.11889 6.70136 7.97875 6.57388C6.58146 6.41808 5.17096 6.3193 3.83461 5.83696C3.34488 5.66086 2.86375 5.46066 2.34587 5.25853C2.34587 6.18992 2.31187 7.09644 2.35329 7.99913C2.43615 9.84313 2.30639 11.686 2.37792 13.5304C2.43225 14.9289 2.35173 16.3323 2.32984 17.7334C2.32633 17.8773 2.32711 18.0186 2.42443 18.1442L2.42451 18.1442ZM10.216 7.96087C10.2668 8.43672 10.5662 8.63387 10.9305 8.80269C10.7401 9.00175 10.456 9.05036 10.3759 9.31374C10.3075 9.53692 10.3809 9.81715 10.0643 10.0177C9.9213 9.58248 9.95843 9.04807 9.37294 8.85859C9.78176 8.68861 9.82945 8.22463 10.216 7.96087ZM6.62217 7.54858C6.6765 7.31354 6.83284 7.27104 7.06656 7.35603C7.09666 7.60294 7.03647 7.77101 6.7707 7.77024C6.63624 7.76909 6.59755 7.65845 6.62217 7.54858Z" fill="#253858"/>
<path fill-rule="evenodd" clip-rule="evenodd" d="M28.8594 8.84975C28.8719 8.63499 28.7922 8.45583 28.6628 8.31189C28.1704 7.76216 28.2931 7.16498 28.6374 6.65547C29.0302 6.0755 28.7785 5.49896 28.8289 4.9037C28.4784 5.22909 28.0344 5.32135 27.6455 5.51735C27.5524 5.56444 27.4606 5.61841 27.3738 5.67546C26.4393 6.29676 26.1931 7.81845 26.9529 8.51171C27.3793 8.90142 27.7721 9.29917 28.0742 9.7922C28.4995 10.4859 28.6132 11.2094 28.3185 11.9666C28.0559 12.6412 27.5138 13.1143 26.9994 13.6017C26.6425 13.9393 26.2978 14.3026 26.0879 14.7341C25.7709 15.3849 25.9796 16.0073 26.4018 16.5552C27.2003 17.5934 26.9611 19.2647 25.6767 19.989C25.4766 20.1027 25.28 20.2229 25.0819 20.3374C24.2009 20.8488 23.8339 22.0295 24.2455 22.9539C24.5101 23.5473 24.947 23.9615 25.4888 24.3095C26.5209 24.9714 27.821 25.1724 28.7027 26.1221C28.7367 25.3626 28.8547 24.6364 28.7844 23.9029C28.5956 23.741 28.349 23.6969 28.1387 23.5851C27.6603 23.3294 27.3609 22.9546 27.3722 22.4015C27.3824 21.8786 27.5337 21.3992 27.9859 21.0762C28.2614 20.8791 28.569 20.7229 28.8711 20.5429C28.8481 19.5231 28.9137 18.5144 28.9239 17.5053C28.9563 14.6196 28.6874 11.737 28.8594 8.84982L28.8594 8.84975Z" fill="#253858"/>
<path fill-rule="evenodd" clip-rule="evenodd" d="M9.30138 42.4436C9.15169 42.1806 9.12473 41.9547 9.12941 41.7124C9.14231 41.1845 9.43036 40.7833 9.71997 40.3768C10.0362 39.9327 10.0221 39.5893 9.68284 39.1666C9.49797 38.9354 9.27206 38.7555 9.00473 38.6223C7.8936 38.0664 6.71083 37.769 5.46953 37.6802C5.00833 37.6469 4.54557 37.6235 4.08515 37.5779C3.48442 37.5186 2.9353 37.274 2.34277 37.0523C2.34277 37.1369 2.34238 37.1768 2.34277 37.2177C2.35059 38.6184 2.40179 40.0188 2.27672 41.4176C2.24701 41.7556 2.25874 42.0925 2.43032 42.4488C2.7559 42.3688 3.05607 42.5449 3.37969 42.5438C4.29427 42.5422 5.20802 42.5262 6.12184 42.4718C7.01375 42.4182 7.90994 42.4488 8.80425 42.4431C8.95707 42.4427 9.10911 42.4435 9.30141 42.4435L9.30138 42.4436Z" fill="#253858"/>
<path fill-rule="evenodd" clip-rule="evenodd" d="M28.6103 26.4302C28.1616 25.9857 27.657 25.6198 27.066 25.3805C26.1862 25.0237 25.3572 24.5854 24.6388 23.9691C23.8994 23.3348 23.6258 22.5553 23.9252 21.6148C23.9861 21.4215 24.0533 21.2301 24.1178 21.0375C24.096 21.0199 24.0737 21.0023 24.0522 20.9847C23.5077 21.4996 22.9074 21.9723 22.7174 22.7529C22.7049 22.8023 22.6803 22.8563 22.6889 22.9022C22.8234 23.6162 23.0743 24.2551 23.7231 24.6972C24.5059 25.2305 25.3127 25.7377 25.9803 26.4199C26.3308 26.7778 26.4973 27.1867 26.425 27.6801C26.3938 27.8937 26.359 28.1065 26.3148 28.3179C26.1749 28.979 26.1311 29.6516 26.5646 30.2116C27.0953 30.8953 27.9059 31.1461 28.7166 31.3884C28.7334 31.323 28.7475 31.2939 28.749 31.2644C28.8151 29.7618 28.8112 28.2593 28.7568 26.7563C28.7518 26.6239 28.7052 26.5244 28.6103 26.4302Z" fill="#253858"/>
<path fill-rule="evenodd" clip-rule="evenodd" d="M4.3596 24.8867C5.44931 24.2144 5.88666 22.7138 5.3543 21.5872C5.00371 20.8476 4.50616 20.2087 3.79952 19.7573C3.32503 19.4545 2.92442 19.0877 2.59924 18.6337C2.53593 18.5441 2.48043 18.4427 2.30885 18.3707C2.23263 20.9513 2.43665 23.5009 2.26117 26.1308C3.02254 25.6561 3.70453 25.2909 4.3596 24.8867Z" fill="#253858"/>
<path fill-rule="evenodd" clip-rule="evenodd" d="M21.1311 45.1083C20.8102 45.3295 20.5225 45.5833 20.2923 45.8965C20.127 46.122 19.896 46.2138 19.6204 46.2291C19.0213 46.2632 18.4225 46.2483 17.8253 46.1886C17.7476 46.1809 17.6538 46.1974 17.5943 46.0768C18.6574 45.7043 19.0768 44.8514 19.3543 43.886C19.239 43.8263 19.1808 43.8465 19.119 43.8622C18.1501 44.1103 17.567 44.7707 17.1926 45.6301C17.0733 45.9069 16.9342 45.9907 16.6446 45.8919C16.1001 45.7082 15.5463 45.5455 14.9984 45.3721C14.6556 45.2641 14.2839 45.2522 13.9114 45.0949C14.8647 44.8579 15.6679 44.0586 15.5769 43.4714C14.4747 43.5311 13.7829 44.1704 13.2752 45.0662C12.3614 44.9295 11.4781 45.021 10.5084 45.2595C10.7414 44.7301 11.165 44.3431 11.0384 43.7815C11.0048 43.7765 10.9724 43.7635 10.9442 43.77C10.8637 43.7907 10.7828 43.8178 10.7042 43.8442C10.1164 44.0383 9.65525 44.4407 9.49616 44.9873C9.30622 45.6431 8.88879 46.0393 8.36783 46.4023C8.27832 46.4654 8.1767 46.5416 8.29161 46.7414C9.01038 46.3514 9.69861 45.882 10.5117 45.706C11.0764 46.6841 11.9594 47.135 13.0108 47.4352C12.9478 46.701 12.5801 46.263 11.3645 45.4177C12.2514 45.3079 13.0971 45.2206 13.9254 45.4962C14.1544 46.6497 15.3731 47.2215 16.1313 47.1657C16.1606 46.6351 15.8058 46.271 15.5189 45.8629C16.4557 46.2147 17.4019 46.4479 18.3553 46.5911C18.4948 47.2602 18.9599 47.5542 19.5403 47.6821C19.81 47.7407 20.1219 47.7468 20.3224 47.4685C19.9828 47.1569 19.6502 46.8801 19.2488 46.614C20.7673 46.3947 22.2493 46.2178 23.3222 45.0039C22.7379 44.6157 21.7479 44.6835 21.1315 45.1084L21.1311 45.1083ZM9.56753 45.6117C9.52063 45.109 10.2394 44.2385 10.7952 44.1481C10.5302 44.7725 10.1855 45.2893 9.56753 45.6117ZM12.5575 47.0399C11.8548 46.7578 11.3029 46.3551 10.8855 45.746C11.4077 45.5665 12.3984 46.473 12.5575 47.0399ZM15.252 43.8155C15.005 44.3526 14.3414 44.8066 13.827 44.7898C13.9349 44.3958 14.7608 43.8312 15.252 43.8155ZM15.7617 46.8459C15.2645 46.8754 14.4938 46.2472 14.3988 45.7051C15.0535 45.8992 15.494 46.2613 15.7617 46.8459ZM18.944 44.2649C18.6161 45.0417 18.1088 45.5558 17.3923 45.9263C17.4087 45.3839 18.2659 44.4529 18.944 44.2649ZM19.8574 47.3849C19.302 47.4454 18.79 47.1334 18.6892 46.6924C19.1457 46.8034 19.5131 47.0193 19.8574 47.3849ZM22.5831 45.1546C22.3928 45.5202 21.4743 45.9378 20.6509 46.0228C21.0503 45.3058 21.8339 44.9613 22.5831 45.1546Z" fill="#253858"/>
<path fill-rule="evenodd" clip-rule="evenodd" d="M6.06156 26.39C6.45319 26.114 6.85497 25.8495 7.24032 25.5647C7.38259 25.4598 7.55027 25.3331 7.41347 25.0712C6.89169 25.5141 6.33706 25.8456 5.73752 26.1006C5.08521 26.3774 4.49702 26.7541 3.94431 27.1828C3.59177 27.4562 3.26502 27.7433 3.08094 28.1801C2.64671 29.2069 2.99299 30.1053 3.48585 30.9912C3.72076 31.413 3.79345 31.823 3.55855 32.2805C3.34437 32.6985 3.00902 32.9852 2.61505 33.2034C2.35045 33.3501 2.33208 33.52 2.41963 33.7715C2.99183 33.5966 3.49563 33.3313 3.92788 32.9428C4.59348 32.3452 4.75647 31.4597 4.22805 30.7458C3.65976 29.9763 3.76959 29.2317 4.11822 28.4481C4.52313 27.5424 5.27117 26.946 6.06151 26.3901L6.06156 26.39Z" fill="#253858"/>
<path fill-rule="evenodd" clip-rule="evenodd" d="M25.9838 5.24546C25.3768 6.39854 25.8931 7.81377 26.6404 8.5136C26.5548 8.19816 26.4657 7.9566 26.4262 7.70777C26.3539 7.22963 26.3152 6.75991 26.5556 6.29361C26.8566 5.71249 27.3346 5.36107 27.9232 5.12681C28.2105 5.0131 28.4649 4.86113 28.7033 4.66704C28.8311 4.56292 28.8765 4.45688 28.8722 4.29839C28.8628 3.9795 28.8643 3.65832 28.8854 3.34059C28.8948 3.19664 28.9652 3.03662 28.8143 2.94973C28.6709 2.86627 28.502 2.9103 28.3644 3.00141C28.0346 3.22038 27.6926 3.42825 27.3858 3.67593C26.8331 4.1223 26.3211 4.60726 25.9838 5.24546Z" fill="#253858"/>
<path fill-rule="evenodd" clip-rule="evenodd" d="M9.69761 6.42225C9.61866 6.31086 9.50023 6.29592 9.399 6.25535C8.60989 5.94106 7.8001 5.69299 6.98784 5.44531C5.58585 5.01655 4.15894 4.66321 2.85541 3.9699C2.70298 3.88874 2.54664 3.81256 2.35904 3.71763V4.8416C3.14307 5.19456 3.94043 5.49966 4.7792 5.70371C6.39061 6.0961 8.06979 6.04059 9.69761 6.42225Z" fill="#253858"/>
<path fill-rule="evenodd" clip-rule="evenodd" d="M10.2109 38.598C9.30258 37.9943 8.24689 37.8079 7.17949 37.6777C7.25805 37.7007 7.33544 37.7267 7.41439 37.7474C8.05811 37.9143 8.6733 38.1524 9.24272 38.492C10.1475 39.0322 10.3269 39.8606 9.73675 40.7119C9.66562 40.8141 9.59058 40.9141 9.52218 41.0178C9.34747 41.285 9.26344 41.5775 9.27673 41.8952C9.28846 42.1812 9.4573 42.3913 9.72112 42.4208C10.1292 42.4664 10.5454 42.4323 10.9948 42.4323C10.7826 42.0954 10.4766 41.8856 10.3601 41.5384C10.1639 40.9508 10.3785 40.4233 10.5825 39.8943C10.7951 39.3461 10.7056 38.9269 10.2108 38.598L10.2109 38.598Z" fill="#253858"/>
<path fill-rule="evenodd" clip-rule="evenodd" d="M4.41763 14.7298C4.15186 15.3707 4.18977 15.9697 4.65527 16.518C4.88548 16.7886 5.13484 17.0348 5.43852 17.2288C6.02518 17.6021 6.60798 17.9818 7.1918 18.3578C7.31492 18.1871 7.28326 18.06 7.20079 17.9252C6.97879 17.5696 6.68175 17.2821 6.33781 17.0451C5.36968 16.379 4.78103 15.5196 4.83896 14.2593C4.71077 14.4707 4.49775 14.5361 4.41763 14.7298Z" fill="#253858"/>
<path fill-rule="evenodd" clip-rule="evenodd" d="M27.7608 22.4445C27.7698 23.0091 28.1552 23.4119 28.8169 23.6025C28.8892 22.7178 28.8462 21.8434 28.8638 20.9492C27.8538 21.3565 27.7498 21.8067 27.7608 22.4445Z" fill="#253858"/>
<path fill-rule="evenodd" clip-rule="evenodd" d="M26.368 30.3581C26.531 31.1888 27.8364 32.4135 28.7259 32.5949C28.7658 32.33 28.7799 32.0662 28.7283 31.763C27.8516 31.4502 26.9856 31.1329 26.368 30.3581Z" fill="#253858"/>
<path fill-rule="evenodd" clip-rule="evenodd" d="M25.3364 45.2641C25.1144 45.2694 24.8971 45.4968 24.9045 45.7158C24.9135 45.9597 25.1535 46.1966 25.3927 46.1966C25.6393 46.1966 25.8641 45.983 25.8652 45.7487C25.8641 45.5225 25.5768 45.2576 25.3364 45.2641ZM25.3556 45.939C25.2227 45.9386 25.1246 45.8923 25.1285 45.7468C25.1328 45.5971 25.2329 45.5317 25.3763 45.5236C25.5209 45.5152 25.619 45.5703 25.6491 45.7277C25.612 45.872 25.5111 45.939 25.3556 45.939Z" fill="#253858"/>
<path fill-rule="evenodd" clip-rule="evenodd" d="M5.83443 45.4072C5.60969 45.406 5.37714 45.6273 5.38301 45.8363C5.39082 46.0652 5.60305 46.2742 5.83365 46.2651C6.08301 46.2547 6.26162 46.1376 6.28312 45.8803C6.30188 45.6491 6.058 45.4087 5.83443 45.4072ZM5.82349 46.0243C5.70194 46.0266 5.62454 45.9596 5.63119 45.8329C5.63979 45.7188 5.69294 45.6376 5.82544 45.6376C5.94308 45.6376 6.02946 45.6767 6.04509 45.8061C6.02125 45.9278 5.96028 46.0216 5.82349 46.0243Z" fill="#253858"/>
<path fill-rule="evenodd" clip-rule="evenodd" d="M28.8434 8.249V6.7388C28.4463 7.35743 28.4608 7.91325 28.8434 8.249Z" fill="#253858"/>
<path fill-rule="evenodd" clip-rule="evenodd" d="M2.2324 14.7063H2.24295V14.0073H2.2324V14.7063Z" fill="#253858"/>
<path fill-rule="evenodd" clip-rule="evenodd" d="M28.9485 11.5565H28.9664V11.1351H28.9485V11.5565Z" fill="#253858"/>
</svg>
