<svg width="63" height="50" viewBox="0 0 63 50" fill="none" xmlns="http://www.w3.org/2000/svg">
<path fill-rule="evenodd" clip-rule="evenodd" d="M57.9871 13.514C58.6279 13.2525 59.273 13.1251 59.9594 13.1762C60.0372 12.9436 60.1485 12.7347 60.1725 12.4698C59.0172 12.7188 58.1158 13.1019 57.9871 13.514Z" fill="#253858"/>
<path fill-rule="evenodd" clip-rule="evenodd" d="M58.3558 18.9679C58.4801 18.5882 58.5986 18.2272 58.7158 17.8667C58.2939 18.2509 58.1599 18.6871 58.3558 18.9679Z" fill="#253858"/>
<path fill-rule="evenodd" clip-rule="evenodd" d="M62.9267 8.07243C62.6858 7.24728 62.0004 6.95196 61.3001 6.70247C60.7861 6.52102 60.2417 6.42789 59.7176 6.27783C59.2606 6.14754 58.7951 6.03704 58.3612 5.83486C57.8044 5.57524 57.1967 5.46763 56.6342 5.22009C56.2895 5.06808 55.8979 5.09124 55.534 5.00439C54.9038 4.85335 54.2967 4.62607 53.6837 4.41713C53.2819 4.28009 52.8634 4.19854 52.4333 4.14402C51.8943 4.07405 51.3672 3.8931 50.8412 3.74495C50.1524 3.55193 49.4526 3.38545 48.7888 3.13018C48.0367 2.84259 47.2461 2.69106 46.5022 2.37355C46.0289 2.17137 45.5043 2.08692 44.9912 1.9465C44.9264 1.40364 44.5261 0.813963 44.0307 0.622366C43.6276 0.466506 43.2153 0.365654 42.7957 0.360343C41.8454 0.348761 40.8926 0.40715 39.9475 0.313536C39.1397 0.233433 38.3289 0.111351 37.5269 0.160084C36.8996 0.198205 36.2761 0.22378 35.6483 0.201101C34.9538 0.175526 34.2664 0.135475 33.5627 0.195793C32.3206 0.302918 31.0649 0.265762 29.8208 0.171665C28.9746 0.107969 28.1227 0.0524776 27.2817 0.0394499C25.4914 0.0104966 23.6952 -0.061402 21.9049 0.11328C21.17 0.185179 20.4289 0.0674389 19.6898 0.186627C18.979 0.301473 18.4361 0.605955 18.1644 1.30178C18.0675 1.54933 17.9 1.69313 17.6461 1.7409C17.2237 1.81956 16.7989 1.90352 16.3828 2.00244C15.7751 2.14625 15.1699 2.29776 14.5795 2.53565C13.8384 2.83435 13.0397 3.00034 12.2544 3.17503C11.004 3.45249 9.75855 3.75119 8.49945 3.98667C7.99019 4.08221 7.49436 4.25352 6.99373 4.39828C5.96032 4.69698 4.8928 4.87696 3.88915 5.28568C3.01127 5.64324 2.04934 5.73927 1.17913 6.12772C0.562358 6.40229 0.15677 6.84575 0.0334149 7.52906C-0.0731416 8.11728 0.0996526 8.68282 0.209091 9.23775C0.414047 10.269 0.740908 11.2732 1.05818 12.2787C1.42298 13.4354 1.71625 14.6157 2.03591 15.7873C2.48613 17.4342 2.93876 19.0806 3.37648 20.7314C3.63376 21.7027 3.95774 22.6534 4.22508 23.6204C4.76266 25.5559 5.26569 27.501 5.79801 29.439C6.39271 31.6041 6.93078 33.7838 7.60514 35.9272C8.03473 37.2881 8.33807 38.6874 8.73022 40.0607C9.24908 41.8843 9.66331 43.7363 10.271 45.5357C10.5901 46.4839 10.8181 47.4634 11.1085 48.4222C11.24 48.8546 11.4292 49.2657 11.8736 49.4833C11.972 49.5316 12.0623 49.576 12.1784 49.5707C12.5509 49.5552 12.8974 49.4857 13.2445 49.3159C13.5905 49.1465 13.9875 49.0819 14.3667 48.9805C16.062 48.524 17.7606 48.0724 19.4559 47.6149C21.3552 47.1024 23.255 46.5953 25.1485 46.0674C26.0345 45.8199 26.9335 45.6196 27.8032 45.3035C28.1147 45.1901 28.4286 45.0323 28.7762 45.0304C29.7856 45.0241 30.7945 45.0179 31.803 45.0145C31.885 45.0145 31.9637 45.0208 32.0473 45.0444C32.7389 45.2408 33.4291 45.443 34.1261 45.6157C37.124 46.3574 40.0798 47.2574 43.0902 47.9512C44.7533 48.3344 46.4074 48.7537 48.0283 49.3217C48.9379 49.6397 49.8662 50.0127 50.8766 49.9997C51.2136 49.9953 51.9134 49.5099 51.957 49.1634C51.9585 49.1456 51.959 49.1253 51.9537 49.1079C51.8985 48.9193 51.9647 48.7441 52.0199 48.5689C52.1442 48.1848 52.2685 47.8012 52.3924 47.4171C52.6813 46.52 52.8935 45.5983 53.1272 44.684C53.5506 43.0312 54.0128 41.3881 54.4607 39.7412C54.8077 38.4669 55.1672 37.1953 55.4989 35.9165C55.7734 34.8535 56.0946 33.8069 56.4272 32.7612C56.7382 31.7831 56.9196 30.7697 57.2148 29.7843C57.5921 28.5273 57.9017 27.2509 58.2415 25.9842C58.6538 24.4507 59.0575 22.9142 59.4851 21.3852C59.765 20.3815 60.0314 19.3744 60.3549 18.3814C60.5622 17.7478 60.7533 17.0959 60.8281 16.4236C60.8646 16.0931 61.0456 15.8161 61.1387 15.5058C61.5342 14.1895 61.8135 12.8413 62.3065 11.548C62.5878 10.8078 62.8114 10.0304 62.9429 9.24092C63.0025 8.85874 63.0404 8.46354 62.9266 8.0722L62.9267 8.07243ZM18.0968 28.318C18.0973 28.4237 18.1333 28.5414 18.0334 28.651C17.2943 28.3335 16.5763 27.9696 15.8894 27.5498C15.1766 27.1146 14.4418 26.7111 13.7722 26.2092C12.5982 25.3291 11.5653 24.3143 11.0191 22.9159C10.5141 21.6208 10.5895 20.3154 11.3589 19.1558C12.1043 18.0339 13.2093 17.5943 14.5666 17.7699C15.2856 17.8635 15.8986 18.1357 16.449 18.5854C16.4836 18.6144 16.5215 18.6409 16.5604 18.6631C16.6252 18.6984 16.69 18.7288 16.7941 18.7799C17.0999 18.1405 17.3332 17.4587 17.9173 17.0075C18.0747 17.0075 18.0714 17.1223 18.0714 17.2343C18.0815 20.9291 18.0911 24.6239 18.0968 28.3179L18.0968 28.318ZM17.9619 11.3349V12.0635C17.8467 11.7692 17.9062 11.5511 17.9619 11.3349ZM24.7594 45.5754C23.9876 45.7969 23.2187 46.0459 22.4474 46.2514C21.4553 46.5144 20.4857 46.8527 19.4898 47.1007C18.1444 47.4361 16.8028 47.7888 15.4776 48.1951C15.0096 48.3389 14.5335 48.4707 14.067 48.6145C13.4795 48.7949 12.8661 48.9498 12.2498 49.0324C11.9781 49.0676 11.8164 48.8422 11.7482 48.5995C11.513 47.7729 11.2894 46.9434 11.0662 46.1134C10.5579 44.2131 10.052 42.3115 9.5446 40.4102C9.24942 39.311 9.00078 38.1973 8.64607 37.1174C8.29809 36.0553 8.00866 34.9806 7.71154 33.9055C7.28339 32.3518 6.88117 30.7912 6.44678 29.2389C6.29799 28.7105 6.16263 28.1778 5.9932 27.6542C5.86745 27.2653 5.79977 26.8469 5.68889 26.4479C5.41386 25.4669 5.09179 24.4984 4.82396 23.516C4.15054 21.041 3.50058 18.5588 2.83103 16.0828C2.33714 14.2597 1.82355 12.4415 1.32384 10.619C1.09153 9.76637 0.864496 8.91231 0.648984 8.05624C0.513625 7.52206 0.944648 6.83057 1.48079 6.68924C2.82763 6.33457 4.17594 5.98424 5.52229 5.62378C7.33188 5.13882 9.13607 4.64421 10.9452 4.15931C12.2689 3.80464 13.599 3.46976 14.9238 3.11942C15.8266 2.88056 16.7515 2.7522 17.6424 2.47764C17.7609 2.44096 17.8785 2.43083 17.9553 2.57704C17.8003 2.94908 17.89 3.34139 17.8771 3.72888C17.8728 3.89149 17.8248 3.99331 17.6649 4.04011C16.9704 4.24471 16.2888 4.4966 15.5544 4.58684C15.4704 4.79434 15.6115 4.9362 15.7402 5.02451C16.332 5.43758 16.9608 5.78355 17.6875 5.90323C17.7686 5.91722 17.9208 5.88538 17.8617 6.07068C17.424 6.12472 17.0525 5.91289 16.6863 5.74061C16.285 5.55291 15.8012 5.4313 15.5631 5.03658C15.2266 4.47538 14.8383 4.79096 14.4491 4.87685C13.3878 5.10848 12.3612 5.48968 11.2754 5.61032C11.0052 5.64024 10.6375 5.98816 10.5996 6.30712C10.5838 6.44078 10.4907 6.56866 10.5747 6.725C11.6997 7.36823 11.9618 7.83437 11.1002 9.14647C11.1036 8.89555 11.2126 8.71362 11.2951 8.52736C11.5682 7.91742 11.5188 7.4151 10.77 7.02756C10.254 6.76071 10.2046 6.57784 10.4657 6.05427C10.4993 5.98575 10.5228 5.92013 10.5367 5.81445C10.1667 5.89262 9.80812 5.98719 9.44477 6.0427C8.7992 6.13872 8.17375 6.29844 7.56134 6.52475C7.40631 6.58169 7.37126 6.61885 7.39574 6.79161C7.48885 7.42036 8.11811 7.845 8.83621 7.91787C9.22019 7.95599 9.61906 7.89374 9.98145 8.10752C10.4129 8.3623 10.6174 8.75846 10.7134 9.22123C10.8296 9.78291 10.7067 10.3127 10.4691 10.8261C10.2862 11.2199 10.1821 11.618 10.28 12.0741C10.3414 12.3554 10.4955 12.4731 10.7192 12.5378C10.8862 12.586 11.0527 12.6686 11.2145 12.6922C11.8567 12.7829 12.0967 13.2539 12.2906 13.7726C12.4322 14.1509 12.5522 14.5389 12.6679 14.9259C12.8047 15.3761 13.1618 15.6155 13.5261 15.8466C13.8496 16.0526 14.2226 16.0864 14.5921 16.1496C14.9939 16.2182 15.3827 16.3581 15.7475 16.553C15.794 16.5786 15.8478 16.5916 15.9025 16.6119C15.8847 16.1791 15.5329 15.8427 15.0707 15.7998C14.8806 15.7834 14.6872 15.7776 14.5053 15.7322C13.7973 15.5547 13.5875 15.2173 13.5482 14.4655C13.5227 13.9738 13.6302 13.4816 13.5227 12.9913C13.4325 12.5778 13.2088 12.3133 12.8196 12.1218C12.3895 11.9109 11.9685 11.6363 11.8879 11.0833C11.8845 11.0563 11.8865 11.0274 11.8908 11.0008C11.8941 10.9834 11.9061 10.967 11.9292 10.9197C12.2153 11.4448 12.6636 11.7126 13.205 11.8979C13.9355 12.1478 14.273 12.7645 14.3949 13.484C14.4726 13.9424 14.5936 14.3801 14.7837 14.797C14.8705 14.9881 15.0453 15.1194 15.2579 15.185C15.458 15.2472 15.6558 15.3211 15.7979 15.3713C15.9428 15.2521 16.0897 15.1556 16.2068 15.0301C16.5644 14.6508 16.5908 14.3222 16.3513 13.816C16.142 13.3755 15.963 12.9214 15.8958 12.4326C15.8224 11.8883 16.0527 11.4279 16.3983 11.0679C16.7828 10.6674 16.9503 10.194 17.0809 9.68635C17.1092 9.57344 17.1265 9.45714 17.1524 9.323C17.4956 9.79348 17.4788 10.3151 17.1125 10.9521C16.9095 11.3034 16.6383 11.6243 16.7602 12.09C16.8289 12.3544 16.9359 12.5913 17.0794 12.8162C17.2364 13.0637 17.3669 13.3253 17.5004 13.5863C17.8608 14.2894 17.6007 14.6948 17.0386 15.1435C16.7972 15.3365 16.5198 15.4774 16.4123 15.8007C16.3398 16.0193 16.3153 16.2277 16.4396 16.4497C16.7137 16.2089 16.8692 15.8798 17.1241 15.6279C17.3794 15.377 17.6665 15.185 17.9376 14.9389C18.1008 15.5001 18.0101 15.7003 17.5839 15.9778C17.1409 16.2654 16.7938 16.6447 16.6489 17.1755C16.6167 17.2889 16.5836 17.4018 16.5505 17.5157C16.3393 17.5456 16.2078 17.4467 16.0772 17.3222C15.6793 16.9381 15.195 16.7909 14.6503 16.7499C14.1823 16.7146 13.7129 16.7436 13.243 16.6785C12.9924 16.6437 12.715 16.7793 12.4539 16.8478C11.5986 17.0698 10.8397 17.5765 9.96417 17.7299C9.38147 17.8322 8.78965 17.9514 8.21172 17.6884C7.79414 17.4983 7.65158 17.1813 7.76053 16.733C7.81429 16.5124 7.82581 16.3276 7.52678 16.2171C7.15383 16.0796 6.80969 16.0434 6.4377 16.1887C6.11371 16.3132 5.78349 16.4217 5.45086 16.5173C4.97952 16.6514 4.55714 16.4801 4.14629 16.2514C4.12373 16.2847 4.09397 16.3108 4.09877 16.3262C4.21973 16.7441 4.27301 17.189 4.65748 17.4843C4.98435 17.7333 5.30449 17.9948 5.61457 18.2583C6.04607 18.6265 6.09359 19.1409 5.87616 19.815C5.784 20.0988 5.73024 20.4313 5.36882 20.5524C5.72256 21.8736 6.07487 23.1876 6.42526 24.5011C6.4747 24.6897 6.64413 24.7004 6.7747 24.7182C7.52011 24.8249 8.24441 25.0005 8.92023 25.347C9.67764 25.7349 10.3213 26.2537 10.8147 26.9582C11.3811 27.765 11.7161 28.6808 12.1016 29.5759C12.3997 30.2665 12.8652 30.8272 13.532 31.2224C14.1464 31.5877 14.8116 31.7759 15.4851 31.9829C16.3548 32.2497 17.2049 32.5832 18.0055 33.0261C18.1375 33.0995 18.1822 33.2283 18.1548 33.4406C17.826 33.3851 17.5851 33.1535 17.3014 33.015C16.4432 32.6 15.5466 32.409 14.6014 32.4374C13.7236 32.4644 12.9094 32.2488 12.166 31.7821C11.411 31.3088 10.9109 30.6158 10.4904 29.8403C9.97298 28.8815 9.36195 27.9816 8.62908 27.1709C8.30269 26.81 7.56927 26.479 7.01007 26.4418C6.93087 26.5181 6.92463 26.6015 6.95439 26.7145C7.3523 28.2287 7.75212 29.743 8.19703 31.2441C8.23543 31.3749 8.33046 31.4087 8.44806 31.455C8.78597 31.5853 9.169 31.4849 9.49107 31.6658C9.97009 31.937 10.2533 32.3868 10.5274 32.8413C10.9814 33.5931 11.5953 34.1379 12.4526 34.3845C12.862 34.5013 13.2589 34.3734 13.6597 34.3531C14.2405 34.3242 14.7819 34.1292 15.3248 33.9304C15.9377 33.7075 16.5502 33.844 17.1453 34.0423C17.4559 34.1466 17.7612 34.274 18.0501 34.4375C18.1658 34.5017 18.2171 34.5727 18.1639 34.7324C17.8197 34.6031 17.4765 34.4766 17.1324 34.3449C16.6308 34.1514 16.11 34.0978 15.5773 34.1166C15.3858 34.1229 15.2346 34.2358 15.0666 34.3015C14.2573 34.6185 13.402 34.7184 12.5509 34.7136C12.0033 34.7116 11.5271 34.3796 11.0913 34.0308C10.5566 33.6037 10.3046 32.9663 9.89518 32.4466C9.61775 32.0943 9.31632 31.7831 8.81569 31.8164C8.66545 31.827 8.53298 31.757 8.30307 31.6982C9.38206 35.4249 10.2364 39.165 11.3822 42.857C13.7337 42.4275 15.9085 41.4948 18.2297 41.0286C18.2167 41.0219 18.2455 41.0291 18.247 41.0397C18.3094 41.5932 18.4212 42.1481 18.2014 42.6939C18.0238 43.1369 17.7728 43.563 17.9115 44.0755C17.934 44.16 17.8625 44.2285 17.8097 44.2936C17.5952 44.5581 17.3542 44.8022 17.214 45.1212C17.2284 45.2008 17.2875 45.2201 17.3614 45.236C17.6935 44.906 17.995 44.5339 18.3847 44.2647C18.5057 44.4398 18.5945 44.6444 18.7452 44.7733C19.1181 45.0893 19.5501 45.2153 20.0359 45.0474C20.104 45.0237 20.1818 45.0213 20.2547 45.0203C22.3288 45.017 24.4033 45.0155 26.4778 45.0141C26.5224 45.0141 26.568 45.0247 26.6218 45.0749C26.0002 45.2409 25.3781 45.3982 24.76 45.5757L24.7594 45.5754ZM7.30001 22.1909C6.93714 22.283 6.92658 22.2758 6.87475 21.9086C6.94962 21.8589 7.01634 21.814 7.06962 21.7792C7.18337 21.7841 7.2424 21.8444 7.30769 21.9018C7.34801 22.0031 7.29617 22.0972 7.30001 22.1909ZM16.281 37.1332C16.0285 37.4121 15.9349 37.7041 15.9162 38.0332C15.7496 37.7688 15.5279 37.5864 15.2572 37.3716C15.5744 37.2949 15.5082 37.0348 15.5922 36.8336C15.802 36.9494 15.9527 37.1685 16.281 37.1332ZM12.9211 37.1854C12.7593 37.2712 12.6196 37.2886 12.5261 37.0739C12.6005 36.9875 12.6355 36.8524 12.7939 36.8934C12.9489 36.934 12.9456 37.0498 12.9211 37.1854ZM18.0929 43.9656C18.0291 43.6433 18.1663 43.3924 18.2595 43.1323C18.4092 43.473 18.3507 43.8189 18.0929 43.9656ZM30.4419 44.4434C27.8207 44.5196 25.2029 44.5215 22.5822 44.5514C22.1075 44.5563 21.6236 44.5717 21.1504 44.5828C20.5682 44.5983 19.9711 44.5703 19.3836 44.5297C19.1095 44.5095 18.9391 44.3213 18.9204 43.998C18.8969 43.581 18.8979 43.1617 18.8969 42.7424C18.8969 40.8069 18.8988 38.8704 18.8988 36.9339C18.8988 36.8066 18.9305 36.6705 18.7817 36.5749C18.882 36.4142 18.9012 36.2729 18.9007 36.1189C18.894 34.7051 18.9516 33.2858 18.8787 31.875C18.7313 29.0115 18.8307 26.1487 18.7831 23.2852C18.7726 22.711 18.7985 22.1363 18.7721 21.5626C18.607 18.0761 18.7039 14.5874 18.6723 11.1001C18.6564 9.2765 18.6819 7.45255 18.6612 5.62898C18.6535 5.09094 18.6291 4.55049 18.6363 4.01146C18.6382 3.858 18.5393 3.7533 18.4899 3.59985C18.6454 3.56173 18.6372 3.43723 18.6363 3.30935C18.6329 2.90932 18.6319 2.50832 18.6363 2.10927C18.6425 1.315 19.1278 0.821326 19.9212 0.821326C23.857 0.823256 27.792 0.836768 31.7263 0.833872C32.6321 0.83339 33.5421 0.828564 34.443 0.865719C35.3938 0.905771 36.3428 0.940997 37.2936 0.937137C37.5984 0.935689 37.8902 0.816982 38.2003 0.854138C39.4718 1.01096 40.7494 0.892259 42.0228 0.947752C42.5685 0.971397 43.1176 1.03558 43.6499 1.18034C43.7003 1.19433 43.7488 1.22956 43.7877 1.26623C44.1174 1.5741 44.3665 1.90416 44.4433 2.38911C44.5638 3.1385 44.5508 3.88693 44.4985 4.6296C44.3689 6.45169 44.4971 8.27625 44.4035 10.0959C44.2192 13.6653 44.3824 17.2371 44.3142 20.8059C44.2988 21.634 44.3368 22.464 44.2931 23.29C44.1141 26.5993 44.2547 29.9116 44.1841 33.2217C44.1702 33.8346 44.1981 34.4498 44.1664 35.0617C44.0152 37.9526 44.1491 40.8455 44.0867 43.7374C44.0785 44.1842 43.7459 44.5418 43.2933 44.535C42.138 44.5176 40.9831 44.4954 39.8273 44.4438C38.6735 44.3912 37.5138 44.425 36.3566 44.4264C34.3863 44.4259 32.412 44.3869 30.4417 44.4433L30.4419 44.4434ZM44.8466 44.2624C45.2349 44.1751 45.6261 44.1432 46.013 44.4361C45.4658 44.6832 44.9469 44.7797 44.3868 44.7276C44.4238 44.4323 44.6196 44.3126 44.8466 44.2624ZM43.134 45.6825C42.7663 45.7047 42.4409 45.4427 42.3372 45.06C42.6281 45.0113 42.6281 45.0113 43.134 45.6825ZM62.2989 9.20488C62.2768 9.95042 62.0128 10.628 61.7891 11.3092C61.2146 13.0614 60.8676 14.88 60.2801 16.6239C59.5438 18.8065 59.0681 21.0576 58.438 23.2676C57.9589 24.954 57.5289 26.6551 57.0441 28.341C56.4897 30.2702 55.9219 32.1956 55.4227 34.1417C54.9447 36.0116 54.421 37.8722 53.88 39.7252C53.3103 41.6718 52.7626 43.6241 52.2587 45.5901C51.964 46.7352 51.6323 47.8702 51.3145 49.0105C51.2229 49.3362 50.7798 49.5987 50.4578 49.5065C49.6452 49.2725 48.8373 49.0264 48.0252 48.7928C46.8747 48.4613 45.7299 48.1105 44.5669 47.8244C43.1754 47.4818 41.7997 47.0745 40.4174 46.6991C39.5529 46.4646 38.6903 46.2238 37.8231 46.0071C36.6721 45.7185 35.5154 45.4503 34.3639 45.1709C34.2511 45.1438 34.1436 45.099 34.0365 45.0449C36.698 44.8722 39.3582 44.8311 42.021 45.0415C42.3872 45.8175 43.0256 46.2141 43.5094 45.8691C43.3299 45.6095 43.1494 45.3504 42.9464 45.0584C43.2833 45.0218 43.5737 45.0015 43.8655 45.0247C44.6033 45.0835 45.3314 45.014 46.0312 44.7771C46.2391 44.7057 46.4579 44.6077 46.6298 44.3858C46.0667 43.938 45.4509 43.8038 44.7684 43.9857C44.503 43.1316 44.7286 42.3108 44.7555 41.4287C47.0714 42.043 49.3528 42.6472 51.6529 43.2566C52.1084 41.2748 52.729 39.4122 53.2281 37.5177C52.6469 37.1949 52.1285 36.8624 51.7335 36.3751C51.4037 35.9697 51.4536 35.52 51.6514 35.0891C51.805 34.7552 52.1482 34.7098 52.4698 34.6987C53.0136 34.6813 53.5516 34.6592 54.0556 34.4184C54.189 34.3547 54.2735 34.2635 54.3109 34.1173C54.4631 33.5121 54.6172 32.9065 54.777 32.3033C54.8456 32.0447 54.6733 31.9096 54.5044 31.8121C53.5602 31.2649 52.5859 30.7876 51.5227 30.5122C50.6179 30.2772 49.7241 29.9838 48.925 29.494C47.9252 28.8826 47.1304 28.0676 46.9464 26.8376C46.8591 26.2532 47.0237 25.7383 47.8666 25.306C47.4883 24.6531 47.1111 24.0021 46.7386 23.3584C46.1228 23.6841 45.9562 24.2535 45.7354 24.7897C45.4705 25.431 45.1916 26.0665 44.9122 26.7223C44.8009 26.6089 44.8398 26.5032 44.8393 26.4077C44.835 25.8074 44.835 25.2061 44.8364 24.6049C44.8383 22.4975 44.846 20.3918 44.8383 18.285C44.8383 18.0263 44.9809 17.8777 45.1542 17.7701C45.5161 17.5462 45.6773 17.1737 45.8189 16.8219C46.3661 15.464 47.0395 14.1688 47.6918 12.8616C47.7902 12.6642 47.7921 12.6657 47.9875 12.5311C48.106 12.7289 48.0427 12.9398 48.035 13.14C47.9764 14.6895 47.7369 16.2255 47.6923 17.7768C47.6798 18.2183 47.8219 18.6077 47.9808 19.0845C49.4731 18.5228 50.8693 17.756 52.3222 17.1553C52.3208 17.0361 52.2526 17.0115 52.1984 16.9879C51.7726 16.804 51.5254 16.4262 51.2274 16.1005C50.7723 15.6044 51.3402 14.5447 51.9848 14.4507C52.9332 14.3122 53.7809 14.5974 54.6497 14.8112C55.4426 15.0071 56.2398 15.1639 57.0425 15.2995C57.5392 15.383 57.6501 15.3415 58.1632 15.0235C58.144 14.7031 57.8287 14.567 57.7216 14.2837C57.4936 13.6796 57.6698 13.3254 58.0595 12.9408C58.4901 12.5167 59.0805 12.4781 59.6084 12.2918C59.8205 12.217 60.0178 12.0828 60.2607 12.0993C60.6706 11.1617 60.8175 10.1483 61.1894 9.17168C61.1232 9.05538 61.0147 8.96081 60.8247 8.91786C60.1095 8.7562 59.4265 8.47874 58.7184 8.30309C57.5588 8.01742 56.4251 7.6502 55.2933 7.2854C54.3636 6.98526 53.3887 6.87234 52.4801 6.51816C51.594 6.17313 50.7847 6.44529 49.9722 6.7715C49.4067 6.99926 48.8802 7.36213 48.2491 7.37323C47.3313 7.38916 46.44 7.24294 45.7215 6.61371C45.4331 6.36279 45.1964 6.03949 45.0015 5.69783C44.9464 5.60181 44.9598 5.50433 45.0035 5.3808C45.2507 5.5439 45.3467 5.81848 45.518 6.02403C45.831 6.39946 46.1703 6.69766 46.658 6.79948C46.9973 6.87089 47.3323 6.96209 47.675 7.02097C48.2145 7.11506 48.7085 6.9317 49.1889 6.71938C49.714 6.48679 50.2314 6.24118 50.8107 6.12875C50.7785 5.99315 50.6835 5.96758 50.588 5.94249C49.772 5.73307 48.9566 5.52557 48.166 5.23604C47.2967 4.91852 46.3901 4.72116 45.5347 4.36456C45.3936 4.30569 45.2429 4.27046 45.1051 4.22703V2.85324C45.4003 2.8513 45.637 2.9565 45.8765 3.01972C47.736 3.51288 49.5944 4.01183 51.4452 4.53496C52.6754 4.88287 53.8955 5.26939 55.1171 5.64867C55.6518 5.81515 56.2306 5.79536 56.7485 5.99947C57.7953 6.40964 58.8955 6.62437 59.9682 6.93705C60.452 7.07795 60.9138 7.27001 61.3818 7.44469C61.7821 7.59476 62.1229 7.82446 62.251 8.32389C62.3317 8.63465 62.3067 8.90295 62.2985 9.20502L62.2989 9.20488ZM45.5153 35.0675C45.6569 34.9396 45.7975 34.9145 45.9425 35.0535C45.9175 35.2899 45.7951 35.3744 45.5619 35.2933C45.5134 35.2296 45.511 35.1485 45.5153 35.0675ZM47.0124 29.6721C47.0379 29.5365 47.1636 29.5046 47.2668 29.5158C47.4348 29.5336 47.4511 29.6846 47.4689 29.8231C47.3719 29.9616 47.2438 30.0108 47.0945 29.9394C46.9899 29.8883 46.9932 29.7701 47.0124 29.6721ZM47.837 33.1846C48.2623 33.2213 48.4337 32.8816 48.6732 32.58C48.8656 32.912 48.726 33.3718 49.1791 33.5648C48.6669 33.7038 48.4874 34.1005 48.3045 34.4889C48.1903 34.4392 48.1231 34.3948 48.1313 34.2592C48.1418 34.0681 48.0981 33.8751 48.1077 33.6845C48.1169 33.4688 47.8591 33.422 47.837 33.1846ZM50.5489 38.1611C50.6886 38.5403 50.6646 38.9317 50.9742 39.228C50.4731 39.3665 50.2379 39.6859 50.1615 40.1549C50.0238 40.1139 49.9129 40.1052 49.947 39.9272C50.0247 39.5281 50.0507 39.1372 49.5664 38.8439C50.0843 38.8178 50.222 38.4067 50.5489 38.1611ZM50.2412 32.0583C50.2791 31.9063 50.3127 31.7741 50.4971 31.7659C50.6497 31.8692 50.7083 31.986 50.5417 32.1462C50.4462 32.1413 50.3492 32.1385 50.2412 32.0583ZM45.0613 11.3149C45.2816 11.1827 45.4563 11.0785 45.6483 10.9636C45.7227 11.1426 45.7884 11.3004 45.8628 11.4775C45.6507 11.6373 45.4433 11.8163 45.3949 12.1903C45.0776 11.8988 45.4649 11.4867 45.0613 11.3149ZM51.5286 13.4241C51.6375 13.0636 51.7887 13.041 52.0796 13.3377C52.0398 13.4714 52.0331 13.6364 51.8449 13.6548C51.6779 13.6707 51.5987 13.5476 51.5286 13.4241ZM57.2131 11.6387C57.3705 11.837 57.3206 12.0363 57.1905 12.2149C57.0619 12.39 56.916 12.2689 56.7672 12.2081C56.699 11.7926 56.82 11.6459 57.2131 11.6387Z" fill="#253858"/>
<path fill-rule="evenodd" clip-rule="evenodd" d="M20.2975 3.29053C20.8764 3.56364 21.4557 3.82712 22.0643 4.02303C23.4548 4.46987 24.8832 4.80282 26.2296 5.38089C27.4483 5.90445 28.5114 6.58725 28.6828 8.09476C28.7745 8.89675 28.6449 9.56071 27.8942 10.011C27.3105 10.3608 26.7029 10.6465 26.0688 10.8863C25.1214 11.2434 24.1268 11.4668 23.2158 11.9363C22.5601 12.2746 22.2054 13.133 22.4829 13.8192C22.6355 14.1975 22.8577 14.502 23.1736 14.7727C23.5993 15.1385 24.051 15.4874 24.3937 15.9834C24.4647 15.8666 24.5132 15.789 24.5545 15.7093C25.0484 14.7582 25.6412 13.8829 26.3544 13.0742C27.5337 11.7351 29.0216 10.9572 30.6943 10.4815C31.8285 10.1596 32.9849 10.1369 34.1583 10.2098C35.9755 10.3232 37.4318 11.1633 38.7316 12.361C38.8089 12.4329 38.9159 12.5091 38.8775 12.679C38.2555 12.3036 37.6412 11.9817 36.9418 11.822C35.9338 11.5923 34.9297 11.5879 33.9553 11.8905C32.7711 12.2577 31.6864 12.8189 30.8051 13.7425C29.9498 14.6405 29.1626 15.5897 28.8353 16.8009C28.2622 18.9212 28.5819 20.9749 29.6969 22.8352C30.6501 24.4236 32.1265 25.4385 33.8766 26.0146C34.8039 26.3191 35.7633 26.362 36.7296 26.2269C37.7021 26.0909 38.5599 25.7309 39.2207 24.9694C39.262 24.9211 39.3047 24.8652 39.4016 24.9067C39.4592 25.0519 39.4079 25.1894 39.3177 25.3101C39.1669 25.5108 39.0162 25.712 38.8444 25.8935C37.3666 27.4617 35.4293 28.034 33.3985 28.3013C31.9634 28.4915 30.5648 28.1035 29.2457 27.5679C27.6397 26.915 26.3289 25.8476 25.393 24.3502C25.1338 23.9357 24.8578 23.5333 24.5904 23.1265C24.1272 23.4537 23.6905 23.7644 23.2513 24.0728C22.7209 24.4448 22.2563 24.8926 21.9314 25.4509C21.5066 26.1795 21.3204 26.9409 21.8565 27.7228C22.3869 28.4977 22.1421 29.5019 21.4917 30.025C21.0271 30.3985 20.4919 30.6152 19.9538 30.8627C19.9145 31.6826 19.9015 32.4706 19.9154 33.2605C20.404 33.5201 20.9051 33.688 21.4312 33.7425C22.1656 33.8178 22.899 33.8284 23.642 33.7604C24.7243 33.661 25.7563 33.9616 26.7268 34.4195C27.4295 34.751 27.7045 35.4044 27.4684 36.0245C27.3546 36.3232 27.2941 36.6296 27.2207 36.935C27.154 37.2125 27.1799 37.4678 27.394 37.6835C27.5183 37.808 27.6272 37.9479 27.7468 38.0777C27.8994 38.2437 28.0827 38.317 28.3151 38.3045C29.108 38.2649 29.9004 38.317 30.6958 38.2437C31.5237 38.1684 32.3609 38.2017 33.1941 38.2003C36.3413 38.194 39.4895 38.1925 42.6382 38.1872C42.7543 38.1872 42.8811 38.2205 43.0078 38.1182C43.0774 35.4039 42.9612 32.6712 43.1287 29.9386C42.6223 29.6785 42.1683 29.3759 41.7247 29.0546C40.9995 28.5281 40.7009 27.7947 40.6217 26.929C40.5651 26.3007 40.7581 25.7178 40.8838 25.1198C40.9769 24.673 40.8819 24.314 40.532 23.9666C39.9752 23.4174 39.3004 23.0507 38.6725 22.6105C37.641 21.8867 37.235 20.4951 38.2568 19.4513C38.8919 18.8023 39.6301 18.3014 40.3548 17.7726C40.7076 17.5139 41.0906 17.262 41.2418 16.8108C41.4261 16.2574 41.3623 15.7343 41.0431 15.2406C40.902 15.0235 40.7671 14.7972 40.6658 14.5598C40.3879 13.9069 40.3932 13.2766 40.9006 12.7203C41.3493 12.2271 41.8101 11.7421 42.257 11.246C42.5983 10.8663 42.8018 10.4247 42.7485 9.90064C42.677 9.19998 42.3909 8.6069 41.788 8.22382C41.1108 7.79484 40.5598 7.30168 40.3855 6.4572C40.2031 5.5722 40.3188 4.78223 40.901 4.07674C41.2879 3.60722 41.7266 3.20043 42.2373 2.86942C42.3203 2.81537 42.4293 2.77098 42.4615 2.64552C41.1506 2.60595 39.859 2.56879 38.5669 2.53019C37.8465 2.50799 37.1159 2.41486 36.4085 2.45733C35.1259 2.5355 33.8487 2.44188 32.5711 2.43175C31.5017 2.42258 30.4313 2.39315 29.3595 2.33814C28.041 2.26962 26.722 2.14319 25.3948 2.22281C24.1113 2.29905 22.825 2.11279 21.5381 2.22329C21.4488 2.23005 21.3557 2.2011 21.264 2.19434C20.8152 2.16297 20.3645 2.13209 19.9282 2.32994C19.9282 2.45299 19.9469 2.56784 19.9249 2.67448C19.8558 3.0031 20.0266 3.16185 20.2973 3.29021L20.2975 3.29053ZM24.3164 26.6121C24.4023 26.5498 24.4858 26.5831 24.5674 26.6362C24.7402 26.7496 24.6481 26.8895 24.625 27.0275C24.4268 27.098 24.3202 27.0275 24.2612 26.8842C24.2214 26.7891 24.218 26.6825 24.3164 26.6121ZM24.4839 30.8942C24.3538 31.1861 24.4494 31.5567 24.1527 31.8477C23.8571 31.2435 24.0812 30.3817 23.1515 30.1737C23.8446 29.9961 24.0212 29.4865 24.0865 28.9103C24.1974 28.864 24.2675 28.8563 24.3322 28.9074C24.4921 29.6477 24.6294 29.8571 25.1626 30.1645C24.9961 30.4627 24.6298 30.5694 24.4839 30.8942ZM26.9553 30.1134C26.6424 29.944 26.698 29.5184 26.3174 29.4166C26.5598 29.2448 26.6587 29.0335 26.8377 28.852C27.0619 29.0103 27.1377 29.2704 27.4507 29.3375C27.191 29.5845 26.8809 29.7172 26.9553 30.1134ZM32.9531 32.4035C32.8518 32.3944 32.7736 32.3432 32.7813 32.2318C32.789 32.1135 32.8686 32.0595 32.9627 32.0542C33.0923 32.0634 33.1533 32.1179 33.1499 32.2298C33.1437 32.3543 33.0746 32.4132 32.9531 32.4035ZM36.1728 34.7714C36.0538 34.7637 35.9568 34.7135 35.9621 34.5692C35.9684 34.4413 36.0552 34.395 36.1666 34.397C36.2909 34.3999 36.3778 34.4549 36.3701 34.6392C36.3682 34.7304 36.2856 34.7791 36.1728 34.7714ZM36.8366 31.0558C36.697 31.0722 36.6336 30.9776 36.624 30.856C36.6134 30.7219 36.6706 30.6244 36.8107 30.6042C36.9499 30.6042 37.0315 30.6698 37.0349 30.8015C37.0392 30.9333 36.9778 31.038 36.8366 31.0558ZM39.4837 32.4499C39.274 32.4919 39.1996 32.6284 39.1809 32.8248C39.1679 32.9508 39.1554 33.0979 38.9068 33.0478C38.9769 32.6762 38.8065 32.4562 38.3995 32.3669C38.6894 32.1145 38.8363 31.8404 39.1559 31.6923C39.1847 32.0339 39.4141 32.1618 39.6325 32.2685C39.6186 32.391 39.5529 32.4368 39.4837 32.4499ZM32.0009 20.9726C31.8564 21.0652 31.7407 21.1704 31.7537 21.3682C31.7633 21.512 31.6788 21.5391 31.5367 21.4802C31.5905 21.1598 31.3318 21.0276 31.1115 20.8336C31.2737 20.6497 31.4532 20.518 31.5699 20.3187C31.8622 20.3713 31.9303 20.6825 32.1574 20.7718C32.1487 20.8929 32.0695 20.9282 32.0009 20.9726ZM35.844 20.0118C35.3674 20.3018 35.0775 20.6965 35.0794 21.2755C35.0799 21.3127 35.0857 21.3523 35.0746 21.387C35.0377 21.5134 35.0607 21.7016 34.8759 21.7074C34.6777 21.7142 34.7046 21.5274 34.6796 21.3981C34.5706 20.8191 34.3556 20.3148 33.7835 20.0436C33.7124 20.0088 33.6592 19.9379 33.5641 19.8554C33.7801 19.7251 33.975 19.632 34.1387 19.5017C34.4118 19.2831 34.6009 19.0119 34.6311 18.6355C34.6441 18.4917 34.5865 18.2244 34.9042 18.2654C35.0689 18.5776 35.0204 18.9574 35.2815 19.2387C35.5287 19.5056 35.8603 19.6093 36.1575 19.7637C36.1066 19.9529 35.9473 19.9486 35.844 20.0118ZM36.2256 17.5325C36.3984 17.3443 36.5477 17.1837 36.7219 16.995C36.8707 17.1581 36.997 17.298 37.1424 17.4563C36.9403 17.6266 36.8218 17.8298 36.7853 18.128C36.4628 18.0151 36.4824 17.6459 36.2256 17.5325ZM37.0056 23.4084C36.8818 23.4036 36.7901 23.3418 36.7853 23.2091C36.781 23.0547 36.8693 22.9621 37.0219 22.9698C37.1318 22.9751 37.2394 23.0176 37.2504 23.1662C37.2144 23.2897 37.1722 23.4142 37.0056 23.4084ZM40.3371 10.2573C40.4403 10.2491 40.5023 10.3306 40.508 10.4372C40.5143 10.5342 40.4509 10.6095 40.341 10.6124C40.2239 10.6158 40.1456 10.5584 40.1485 10.4353C40.148 10.3345 40.2008 10.2635 40.3371 10.2573ZM37.8374 6.57157C38.0409 6.78824 38.1489 7.00925 38.4057 7.15883C38.0745 7.26741 38.0054 7.4831 38.0169 7.74561C37.749 7.8204 37.7678 7.62256 37.7428 7.48407C37.713 7.31373 37.5378 7.25485 37.4586 7.08066C37.6425 6.96919 37.7735 6.83215 37.8374 6.57157Z" fill="#253858"/>
<path fill-rule="evenodd" clip-rule="evenodd" d="M21.2056 17.635C21.8511 18.0312 22.3402 18.5798 22.7103 19.2419C23.2344 20.1843 23.0645 21.4688 22.3167 22.24C21.8199 22.7525 21.2027 23.0869 20.6041 23.4522C20.2455 23.6693 19.874 23.8652 19.898 24.3859C19.9124 24.7478 19.8726 25.1107 19.8769 25.4736C19.8884 26.6688 19.91 27.8645 19.9278 29.0603C19.9321 29.3286 19.8947 29.5983 19.9547 29.9154C20.1946 29.7832 20.3876 29.6413 20.5541 29.4734C20.9689 29.0574 21.0624 28.4248 20.7663 27.9948C20.5681 27.7082 20.449 27.3868 20.3002 27.078C19.9619 26.3764 20.2878 25.103 20.7649 24.6909C21.3154 24.2151 21.8784 23.7682 22.5379 23.4575C23.1677 23.1612 23.7792 22.8388 24.3388 22.3249C23.6673 20.552 23.7451 18.7227 24.1454 16.8601C23.7835 16.6082 23.4278 16.3588 23.0707 16.1132C22.5374 15.745 21.9869 15.3995 21.6297 14.8277C21.2309 14.1883 21.3499 13.3646 21.9009 12.8729C22.1083 12.6895 22.3799 12.5718 22.5215 12.3272C22.7083 12.0096 22.9833 11.7993 23.2852 11.614C24.1242 11.0991 25.052 10.81 25.9937 10.5678C26.6249 10.4052 27.1899 10.1195 27.7064 9.74409C28.7143 9.01158 28.7187 7.46938 27.7333 6.79279C26.8544 6.18817 25.8609 6.04148 24.8481 5.92615C23.6357 5.78862 22.4156 5.69838 21.2569 5.27229C20.8172 5.11064 20.3852 4.92582 19.9249 4.74149C19.9249 5.58498 19.8966 6.40385 19.9316 7.22077C20.0031 8.88511 19.8918 10.5493 19.9527 12.2147C20.0002 13.4683 19.9292 14.7253 19.911 15.9809C19.9105 16.1112 19.898 16.2444 19.9825 16.3573C20.3391 16.8316 20.6852 17.3166 21.2055 17.6351L21.2056 17.635ZM26.8478 7.18498C26.8938 7.62023 27.1684 7.79009 27.4967 7.98457C26.889 8.08687 27.0282 8.67895 26.7446 9.01818C26.6006 8.62056 26.615 8.16311 26.0116 8.00869C26.4446 7.83112 26.5137 7.4306 26.8478 7.18498ZM23.6895 6.79943C23.7432 6.58856 23.8844 6.55671 24.0797 6.6426C24.1032 6.85686 24.048 7.00211 23.8349 7.01079C23.7005 7.01658 23.6612 6.91041 23.6895 6.79943Z" fill="#253858"/>
<path fill-rule="evenodd" clip-rule="evenodd" d="M43.247 8.09961C43.2623 7.8289 43.1807 7.60548 43.0089 7.4115C42.8515 7.23152 42.7992 7.02981 42.8121 6.79384C42.8328 6.44014 42.923 6.11683 43.1471 5.8384C43.1937 5.78098 43.2475 5.72983 43.2475 5.64683C43.246 5.2492 43.247 4.85063 43.247 4.45156C43.2263 4.43564 43.2052 4.41971 43.1836 4.40379C42.8995 4.73191 42.4809 4.79995 42.1315 5.00263C41.4787 5.38047 41.0885 5.91513 41.2047 6.71083C41.2584 7.07467 41.2886 7.46215 41.6011 7.72032C41.9626 8.01853 42.2438 8.37271 42.504 8.76502C43.1472 9.72915 42.9528 10.8308 42.3235 11.5315C41.8661 12.0406 41.3391 12.486 40.9445 13.0569C40.7885 13.2822 40.7141 13.5114 40.6891 13.7778C40.6387 14.3361 40.9574 14.7482 41.2219 15.1801C41.484 15.6081 41.5166 16.0685 41.4552 16.5501C41.3424 17.4105 40.7856 17.9322 40.0632 18.2641C39.0697 18.7201 38.7496 20.1725 39.3581 21.0686C39.8275 21.7592 40.5178 22.1215 41.2344 22.4444C41.88 22.7334 42.5232 23.0129 43.0219 23.5388C43.0488 23.5678 43.0838 23.5784 43.1409 23.5451C43.139 22.8908 43.2427 22.2273 43.1721 21.5459C42.9821 21.46 42.7958 21.3813 42.6139 21.292C41.8171 20.8968 41.6775 19.6408 42.3811 19.0892C42.6466 18.8817 42.9542 18.7283 43.2542 18.5425C43.2355 17.6257 43.2907 16.7146 43.3022 15.8045C43.3344 13.235 43.0915 10.6683 43.247 8.09975L43.247 8.09961Z" fill="#253858"/>
<path fill-rule="evenodd" clip-rule="evenodd" d="M26.0481 38.3191C25.9166 38.0851 25.8892 37.8815 25.8921 37.6634C25.9027 37.1876 26.1508 36.8237 26.4076 36.456C26.698 36.0396 26.6821 35.7366 26.3668 35.3423C26.2204 35.1585 26.0466 35.0075 25.8388 34.896C24.8865 34.3859 23.8627 34.1012 22.7924 34.0259C21.8209 33.9574 20.8513 33.9265 19.9101 33.4121C19.9561 34.9018 19.9461 36.3233 19.8606 37.7434C19.8515 37.8882 19.9038 38.0358 19.9321 38.1811C19.9475 38.266 20.007 38.3007 20.0896 38.3099C20.5465 38.3558 21.0001 38.4253 21.4609 38.4088C22.404 38.3755 23.3476 38.3423 24.2908 38.3215C24.8639 38.308 25.4351 38.3191 26.0481 38.3191Z" fill="#253858"/>
<path fill-rule="evenodd" clip-rule="evenodd" d="M43.0283 23.8585C42.6347 23.4566 42.1907 23.126 41.6709 22.9103C40.8362 22.5629 40.0471 22.1383 39.3948 21.5018C38.9105 21.0285 38.6945 20.4397 38.8501 19.755C38.9091 19.4891 38.9945 19.23 39.0838 18.9124C38.7492 19.1392 38.5318 19.4042 38.3139 19.6652C37.605 20.5106 37.7859 21.6393 38.7041 22.2753C39.4035 22.7598 40.1177 23.225 40.7129 23.8455C41.0225 24.1684 41.1703 24.5375 41.1051 24.9829C41.0585 25.3038 40.9735 25.6198 40.9491 25.9422C40.9063 26.5072 40.9423 27.0684 41.4041 27.4815C41.8908 27.9158 42.4821 28.1489 43.1286 28.3356C43.1402 28.2666 43.1488 28.2314 43.1512 28.1952C43.2069 26.8485 43.2064 25.5007 43.1565 24.1529C43.1522 24.0351 43.1123 23.9444 43.0283 23.8585Z" fill="#253858"/>
<path fill-rule="evenodd" clip-rule="evenodd" d="M21.6995 22.4626C22.6484 21.8595 23.0358 20.5243 22.5817 19.5095C22.2774 18.8281 21.8325 18.2458 21.2032 17.8322C20.7875 17.5576 20.4333 17.2271 20.1496 16.8164C20.093 16.7363 20.0445 16.6437 19.8943 16.5824C19.828 18.9102 20.0056 21.2123 19.8516 23.5938C20.5207 23.1527 21.124 22.8294 21.6995 22.4626Z" fill="#253858"/>
<path fill-rule="evenodd" clip-rule="evenodd" d="M38.4094 40.5884C37.9409 40.3862 37.532 40.3447 37.1192 40.4258C36.5763 40.5315 36.1602 40.8649 35.8338 41.292C35.5914 41.6076 35.3101 41.7625 34.917 41.7431C34.5666 41.7258 34.2138 41.7446 33.863 41.7243C33.6916 41.7147 33.503 41.7388 33.311 41.6047C34.2758 41.2524 34.6468 40.489 34.892 39.579C34.7936 39.579 34.7567 39.5722 34.7221 39.5804C33.8701 39.7942 33.3474 40.3795 32.9938 41.1453C32.8258 41.5135 32.8363 41.5265 32.4413 41.4025C31.7813 41.1941 31.1357 40.9431 30.4532 40.8104C30.3471 40.7902 30.2084 40.8249 30.1359 40.6903C30.8943 40.5373 31.5907 39.841 31.5754 39.2421C30.6053 39.2928 29.9929 39.8593 29.5412 40.6802C28.7367 40.5508 27.9463 40.6531 27.0803 40.8519C27.3338 40.3829 27.6678 40.0224 27.5709 39.5027C26.908 39.6209 26.4045 40.0017 26.2265 40.5942C26.047 41.196 25.6755 41.5564 25.2157 41.8928C25.136 41.9507 25.0477 42.0231 25.1518 42.1736C25.495 42.0525 25.7672 41.7857 26.1022 41.6472C26.4358 41.5082 26.7492 41.2983 27.1183 41.2718C27.6165 42.0979 28.7968 42.8801 29.3306 42.7247C29.1079 41.9334 28.648 41.3514 27.882 41.0161C28.6332 40.8993 29.3733 40.823 30.101 41.0624C30.3347 42.1698 31.4766 42.648 32.0492 42.567C32.0703 42.0912 31.7665 41.7664 31.5097 41.3988C32.3252 41.7158 33.1556 41.9267 34.0095 42.0565C34.1064 42.6423 34.5168 42.9019 35.005 43.0365C35.2483 43.1036 35.5353 43.1079 35.7427 42.8546C35.4446 42.5805 35.159 42.3204 34.7837 42.0825C36.1295 41.8765 37.4341 41.7216 38.4095 40.5885L38.4094 40.5884ZM37.7628 40.7839C37.2723 41.2645 36.6699 41.4329 36.0272 41.5636C36.3133 40.9238 37.1096 40.5638 37.7628 40.7839ZM26.2682 41.1467C26.26 40.7028 26.8461 39.9679 27.303 39.8492C27.2958 40.2617 26.7319 40.9682 26.2682 41.1467ZM28.9168 42.467C28.2904 42.2118 27.8075 41.846 27.4206 41.2742C27.9577 41.1941 28.7242 41.916 28.9168 42.467ZM30.015 40.4249C30.1499 40.0625 30.8137 39.594 31.2639 39.5448C31.1165 40.0003 30.4517 40.4679 30.015 40.4249ZM31.7131 42.3164C31.1991 42.2465 30.6058 41.7306 30.5376 41.3113C30.9912 41.32 31.5365 41.7774 31.7131 42.3164ZM34.461 39.9592C34.4178 40.4741 33.669 41.2945 33.0839 41.4286C33.4502 40.7994 33.7564 40.2044 34.461 39.9592ZM35.2832 42.744C34.939 42.8844 34.4307 42.5959 34.2925 42.163C34.6885 42.2383 35.0163 42.4347 35.2832 42.744Z" fill="#253858"/>
<path fill-rule="evenodd" clip-rule="evenodd" d="M20.1562 29.9771C19.9244 30.1098 19.92 30.2647 19.9944 30.4842C20.5027 30.3216 20.9453 30.0823 21.3259 29.7295C21.9086 29.1886 22.0449 28.3914 21.5779 27.7444C21.0912 27.0707 21.1767 26.4101 21.467 25.72C21.8208 24.8795 22.4904 24.326 23.2027 23.814C23.5406 23.5703 23.8852 23.3367 24.2197 23.0863C24.3541 22.9854 24.4986 22.8662 24.3882 22.6254C23.9394 23.0206 23.4522 23.3198 22.9262 23.5495C22.3522 23.7995 21.8343 24.1368 21.3475 24.5238C21.0312 24.7757 20.7365 25.0391 20.5704 25.444C20.1927 26.3632 20.4941 27.1666 20.9213 27.9571C21.132 28.348 21.2026 28.7234 20.9909 29.1456C20.798 29.5239 20.5013 29.7778 20.1562 29.9771Z" fill="#253858"/>
<path fill-rule="evenodd" clip-rule="evenodd" d="M41.1102 4.13548C40.5918 4.76521 40.3331 5.47938 40.539 6.28567C40.6657 6.77739 40.828 7.28068 41.2758 7.61166C41.2201 7.39837 41.1563 7.1875 41.1111 6.9718C40.9158 6.03663 41.2067 5.31574 42.0337 4.81679C42.2309 4.69761 42.4522 4.62185 42.6601 4.5181C43.0397 4.327 43.3445 4.09683 43.2615 3.58678C43.2235 3.36191 43.2379 3.12402 43.2864 2.89239C43.3263 2.7013 43.2259 2.61976 43.0392 2.62796C42.9015 2.63472 42.7935 2.70807 42.6865 2.77949C42.1028 3.16456 41.557 3.59256 41.1102 4.13548Z" fill="#253858"/>
<path fill-rule="evenodd" clip-rule="evenodd" d="M19.9375 4.36772C20.7823 4.75568 21.6351 5.07175 22.538 5.24885C23.8056 5.49639 25.1108 5.47516 26.3784 5.7753C24.2967 4.81938 21.9606 4.54336 19.938 3.33938C19.9375 3.71529 19.9375 4.03573 19.9375 4.36772Z" fill="#253858"/>
<path fill-rule="evenodd" clip-rule="evenodd" d="M26.8455 34.8442C26.0478 34.2989 25.1177 34.1295 24.1763 34.0108C24.2368 34.0311 24.2949 34.0543 24.3558 34.0702C24.9337 34.2154 25.4824 34.436 25.9907 34.7472C26.7875 35.2336 26.9459 35.9821 26.427 36.7508C26.3636 36.8429 26.2988 36.9332 26.2398 37.0268C26.0843 37.2681 26.0109 37.532 26.0224 37.8187C26.0329 38.0773 26.1808 38.2684 26.4116 38.2944C26.7702 38.3359 27.1369 38.3055 27.5319 38.3055C27.3481 38.0011 27.0783 37.8138 26.9761 37.5002C26.8033 36.9689 26.9905 36.4936 27.17 36.0153C27.3572 35.5178 27.2809 35.1415 26.8455 34.8442Z" fill="#253858"/>
<path fill-rule="evenodd" clip-rule="evenodd" d="M23.0794 15.0915C22.3954 14.5298 22.0974 13.8026 22.1132 12.8723C21.999 13.0768 21.7945 13.1478 21.7177 13.3606C21.4815 14.0178 21.6236 14.5776 22.0959 15.0713C22.7002 15.7034 23.4999 16.0513 24.178 16.5754C24.3076 16.4128 24.2625 16.2897 24.1872 16.1633C23.914 15.7049 23.4773 15.4177 23.0794 15.0915Z" fill="#253858"/>
<path fill-rule="evenodd" clip-rule="evenodd" d="M42.2701 20.1934C42.2855 20.7343 42.5864 21.1049 43.2133 21.3105C43.269 20.4983 43.2368 19.7147 43.2512 18.917C42.5605 19.1945 42.2538 19.6042 42.2701 20.1934Z" fill="#253858"/>
<path fill-rule="evenodd" clip-rule="evenodd" d="M41.05 27.3977C41.2117 28.163 42.3905 29.2902 43.1331 29.4191C43.1566 29.1706 43.1888 28.9245 43.1216 28.6658C42.3545 28.3917 41.599 28.0989 41.05 27.3977Z" fill="#253858"/>
<path fill-rule="evenodd" clip-rule="evenodd" d="M40.1431 40.8602C39.9468 40.8694 39.7587 41.0769 39.7683 41.2733C39.7798 41.4948 39.9939 41.7056 40.2031 41.7022C40.4206 41.6989 40.6169 41.5044 40.614 41.2926C40.6097 41.087 40.3524 40.851 40.1431 40.8602ZM40.1983 41.4682C40.0764 41.4774 39.967 41.4528 39.9665 41.3017C39.9651 41.1666 40.0524 41.1039 40.1791 41.0957C40.3059 41.0865 40.3947 41.1328 40.4239 41.2742C40.4004 41.3944 40.3222 41.4586 40.1983 41.4682Z" fill="#253858"/>
<path fill-rule="evenodd" clip-rule="evenodd" d="M22.9909 40.9899C22.7941 40.9904 22.5911 41.193 22.5978 41.3808C22.607 41.5878 22.7942 41.7697 23.0106 41.7654C23.2151 41.7465 23.3735 41.6471 23.3884 41.4141C23.4023 41.2022 23.1877 40.9894 22.9909 40.9899ZM22.9905 41.5501C22.8815 41.5405 22.811 41.4913 22.8162 41.3759C22.8215 41.2736 22.8681 41.1984 22.9857 41.1984C23.0874 41.1979 23.1772 41.2297 23.1748 41.3479C23.1738 41.4609 23.1037 41.5323 22.9905 41.5501Z" fill="#253858"/>
<path fill-rule="evenodd" clip-rule="evenodd" d="M43.2187 7.46095V6.09827C42.8952 6.63149 42.8995 7.07012 43.2187 7.46095Z" fill="#253858"/>
<path fill-rule="evenodd" clip-rule="evenodd" d="M19.8269 13.2608H19.8365V12.6359H19.8269V13.2608Z" fill="#253858"/>
<path fill-rule="evenodd" clip-rule="evenodd" d="M43.3391 10.0539H43.3219V10.4293C43.3271 10.4259 43.3343 10.4226 43.3391 10.4187V10.0539Z" fill="#253858"/>
<path fill-rule="evenodd" clip-rule="evenodd" d="M58.1432 13.7734C57.8418 13.9283 57.7798 14.1049 57.9954 14.3626C58.0602 14.4403 58.135 14.5074 58.2075 14.5778C58.4293 14.7935 58.4072 15.1463 58.1571 15.3234C57.7165 15.6356 57.2164 15.61 56.735 15.5135C55.7419 15.3142 54.7526 15.0951 53.7725 14.8336C53.0809 14.6497 52.3729 14.5141 51.6741 14.8987C51.2023 15.1583 51.1456 15.4575 51.4139 15.8677C51.8949 16.606 52.6835 16.9409 53.4011 17.363C54.2146 17.8412 54.9639 18.3585 55.2447 19.3511C55.3959 19.8858 55.1857 20.4485 54.7143 20.7317C54.3145 20.9716 53.8873 21.0222 53.4496 21.041C52.8736 21.0671 52.2942 21.055 51.8512 21.5212C51.8435 21.5289 51.8032 21.5048 51.761 21.4888C51.8133 21.36 51.8565 21.2442 51.964 21.1429C52.335 20.7969 52.8035 20.8051 53.2547 20.7679C53.6132 20.738 53.977 20.7901 54.3308 20.6598C54.6557 20.5416 55.1511 20.0866 55.1213 19.8477C55.0772 19.4776 55.0052 19.1089 54.7704 18.7953C54.1993 18.0329 53.4059 17.587 52.5788 17.202C52.0201 17.5706 51.4763 17.9292 50.9334 18.2882C50.1674 18.7953 49.4018 19.3025 48.6367 19.8106C48.5436 19.8723 48.415 19.9515 48.4716 20.0692C48.6339 20.4104 48.7347 20.7887 49.1479 20.9653C50.2605 21.4406 51.4216 21.7745 52.563 22.163C53.1236 22.3541 53.6886 22.5312 54.2261 22.7594C54.2352 22.8709 54.2213 22.9481 54.1532 23.0128C53.9876 23.0239 53.8234 22.9409 53.6453 22.9915C54.0495 23.4731 54.5424 23.807 55.0416 24.1419C55.4894 24.4435 55.8686 24.8339 56.1235 25.3213C56.2535 25.5669 56.3572 25.8274 56.493 26.129C56.5386 25.9809 56.5751 25.8878 56.5977 25.7903C56.9783 24.1279 57.4329 22.4843 57.8543 20.8321C58.0353 20.1286 58.4255 19.4313 58.0929 18.6626C58.0766 18.624 58.0886 18.5714 58.0948 18.5256C58.1394 18.1521 58.331 17.8317 58.5863 17.5933C58.8676 17.3318 59.002 17.0302 59.0879 16.6277C58.7788 16.842 58.4802 17.0022 58.186 17.1653C57.6259 17.4775 57.5539 17.8037 57.6148 18.4229C57.6595 18.8726 57.7799 19.3305 57.6719 19.7899C57.7343 20.2068 57.4464 20.4278 57.1747 20.6358C56.7619 20.9528 56.2555 21.086 55.7866 21.2887C55.2576 21.5183 54.6912 21.6062 54.1268 21.7036C53.954 21.734 53.7682 21.7934 53.6333 21.9218C53.5345 22.0158 53.4409 22.0004 53.3084 21.9811C53.4101 21.6284 53.6626 21.499 53.976 21.4517C55.0214 21.294 56.0093 20.9465 56.9832 20.5484C57.3336 20.4046 57.5544 20.1445 57.6326 19.7672C57.575 19.317 57.5452 18.8595 57.4497 18.4175C57.2995 17.7255 57.634 17.1127 58.2926 16.8381C58.6502 16.6895 58.9722 16.4695 59.1825 16.0974C59.3533 15.7973 59.3874 15.472 59.47 15.156C59.6101 14.6165 59.7176 14.0683 59.8362 13.5384C59.7632 13.4714 59.7047 13.4617 59.6346 13.4665C59.1239 13.4989 58.616 13.5312 58.1432 13.7734ZM52.2006 18.707C52.502 18.6404 52.4751 18.9459 52.573 19.1138C52.4669 19.3739 52.2577 19.4222 52.0158 19.3739C51.8905 19.3498 51.7916 19.2682 51.8156 19.124C51.853 18.9078 52.0095 18.7485 52.2006 18.707ZM52.9306 21.829C53.0036 21.732 53.0799 21.6297 53.234 21.6915C53.1696 21.8228 53.0333 21.7919 52.9306 21.829Z" fill="#253858"/>
<path fill-rule="evenodd" clip-rule="evenodd" d="M54.108 26.171C53.2704 25.6813 52.6609 25.0178 52.3277 24.0889C52.1626 23.6295 52.1425 23.1779 52.2385 22.6964C52.0278 22.6529 51.8449 22.6177 51.6183 22.6626C51.6183 22.9912 51.6135 23.3106 51.6188 23.6306C51.6298 24.213 51.1143 24.9706 50.4798 25.1525C50.0257 25.2818 49.5626 25.2384 49.1075 25.3083C48.9549 25.331 48.9011 25.1887 48.8287 25.0979C48.8656 25.0092 48.9285 24.9879 48.9919 24.9845C49.3096 24.972 49.6298 24.9826 49.9456 24.9508C50.3041 24.9136 50.6555 24.874 50.9535 24.598C51.3898 24.1946 51.387 23.6788 51.3951 23.1625C51.3985 22.9627 51.4177 22.746 51.3078 22.5622C50.978 22.5178 50.6598 22.4806 50.3416 22.4285C50.0147 22.374 49.6907 22.3055 49.3643 22.2432C48.6131 22.0994 47.7775 22.4184 47.4315 22.983C48.0795 24.6742 49.0951 26.2021 49.6533 27.9382C49.0265 27.2057 48.571 26.3656 48.0421 25.5804C47.8693 25.5631 47.7358 25.6408 47.6058 25.7291C46.857 26.2401 47.072 27.3258 47.6581 27.8339C48.4265 28.4994 49.3788 28.8289 50.3004 29.1889C51.1749 29.5325 52.1186 29.6884 52.9931 30.0493C53.3727 30.2071 53.7707 30.3239 54.1518 30.4788C54.5281 30.6308 54.8305 30.8822 55.0162 31.2446C55.0508 31.232 55.0628 31.2316 55.0642 31.2267C55.3925 30.0701 55.7199 28.9115 56.0477 27.7539C56.0808 27.641 56.0242 27.5541 55.9464 27.488C55.3719 26.9948 54.7594 26.5524 54.1081 26.1712L54.108 26.171ZM53.0165 26.5281C52.8115 26.5802 52.5845 26.6044 52.5327 26.3298C52.4803 26.0523 52.6829 25.9756 52.9267 25.9886C53.1413 26.1455 53.1753 26.3177 53.0165 26.5281Z" fill="#253858"/>
<path fill-rule="evenodd" clip-rule="evenodd" d="M51.7696 35.2766C51.6156 35.6361 51.6717 35.9975 51.9741 36.2894C52.072 36.384 52.1579 36.4902 52.2506 36.5896C52.541 36.9027 52.8602 37.1768 53.2806 37.3534C53.5965 36.4617 53.8897 35.581 54.1753 34.5996C53.594 34.8529 53.0569 34.8577 52.5275 34.8968C52.2156 34.9195 51.9021 34.9687 51.7696 35.2766Z" fill="#253858"/>
<path fill-rule="evenodd" clip-rule="evenodd" d="M54.9988 24.3465C54.4516 23.9918 53.8862 23.654 53.4898 23.1324C53.2296 22.7888 52.8903 22.8757 52.5413 22.77C52.6128 23.0735 52.6853 23.3192 52.824 23.5363C53.1941 24.1125 53.7528 24.4777 54.2995 24.857C54.8213 25.2194 55.3401 25.5818 55.7765 26.0566C55.9651 26.2607 56.0971 26.5213 56.3261 26.6791C56.5137 26.377 56.3606 26.1241 56.2512 25.8602C55.9872 25.2252 55.5691 24.7161 54.999 24.3464L54.9988 24.3465Z" fill="#253858"/>
<path fill-rule="evenodd" clip-rule="evenodd" d="M54.5589 30.9567C53.8053 30.4799 52.9462 30.2584 52.109 30.0031C51.0089 29.6668 49.9016 29.359 48.8768 28.8204C48.5917 28.6708 48.3099 28.5155 47.9562 28.3244C48.4525 29.0424 49.1211 29.3836 49.7988 29.7161C50.5356 30.078 51.3381 30.2372 52.1143 30.4756C53.0886 30.7738 54.073 31.0358 54.9548 31.6989C54.9797 31.322 54.7959 31.1072 54.5588 30.9567L54.5589 30.9567Z" fill="#253858"/>
<path fill-rule="evenodd" clip-rule="evenodd" d="M53.6939 24.7467C53.2667 24.4495 52.875 24.1069 52.5645 23.6764C52.4661 23.5404 52.493 23.3348 52.2664 23.1963C52.4392 23.9698 52.6777 24.642 53.188 25.1888C53.5959 25.6274 54.1258 25.8957 54.6207 26.2151C55.1458 26.5539 55.6488 26.9278 56.1533 27.337C56.1428 27.2174 56.2517 27.1426 56.2306 27.0272C56.1528 26.9105 56.0746 26.7836 55.9863 26.6653C55.3757 25.8402 54.5155 25.3181 53.6939 24.7467Z" fill="#253858"/>
<path fill-rule="evenodd" clip-rule="evenodd" d="M48.1853 45.1134C47.9727 45.1259 47.8263 45.2311 47.8124 45.4647C47.7951 45.7484 47.9612 45.9366 48.2334 45.9496C48.4791 45.953 48.5948 45.7962 48.6255 45.5795C48.6557 45.374 48.3937 45.1008 48.1853 45.1134ZM48.2583 45.733C48.1647 45.7296 48.0409 45.7441 47.9881 45.5993C47.9502 45.4951 47.9948 45.4328 48.0596 45.3889C48.194 45.2968 48.3178 45.3426 48.4378 45.4719C48.4321 45.6065 48.4129 45.7373 48.2583 45.733Z" fill="#253858"/>
<path fill-rule="evenodd" clip-rule="evenodd" d="M3.97717 11.3188C4.8805 11.4448 5.2799 12.3751 4.90257 13.0406C4.75378 13.3036 4.84065 13.5714 5.03073 13.805C5.20064 14.0139 5.4056 13.9936 5.64319 13.9628C6.03005 13.9107 6.40348 13.791 6.79659 13.7654C7.15993 13.7418 7.51176 13.8402 7.86791 13.8416C7.82376 13.542 7.63272 13.3316 7.48585 13.1033C7.1681 12.6054 6.77835 12.2 6.15584 12.0774C6.03248 12.0524 5.78145 12.1025 5.74929 11.8352C5.82417 11.8275 5.88896 11.8304 5.94897 11.814C6.56143 11.6461 7.12205 11.744 7.639 12.1185C8.23129 12.5489 8.57064 13.1806 8.95463 13.7765C9.2239 14.1944 9.54549 14.5133 10.0946 14.44C10.1512 14.4333 10.1997 14.4419 10.2535 14.4453C10.7118 14.4752 11.2432 15.0919 11.3137 15.5991C11.4117 16.2867 12.1835 16.7398 12.8089 16.5212C12.8012 16.5072 12.7959 16.4898 12.7839 16.4841C12.7364 16.4566 12.6841 16.4358 12.639 16.4064C12.0932 16.0628 11.499 15.7699 11.3564 15.0389C11.2988 14.7416 11.2028 14.4521 11.1385 14.1563C11.1097 14.0207 11.0497 13.9092 10.9484 13.8296C10.6278 13.5787 10.3153 13.3138 9.95341 13.1208C9.24831 12.7463 8.93488 12.1537 8.93729 11.3561C8.93777 11.0212 8.94641 10.6863 8.96128 10.3524C8.96464 10.2699 8.84993 10.1541 9.01696 10.0783C9.184 10.5797 9.34575 11.0767 9.51854 11.5698C9.64718 11.9322 9.78205 12.297 10.2371 12.3964C10.0321 11.8608 10.1675 11.3406 10.25 10.8093C10.3086 10.4233 10.4257 10.0223 10.1483 9.64011C9.63231 8.92884 8.93585 8.76863 8.11506 8.86659C7.80596 8.90375 7.47525 8.98578 7.17285 8.80434C6.48407 8.39273 6.15577 7.70655 5.78239 6.97743C5.41376 7.06719 5.02066 7.15308 4.63235 7.25973C4.20853 7.37602 3.79718 7.54684 3.36759 7.62791C2.95001 7.70609 2.55162 7.80162 2.17147 7.99947C1.99675 8.09067 1.97036 8.20504 2.01259 8.358C2.24634 9.20148 2.37641 10.071 2.66489 10.9C2.71097 11.0322 2.76377 11.0964 2.90488 11.1186C3.26295 11.177 3.6167 11.2687 3.97717 11.3188Z" fill="#253858"/>
<path fill-rule="evenodd" clip-rule="evenodd" d="M4.40723 16.0439C5.06001 16.4049 5.68453 16.195 6.27863 15.9812C6.89781 15.7592 7.40179 15.8842 7.91484 16.2201C7.89084 16.4493 7.88892 16.6683 7.84188 16.8778C7.80684 17.036 7.86684 17.1383 7.94364 17.2561C8.16587 17.5924 8.51962 17.6059 8.86281 17.6455C9.39559 17.7063 9.89718 17.535 10.3959 17.4018C10.8572 17.2802 11.293 17.0592 11.7768 16.8662C11.3837 16.7127 11.0487 16.7229 10.6992 16.8387C10.2341 16.9931 9.75225 17.0727 9.27131 16.9029C8.82349 16.746 8.67613 16.3474 8.88397 15.9233C8.99965 15.6854 9.20268 15.4962 9.27564 15.2024C8.93005 15.2419 8.70734 15.1063 8.4995 14.8752C8.34208 14.7 8.22495 14.5143 8.12368 14.3077C8.044 14.1461 7.95664 14.0225 7.72481 14.0032C7.07876 13.9502 6.4485 14.0061 5.82073 14.1519C5.46363 14.2349 5.10556 14.1823 4.831 13.9685C4.51229 13.7195 4.4283 13.4387 4.7043 12.9112C4.87229 12.5903 4.69133 11.8868 4.3755 11.7391C3.88881 11.5128 3.3565 11.4839 2.83759 11.3912C2.84815 11.48 2.84815 11.5456 2.86351 11.6069C3.16638 12.8094 3.47454 14.01 3.77307 15.2129C3.86715 15.5888 4.05098 15.847 4.40714 16.0439L4.40723 16.0439Z" fill="#253858"/>
<path fill-rule="evenodd" clip-rule="evenodd" d="M7.44472 26.1945C7.91462 26.2905 8.34901 26.4479 8.71624 26.7803C9.51925 27.509 10.0779 28.421 10.5997 29.3489C11.107 30.2489 11.5961 31.1358 12.5536 31.6434C13.1935 31.9836 13.8549 32.1998 14.6607 32.1525C14.3881 31.9469 14.1116 31.9117 13.8721 31.7988C13.095 31.4335 12.4029 30.9756 12.0136 30.1736C11.6579 29.4459 11.334 28.7038 10.9802 27.9756C10.722 27.4443 10.3917 26.9589 9.95544 26.5555C9.00987 25.6797 7.86077 25.2372 6.57353 24.9809C6.63497 25.2357 6.71177 25.463 6.73865 25.697C6.77225 25.9904 6.90521 26.1439 7.20087 26.1545C7.28295 26.1579 7.36312 26.1786 7.44472 26.1945Z" fill="#253858"/>
<path fill-rule="evenodd" clip-rule="evenodd" d="M8.2643 8.70368C9.18635 8.50439 9.90874 8.85569 10.4847 9.58288C10.501 9.55875 10.5197 9.53945 10.5293 9.51629C10.5403 9.4912 10.5552 9.46176 10.5514 9.43763C10.4655 9.02264 10.2931 8.65639 9.95428 8.38761C9.58901 8.09615 9.1335 8.18832 8.71827 8.10678C8.09573 7.98518 7.3186 7.58081 7.28173 6.81019C7.27885 6.75904 7.24189 6.70934 7.2059 6.62248C6.81711 6.72575 6.424 6.82853 6.02994 6.93228C6.06162 7.24159 6.23825 7.44956 6.38033 7.66961C6.82047 8.35387 7.33122 8.9049 8.2643 8.70368Z" fill="#253858"/>
<path fill-rule="evenodd" clip-rule="evenodd" d="M9.85185 15.0903C9.73138 15.1737 9.5485 15.1414 9.46499 15.2751C9.30948 15.5221 9.18708 15.789 9.03541 16.0394C8.94805 16.1842 8.99461 16.3135 9.06517 16.4259C9.38915 16.9505 10.3793 17.0195 10.8032 16.5393C10.5397 16.329 10.4663 16.0433 10.3967 15.7557C10.3242 15.4478 10.124 15.2476 9.85185 15.0903Z" fill="#253858"/>
<path fill-rule="evenodd" clip-rule="evenodd" d="M5.48977 20.2576C5.58528 19.9256 5.73264 19.6047 5.74705 19.251C5.75808 18.9687 5.73409 18.6628 5.5373 18.4722C5.25506 18.1981 4.89508 18.0094 4.59173 17.7382C4.8754 18.6107 5.065 19.4966 5.33138 20.4C5.3981 20.3416 5.47393 20.3087 5.48977 20.2576Z" fill="#253858"/>
<path fill-rule="evenodd" clip-rule="evenodd" d="M15.0212 44.6452C14.8451 44.6404 14.6243 44.8474 14.6137 45.0254C14.6041 45.1958 14.8158 45.424 14.9929 45.4366C15.1964 45.451 15.4244 45.2561 15.4345 45.0602C15.4417 44.9034 15.1897 44.65 15.0212 44.6452ZM15.1931 45.0853C15.1388 45.1683 15.0611 45.2069 14.9507 45.2228C14.8715 45.1442 14.8091 45.078 14.8369 44.9719C14.8926 44.8653 15.0015 44.8773 15.0755 44.8377C15.182 44.9053 15.2079 44.9864 15.1931 45.0853Z" fill="#253858"/>
<path fill-rule="evenodd" clip-rule="evenodd" d="M6.54896 25.4879C6.55184 25.486 6.55376 25.485 6.55568 25.4836C6.54032 25.4566 6.52448 25.4305 6.49664 25.3832C6.52112 25.4324 6.53504 25.4604 6.54896 25.4879Z" fill="#253858"/>
</svg>
