<svg width="111" height="111" viewBox="0 0 111 111" fill="none" xmlns="http://www.w3.org/2000/svg">
<path d="M67.9562 65.9011C67.7657 66.012 67.5737 66.1165 67.3792 66.2169C65.8091 67.0253 64.0975 67.4946 62.2853 67.4946C59.0807 67.4946 56.1847 66.0337 54.0921 63.6712C52.0278 61.3392 50.7501 58.129 50.7501 54.5924C50.7501 51.0543 52.0278 47.8439 54.0921 45.5136C56.1838 43.1512 59.0799 41.6902 62.2853 41.6902C62.7289 41.6902 63.1492 41.7095 63.555 41.7505C63.1082 41.4813 62.6445 41.2402 62.168 41.0257C60.3632 40.2189 58.331 39.8058 56.0867 39.8058C51.7089 39.8058 47.7464 41.5801 44.8769 44.4496C42.0082 47.3183 40.2348 51.2808 40.2348 55.6586C40.2348 60.0364 42.009 63.9989 44.8769 66.8676C47.7464 69.7371 51.7097 71.5113 56.0867 71.5113C59.3499 71.5113 62.3811 70.5262 64.8497 68.8113C66.0237 67.9965 67.0708 67.0178 67.9564 65.9023L67.9562 65.9011ZM31.5262 60.08L31.2836 58.2141L33.1511 57.9714L33.3937 59.8389L31.5262 60.08ZM24.0586 61.0499L23.8159 59.1824L25.6834 58.9405L25.9253 60.808L24.0586 61.0499ZM27.7919 60.5646L27.5492 58.6987L29.4167 58.456L29.6586 60.3219L27.7919 60.5646ZM79.6175 58.2132L79.3748 60.0791L77.5089 59.8372L77.7508 57.9698L79.6183 58.2124L79.6175 58.2132ZM87.0852 59.1823L86.8433 61.0498L84.9758 60.808L85.2185 58.9405L87.0852 59.1823ZM83.3518 58.6986L83.1092 60.5645L81.2433 60.3218L81.486 58.4559L83.3518 58.6986ZM11.4485 62.8908L11.1793 61.0265L13.042 60.7581L13.3112 62.6208L11.4485 62.8908ZM0.269198 64.5068L0 62.6425L1.86268 62.3741L2.13188 64.2368L0.269198 64.5068ZM3.99448 63.9676L3.72608 62.1049L5.58876 61.8357L5.85796 63.6984L3.99448 63.9676ZM7.7214 63.4284L7.45221 61.5657L9.31649 61.2965L9.58569 63.1608L7.7214 63.4284ZM99.3342 60.4842L99.0915 62.3501L97.2256 62.1075L97.4675 60.2416L99.3342 60.4842ZM110.535 61.9379L110.293 63.8054L108.426 63.5627L108.668 61.6968L110.534 61.9387L110.535 61.9379ZM106.802 61.4525L106.56 63.32L104.692 63.0774L104.935 61.2115L106.801 61.4533L106.802 61.4525ZM103.069 60.9672L102.826 62.8347L100.96 62.592L101.202 60.7261L103.069 60.968L103.069 60.9672ZM62.3371 33.9589C62.2093 34.462 61.6975 34.7673 61.1928 34.6396C60.6898 34.5118 60.3852 33.9991 60.513 33.4953L68.4178 2.47357C68.5471 1.96893 69.0582 1.66517 69.5621 1.79294C70.0651 1.92071 70.3705 2.43339 70.2427 2.93723L62.3371 33.9589ZM67.2944 31.2863C67.0919 31.7636 66.5398 31.9854 66.0625 31.7829C65.5852 31.5804 65.3634 31.0284 65.5659 30.551L73.0214 13.1054C73.2255 12.6281 73.776 12.4063 74.2541 12.6088C74.7314 12.8113 74.9532 13.3634 74.7507 13.8407L67.2944 31.2863ZM67.9019 38.2292C67.644 38.68 67.0694 38.8367 66.6186 38.5779C66.167 38.32 66.0111 37.7454 66.2699 37.2946L72.279 26.8128C72.5369 26.362 73.1115 26.2053 73.5623 26.4641C74.0139 26.722 74.1698 27.2966 73.9126 27.7474L67.9019 38.2292ZM79.0049 18.863C78.747 19.3138 78.1732 19.4705 77.7216 19.2118C77.2708 18.9538 77.1141 18.3793 77.3729 17.9285L83.2092 7.75033C83.4663 7.29952 84.0409 7.14283 84.4925 7.40158C84.9433 7.65952 85.0984 8.23328 84.8412 8.68489L79.0049 18.863ZM71.0816 40.4095C70.7361 40.7952 70.1439 40.829 69.7581 40.4835C69.3724 40.1387 69.3403 39.5457 69.6842 39.16L89.6233 16.8832C89.9688 16.4975 90.5618 16.4637 90.9484 16.8092C91.3333 17.1548 91.3662 17.747 91.0207 18.1327L71.0816 40.4095ZM75.784 45.4061C75.3349 45.6665 74.7611 45.513 74.5007 45.0638C74.2404 44.6154 74.3939 44.0408 74.8431 43.7813L102.555 27.7524C103.003 27.4921 103.578 27.6456 103.838 28.0948C104.098 28.5432 103.944 29.1177 103.496 29.3773L75.784 45.4061ZM81.1583 47.0848C80.6754 47.2712 80.1322 47.0318 79.945 46.548C79.7585 46.0642 79.998 45.5218 80.4817 45.3346L98.1691 38.473C98.6528 38.2866 99.1968 38.5269 99.3832 39.0098C99.5697 39.4936 99.3294 40.036 98.8465 40.2232L81.1583 47.0848ZM76.6182 52.3698C76.1168 52.4992 75.6057 52.1978 75.4755 51.6972C75.3454 51.195 75.6459 50.6831 76.1481 50.5529L87.844 47.5242C88.3462 47.394 88.8581 47.6962 88.9883 48.1968C89.1185 48.6982 88.8179 49.2109 88.3157 49.3411L76.6182 52.3698ZM98.2285 46.7738C97.7271 46.9039 97.2144 46.6034 97.0858 46.102C96.9557 45.5997 97.2562 45.0879 97.7576 44.9577L109.115 42.0166C109.618 41.8864 110.129 42.1886 110.26 42.6892C110.39 43.1914 110.089 43.7033 109.587 43.8335L98.2285 46.7738ZM77.2806 56.1716C76.7623 56.1933 76.3244 55.7923 76.3027 55.274C76.281 54.7565 76.682 54.3178 77.2003 54.2961L107.068 52.9862C107.585 52.9629 108.023 53.3655 108.046 53.8822C108.068 54.4005 107.667 54.8385 107.148 54.8602L77.2806 56.1716ZM76.8178 63.5275C76.3228 63.3765 76.0423 62.8533 76.1926 62.3583C76.3436 61.8633 76.8668 61.5829 77.3618 61.7332L107.984 71.0691C108.479 71.2202 108.76 71.7433 108.61 72.2383C108.46 72.7333 107.935 73.0137 107.44 72.8635L76.8178 63.5275ZM79.2551 68.6054C78.7882 68.3796 78.5929 67.8187 78.8171 67.3518C79.0429 66.8841 79.6038 66.688 80.0715 66.9139L97.1522 75.1714C97.619 75.3965 97.8143 75.9581 97.5901 76.425C97.3643 76.8927 96.8034 77.0888 96.3357 76.863L79.2551 68.6054ZM72.2921 68.8866C71.8557 68.6094 71.7279 68.0292 72.0052 67.5929C72.284 67.1565 72.8634 67.0272 73.2997 67.306L83.4914 73.7949C83.9278 74.0737 84.0572 74.6531 83.7783 75.0894C83.5011 75.5258 82.9201 75.6535 82.4838 75.3755L72.2921 68.8866ZM91.1229 80.8767C90.6866 80.5994 90.5588 80.0185 90.8361 79.5821C91.1149 79.1458 91.6943 79.018 92.1306 79.2961L102.027 85.5961C102.463 85.8749 102.592 86.4543 102.313 86.8906C102.036 87.327 101.456 87.4547 101.02 87.1775L91.1229 80.8767ZM69.9632 71.966C69.5935 71.602 69.5887 71.0073 69.9519 70.6385C70.3159 70.2688 70.9106 70.2632 71.2802 70.6272L92.6066 91.5792C92.9763 91.9424 92.9819 92.5363 92.6179 92.9067C92.2546 93.2764 91.6608 93.2812 91.2904 92.9172L69.9619 71.9672L69.9632 71.966ZM65.2044 76.2224C64.9569 75.7676 65.124 75.1987 65.5788 74.9504C66.0336 74.7029 66.6042 74.8708 66.8517 75.3248L82.1895 103.423C82.437 103.878 82.2691 104.449 81.8143 104.696C81.3595 104.944 80.7905 104.776 80.5422 104.321L65.2044 76.2224ZM63.3931 81.5549C63.2179 81.068 63.4727 80.5312 63.9596 80.3568C64.4466 80.1816 64.9834 80.4348 65.1578 80.9233L71.5791 98.7754C71.7543 99.2624 71.5012 99.7992 71.0134 99.9735C70.5264 100.149 69.9897 99.8956 69.8145 99.4078L63.3931 81.5549ZM58.2198 76.8871C58.1025 76.3816 58.4167 75.8754 58.9221 75.758C59.4276 75.6407 59.9322 75.9549 60.0512 76.4604L62.0513 85.0553C62.1686 85.5624 61.8544 86.067 61.3489 86.1844C60.8435 86.3033 60.3388 85.9883 60.2199 85.4828L58.2198 76.8871ZM63.2792 98.6311C63.1618 98.1256 63.4752 97.621 63.9807 97.5021C64.4861 97.3847 64.9924 97.6989 65.1097 98.2044L67.7688 109.631C67.8861 110.137 67.5719 110.643 67.0664 110.76C66.561 110.878 66.0563 110.563 65.939 110.058L63.2792 98.6311ZM50.1737 33.4978C50.3015 34.0008 49.9961 34.5135 49.4931 34.6421C48.9901 34.7699 48.4782 34.4645 48.3504 33.9615L40.444 2.93976C40.3162 2.43673 40.62 1.92405 41.1246 1.79547C41.6276 1.66771 42.1395 1.97146 42.2673 2.4761L50.1737 33.4978ZM45.121 30.5536C45.3235 31.031 45.1017 31.5822 44.6243 31.7855C44.147 31.988 43.5958 31.7662 43.3925 31.2889L35.9353 13.8433C35.7328 13.366 35.9546 12.8147 36.4319 12.6114C36.9093 12.4089 37.4605 12.6307 37.6638 13.108L45.121 30.5536ZM44.4186 37.2972C44.6766 37.748 44.5199 38.3225 44.0699 38.5805C43.6183 38.8384 43.0445 38.6817 42.7866 38.2317L36.7766 27.75C36.5187 27.2992 36.6754 26.7246 37.1254 26.4666C37.577 26.2087 38.1507 26.3654 38.4087 26.8154L44.4186 37.2972ZM33.3156 17.931C33.5736 18.3818 33.4169 18.9564 32.9653 19.2143C32.5145 19.4723 31.9399 19.3156 31.6828 18.8656L25.8464 8.68744C25.5885 8.23583 25.7452 7.66208 26.1952 7.40413C26.646 7.14619 27.2205 7.30288 27.4785 7.75288L33.3156 17.931ZM41.0025 39.1628C41.3481 39.5485 41.3151 40.1423 40.9286 40.4863C40.5437 40.8318 39.9507 40.7988 39.6059 40.4123L19.666 18.1355C19.3205 17.7498 19.3535 17.1576 19.74 16.812C20.1257 16.4665 20.7179 16.4995 21.0635 16.886L41.0025 39.1628ZM35.8453 43.785C36.2945 44.0445 36.448 44.6191 36.1876 45.0675C35.9273 45.5167 35.3527 45.6702 34.9043 45.4098L7.19253 29.381C6.74414 29.1214 6.59146 28.5468 6.8502 28.0985C7.11056 27.6493 7.68431 27.4958 8.13351 27.7561L35.8453 43.785ZM30.2067 45.3375C30.6896 45.5239 30.9299 46.0663 30.7434 46.5509C30.557 47.0346 30.013 47.2741 29.5293 47.0877L11.8419 40.2261C11.359 40.0396 11.1187 39.4972 11.3052 39.0127C11.4916 38.5297 12.0356 38.2895 12.5185 38.4759L30.2067 45.3375ZM34.5402 50.5558C35.0417 50.686 35.343 51.1979 35.2128 51.7001C35.0826 52.2015 34.5708 52.5021 34.0685 52.3727L22.3726 49.344C21.8704 49.2138 21.5699 48.7011 21.6985 48.1997C21.8286 47.6983 22.3413 47.3969 22.8427 47.5271L34.5402 50.5558ZM12.9299 44.9606C13.4314 45.0908 13.7327 45.6027 13.6025 46.1049C13.4723 46.6063 12.9605 46.9068 12.4598 46.7767L1.10215 43.8364C0.599924 43.7062 0.299396 43.1943 0.427968 42.6921C0.558146 42.1907 1.07082 41.8894 1.57225 42.0195L12.9299 44.9606ZM33.4886 54.299C34.0069 54.3207 34.4079 54.7595 34.3862 55.277C34.3629 55.7952 33.9258 56.1962 33.4083 56.1745L3.53855 54.8639C3.02106 54.8422 2.61926 54.4043 2.64256 53.886C2.66426 53.3685 3.10221 52.9667 3.62051 52.99L33.4886 54.299ZM33.3263 61.7352C33.8229 61.5857 34.346 61.8653 34.4955 62.3604C34.6466 62.8553 34.3661 63.3785 33.8711 63.5296L3.24848 72.8655C2.75349 73.015 2.22876 72.7353 2.07928 72.2403C1.92821 71.7453 2.20866 71.2222 2.70367 71.0711L33.3263 61.7352ZM30.6166 66.9167C31.0843 66.6909 31.6452 66.887 31.8702 67.3546C32.096 67.8215 31.8999 68.3824 31.4339 68.6082L14.3524 76.8658C13.8855 77.0916 13.3246 76.8955 13.0988 76.4279C12.873 75.961 13.0691 75.3993 13.5367 75.1743L30.6166 66.9167ZM37.3883 67.308C37.8247 67.0292 38.404 67.1586 38.6821 67.5949C38.9609 68.0312 38.8332 68.6106 38.396 68.8887L28.2035 75.3775C27.7672 75.6563 27.1878 75.5286 26.9097 75.0914C26.6309 74.6551 26.7603 74.0757 27.1966 73.7969L37.3883 67.308ZM18.5575 79.2981C18.9938 79.0192 19.5732 79.147 19.8512 79.5842C20.1301 80.0205 20.0007 80.6015 19.5643 80.8787L9.66846 87.1804C9.23211 87.4576 8.65274 87.3298 8.3739 86.8935C8.09665 86.4572 8.22443 85.8778 8.66076 85.5989L18.5575 79.2981ZM39.4086 70.6291C39.7783 70.2651 40.3729 70.2707 40.7361 70.6403C41.1002 71.0092 41.0945 71.603 40.7257 71.9678L19.3972 92.9178C19.0276 93.2818 18.433 93.277 18.0689 92.9073C17.7057 92.5377 17.7106 91.943 18.0802 91.5798L39.4087 70.6278L39.4086 70.6291ZM43.8371 75.3268C44.0846 74.8728 44.6551 74.7048 45.1099 74.9523C45.5639 75.1998 45.7319 75.7688 45.4844 76.2244L30.1465 104.323C29.899 104.778 29.3285 104.946 28.8737 104.698C28.4197 104.451 28.2517 103.88 28.4992 103.425L43.8371 75.3268ZM45.5302 80.9253C45.7038 80.4367 46.2414 80.1836 46.7283 80.3588C47.2153 80.5323 47.4692 81.0699 47.294 81.5569L40.8727 99.4106C40.6991 99.8976 40.1615 100.152 39.6745 99.9763C39.1876 99.8028 38.9336 99.2652 39.1088 98.7782L45.5302 80.9253ZM50.6368 76.4623C50.7542 75.9569 51.2604 75.6419 51.7659 75.76C52.2713 75.8773 52.5863 76.3835 52.4674 76.889L50.4673 85.4856C50.35 85.991 49.8437 86.3061 49.3399 86.1871C48.8328 86.0698 48.5186 85.5652 48.6375 85.0581L50.6376 76.4632L50.6368 76.4623ZM45.5783 98.2063C45.6957 97.7009 46.2003 97.3859 46.7074 97.504C47.212 97.6229 47.5262 98.1275 47.4089 98.633L44.7498 110.06C44.6325 110.565 44.1263 110.88 43.6208 110.762C43.1154 110.645 42.8003 110.139 42.9193 109.633L45.5783 98.2063ZM53.9822 99.7018C53.9902 99.1835 54.4161 98.7696 54.9336 98.7776C55.4519 98.7857 55.8641 99.2116 55.8561 99.7307L55.7107 107.348C55.7026 107.865 55.2767 108.278 54.7576 108.27C54.2401 108.262 53.8271 107.836 53.8351 107.317L53.9814 99.701L53.9822 99.7018ZM56.2146 78.9575H54.331V77.0748H56.2146V78.9575ZM56.2146 82.7223H54.331V80.8395H56.2146V82.7223ZM55.2736 94.792C56.2837 94.792 57.1998 94.3829 57.8619 93.7208C58.524 93.0587 58.9347 92.1426 58.9347 91.1325C58.9347 90.1208 58.5248 89.2056 57.8619 88.5426C57.1997 87.8804 56.2837 87.4698 55.2736 87.4698C54.2619 87.4698 53.3466 87.8796 52.6837 88.5426C52.0215 89.2047 51.6109 90.1208 51.6109 91.1325C51.6109 92.1426 52.0207 93.0587 52.6837 93.7208C53.3458 94.383 54.2619 94.792 55.2736 94.792ZM59.1927 95.0515C58.1906 96.0552 56.8045 96.6755 55.2736 96.6755C53.7428 96.6755 52.3566 96.0544 51.3529 95.0515C50.3492 94.0479 49.7289 92.6626 49.7289 91.1325C49.7289 89.6017 50.35 88.2154 51.3529 87.2118C52.3566 86.2081 53.7419 85.5877 55.2736 85.5877C56.8044 85.5877 58.1906 86.2089 59.1927 87.2118C60.1963 88.2154 60.8167 89.6007 60.8167 91.1325C60.8167 92.6625 60.1955 94.0478 59.1927 95.0515ZM54.331 11.2949H56.2146V13.1785H54.331V11.2949ZM54.331 0H56.2146V1.88356H54.331V0ZM54.331 3.7656H56.2146V5.64836H54.331V3.7656ZM54.331 7.53038H56.2146V9.41314H54.331V7.53038ZM54.331 33.3125H56.2146V35.1953H54.331V33.3125ZM54.331 29.5478H56.2146V31.4305H54.331V29.5478ZM55.2736 15.3125C56.8044 15.3125 58.1906 15.9337 59.1927 16.9366C60.1963 17.9386 60.8167 19.3255 60.8167 20.8556C60.8167 22.3864 60.1955 23.7726 59.1927 24.7763C58.1906 25.78 56.8045 26.4003 55.2736 26.4003C53.7428 26.4003 52.3566 25.7792 51.3529 24.7763C50.3492 23.7727 49.7289 22.3874 49.7289 20.8556C49.7289 19.3256 50.35 17.9386 51.3529 16.9366C52.3566 15.9329 53.7419 15.3125 55.2736 15.3125ZM57.8619 18.2672C57.1997 17.6051 56.2837 17.1945 55.2736 17.1945C54.2619 17.1945 53.3466 17.6043 52.6837 18.2672C52.0215 18.9294 51.6109 19.8454 51.6109 20.8555C51.6109 21.8672 52.0207 22.7825 52.6837 23.4455C53.3458 24.1076 54.2619 24.5182 55.2736 24.5182C56.2837 24.5182 57.1998 24.1084 57.8619 23.4455C58.5241 22.7833 58.9347 21.8672 58.9347 20.8555C58.9347 19.8454 58.5248 18.9294 57.8619 18.2672ZM66.5204 64.5468C67.9861 63.7922 69.3128 62.6841 70.4522 61.3687C70.6949 61.0874 71.0951 60.9677 71.4671 61.0971C71.9565 61.265 72.2169 61.7986 72.0481 62.288C70.8958 65.6195 68.7293 68.4072 65.924 70.3542C63.1452 72.2836 59.7437 73.3918 56.0868 73.3918C51.1897 73.3918 46.7558 71.407 43.5462 68.1975C40.3367 64.988 38.3519 60.554 38.3519 55.657C38.3519 50.76 40.3367 46.326 43.5462 43.1164C46.7558 39.9069 51.1897 37.9222 56.0868 37.9222C58.5899 37.9222 60.8776 38.3923 62.9331 39.3115C65.0088 40.2396 66.8304 41.6203 68.3821 43.433C68.6248 43.7175 68.6834 44.1337 68.4962 44.4849C68.2519 44.9413 67.6838 45.1141 67.2282 44.8706C66.4069 44.4327 65.6419 44.1072 64.84 43.8895C64.0581 43.6765 63.2361 43.5712 62.2863 43.5712C59.6402 43.5712 57.2391 44.7878 55.4977 46.7542C53.7282 48.7527 52.6338 51.5227 52.6338 54.5916C52.6338 57.6604 53.7282 60.4295 55.4977 62.4272C57.2399 64.3952 59.6402 65.6111 62.2863 65.6111C63.7882 65.6111 65.2115 65.221 66.5204 64.5468Z" fill="#D5DFED"/>
</svg>
