<svg width="49" height="60" viewBox="0 0 49 60" fill="none" xmlns="http://www.w3.org/2000/svg">
<path d="M48.6059 34.2423C48.4326 34.7514 48.2495 35.2548 48.0873 35.7711C46.7392 40.0684 45.3191 44.3235 44.0923 48.6912C43.7618 50.0215 42.9267 51.0038 41.8026 51.3838C40.8243 51.8654 39.8768 52.4103 38.9635 53.017C37.8921 53.6219 36.8259 54.2402 35.7206 54.7741C33.263 55.9614 30.7315 56.9969 28.3327 58.3C27.0508 58.9964 25.795 59.3876 24.2549 58.8683L24.2547 58.8684C24.1106 58.8154 23.9643 58.8048 23.8296 58.8376C22.3519 59.2988 21.3155 58.2659 20.3218 56.8437C19.5027 55.6714 18.5901 54.5831 17.7155 53.4615L17.7153 53.4611C17.4116 53.1038 17.0182 52.8876 16.6294 52.8643C15.6667 52.6865 14.7003 52.4063 13.7363 52.1406C13.4847 52.0766 13.2374 51.9525 13.0104 51.7754C11.2266 50.3005 9.2428 49.6036 7.34166 48.5782C5.58547 47.631 3.73163 47.0583 2.09688 45.6081C1.72485 45.3273 1.40901 44.9389 1.18741 44.4887C0.965792 44.0385 0.847226 43.5451 0.846141 43.0678C0.728277 40.158 0.41028 37.2131 0.34123 34.3143C0.260218 30.9177 0.354919 27.5545 0.383361 24.1789L0.383069 24.1791C0.370814 23.9307 0.418763 23.6969 0.520937 23.5045C1.35078 22.3338 2.20816 21.1919 3.05186 20.0353C4.2804 18.3514 5.50581 16.6643 6.72813 14.9741L6.7283 14.9745C7.04562 14.3895 7.41278 13.851 7.82582 13.3644C9.4137 11.9641 9.79336 9.61528 10.6024 7.59992C11.3954 5.6243 12.2226 3.67336 13.0352 1.71161L13.0349 1.71174C13.0545 1.68115 13.0704 1.64681 13.0819 1.60946C13.2867 0.0914848 14.2874 0.0541679 15.4014 0.0629903C18.6787 0.0890837 21.9426 0.0261284 25.214 0.0121269C25.7066 0.00987083 26.2169 0.118893 26.7096 0.117514L26.7097 0.117891C27.5729 0.0161995 28.5049 0.452125 29.1939 1.2798C29.7474 1.95062 30.5477 2.32281 31.2056 2.88922C33.0014 4.43484 34.7746 6.02391 36.5685 7.5735C37.982 8.79473 39.3907 10.0329 40.8481 11.1586C41.3024 11.4919 41.6419 12.0276 41.7712 12.6156C42.6456 15.7376 43.563 18.8518 44.4151 21.9776C44.9781 24.0431 45.4295 26.1274 45.9816 28.195C46.3345 29.5472 46.7494 30.8884 47.2235 32.2126C47.5248 32.8701 47.881 33.4995 48.2851 34.0892L48.6059 34.2423ZM13.6213 2.52278C13.3695 3.06523 13.1738 3.42057 13.0286 3.81093C12.3066 5.75056 11.6124 7.7099 10.8808 9.64248C9.7312 12.6796 8.53907 15.6845 7.96292 19.0802C7.84318 19.7859 7.82466 20.2669 8.40623 20.8931L8.40669 20.8933C9.04902 21.6372 9.64733 22.433 10.1952 23.2724C11.0416 24.4795 11.8266 25.7449 12.7022 26.9217C14.1751 28.9011 15.696 30.8327 17.2022 32.7782C17.5633 33.2447 17.9464 33.6886 18.3667 34.2007C20.9749 31.9457 23.8389 30.2558 26.305 27.7345C25.8297 26.8154 25.4006 25.9577 24.9468 25.1158C24.425 24.1478 23.8544 23.2087 23.3524 22.2302C22.185 19.9562 21.0566 17.6596 19.8926 15.3838L19.8927 15.3842C17.7463 11.391 15.7628 7.30257 13.9514 3.13565C13.8496 2.92638 13.7395 2.72206 13.6212 2.5227L13.6213 2.52278ZM47.6247 34.557C47.3957 34.3898 47.2699 34.249 47.1385 34.2098C45.965 33.8578 44.7907 33.5201 43.6161 33.1847C41.7569 32.6538 39.8969 32.1391 38.0388 31.5925C37.6486 31.4778 37.222 31.0727 36.8849 31.1112C35.6501 31.253 34.4604 30.4743 33.252 30.1824C31.3596 29.7258 29.4688 29.1234 27.5701 28.5806L27.2851 38.7865C28.3593 39.7518 29.4316 40.6007 30.3961 41.6048L30.3958 41.6049C32.8286 44.0068 35.3859 46.2046 38.0427 48.1776C38.3505 48.4523 38.7034 48.6265 39.0578 48.6783C40.2517 48.6801 41.426 48.5589 42.6153 48.5262C43.0785 48.522 43.4445 48.1884 43.5495 47.6741C44.6305 44.2691 45.7356 40.8796 46.8156 37.4741C47.1072 36.555 47.3381 35.5978 47.6248 34.5569L47.6247 34.557ZM13.129 50.5266L17.6146 34.8914C17.5143 34.8122 17.4085 34.7465 17.2994 34.6954C15.693 34.2082 14.0868 33.7164 12.4792 33.2509C9.9729 32.5531 7.46102 32.1192 4.97414 31.9541C3.34158 31.8259 3.33661 31.7764 3.01595 33.6454C3.00932 33.6852 3.00573 33.7262 3.00198 33.767C2.69535 36.982 2.41269 40.206 2.06571 43.4058L2.06542 43.4059C1.90978 44.0923 2.27125 44.9081 2.88288 45.2507C3.20644 45.5033 3.54064 45.7301 3.88319 45.9299C6.94452 47.4635 10.0097 48.9783 13.1295 50.5268L13.129 50.5266ZM13.9561 50.9872L13.9566 50.9874C14.9117 51.5574 15.9287 51.8533 16.9131 51.8478C17.3285 51.7841 17.7839 52.0226 18.0825 52.4607C18.6293 53.2387 19.2203 53.9762 19.794 54.7293C20.4227 55.5541 21.0297 56.4046 21.6895 57.1933C22.3883 58.0284 22.7641 58.0282 23.2585 57.2419C23.6269 56.6562 23.8877 55.9576 24.2975 55.4216C25.4426 53.9237 26.0688 52.0025 26.9052 50.2527C27.1714 49.7978 27.1104 49.1262 26.7562 48.6117C25.4069 46.413 24.1002 44.1819 22.7276 42.0014C21.5882 40.1917 20.383 38.4326 19.1967 36.6594C18.9354 36.3092 18.6613 35.9726 18.375 35.6512C17.9739 36.7681 17.5775 37.6971 17.2951 38.6929C16.5087 41.468 15.7689 44.2701 15.0124 47.0628C14.665 48.3448 14.3216 49.6296 13.9565 50.9872L13.9561 50.9872ZM33.6007 17.4573L27.3691 27.3919C33.5001 29.6075 39.6077 30.7643 45.7493 32.3032C41.9353 27.097 37.8767 22.1374 33.6008 17.4575L33.6007 17.4573ZM29.4238 2.46432C29.8649 3.97456 30.1924 5.17879 30.57 6.37106C31.2846 8.62867 32.0693 10.8709 32.747 13.136C33.4061 15.3397 34.0987 17.4722 35.8463 19.0392L35.846 19.0393C36.4226 19.5905 36.9662 20.1933 37.4699 20.8401C39.9579 23.8505 42.4345 26.8736 44.9172 29.8902C45.2368 30.2783 45.5686 30.6516 45.8949 31.0319C45.7885 30.2745 45.6191 29.5176 45.3892 28.7725C45.1973 28.0133 45.0961 27.2406 44.8976 26.4831C44.4558 24.7971 43.9865 23.1154 43.5127 21.4348C42.731 18.6609 41.9474 15.8875 41.1355 13.12L41.1357 13.1204C41.0197 12.7601 40.8171 12.4314 40.5561 12.1798C39.0931 10.8014 37.6174 9.44483 36.1288 8.10901C34.3312 6.49274 32.5245 4.89219 30.7093 3.3079L30.7095 3.30828C30.2921 2.9961 29.8627 2.71434 29.424 2.46445L29.4238 2.46432ZM14.329 1.56975C14.4342 1.99355 14.567 2.41294 14.726 2.82401C16.0311 5.66129 17.3184 8.50895 18.684 11.3153C19.8161 13.6411 21.0228 15.9303 22.2422 18.2087C23.5394 20.6327 24.8901 23.0242 26.2175 25.4296C26.3421 24.891 26.3964 24.3186 26.3783 23.7301C26.4757 19.3485 26.0419 14.8841 25.7423 10.4408C25.7395 10.1465 25.6699 9.84322 25.5408 9.56189C25.4119 9.28094 25.2277 9.03176 25.0074 8.84057C24.6806 8.51081 24.3417 8.19989 23.9924 7.90918C21.3823 6.05408 18.9058 3.86231 16.1855 2.28792C15.6122 1.8238 14.9598 1.57157 14.329 1.56998L14.329 1.56975ZM16.5898 33.7016L16.6745 33.458C16.4412 33.1076 16.2198 32.7463 15.9732 32.4089C14.3894 30.2418 12.7948 28.085 11.2146 25.915C10.1685 24.478 9.15869 23.0056 8.09691 21.5844C7.41701 20.6742 7.19082 20.6693 6.44146 21.19C5.93542 21.5417 5.40263 21.848 4.88234 22.1759C3.81601 22.8472 2.75013 23.5188 1.66206 24.2042C2.15715 26.5055 2.412 28.7165 3.09706 30.973C4.01276 31.0909 4.86747 31.2417 5.71234 31.3016L5.71263 31.3015C8.16598 31.4812 10.6437 31.9404 13.112 32.6727C14.2715 33.0133 15.4307 33.3563 16.5898 33.7016ZM27.1378 25.4858L27.3812 25.6279C27.73 25.2398 28.0552 24.8234 28.3551 24.3798C29.7721 21.9845 31.1433 19.5462 32.5798 17.1701C32.8828 16.7131 32.927 16.0507 32.6964 15.4271C32.0549 13.4213 31.4102 11.4162 30.7455 9.41617C29.9699 7.08243 29.1746 4.75402 28.3787 2.42558L28.3784 2.42571C28.2727 2.18849 28.1499 1.95966 28.0119 1.74238C27.5907 3.75326 27.2196 5.62401 26.8037 7.47128C26.537 8.6296 26.4605 9.87644 26.5779 11.1522C26.7323 12.8398 26.8148 14.5224 26.8776 16.1988C26.9595 18.3836 26.9892 20.56 27.0465 22.7409C27.0704 23.6547 27.1069 24.571 27.1377 25.4863L27.1378 25.4858ZM42.3862 49.9661L42.3246 49.755L42.3243 49.7551C42.1656 49.6875 42.004 49.6413 41.843 49.6177C41.1749 49.6127 40.5118 49.6413 39.8443 49.6423C37.6311 49.6451 35.4145 49.6264 33.2041 49.6451C31.6921 49.6578 30.1882 49.7195 28.6801 49.7571L28.6805 49.7573C28.1553 49.7891 27.7336 50.1502 27.5653 50.7119C26.7177 52.5994 25.7778 54.4152 24.8699 56.2558C24.6276 56.747 24.373 57.2282 24.0496 57.8589C24.8414 58.0583 25.6328 58.142 26.405 58.1088C27.2471 57.8448 28.052 57.4839 28.8106 57.0313C29.9447 56.4848 31.0531 55.8795 32.2085 55.3835C35.2619 54.0963 38.2006 52.5493 41.0048 50.7535C41.4499 50.4643 41.9248 50.2273 42.3859 49.9662L42.3862 49.9661ZM19.057 34.8056C19.3903 35.7095 26.1283 46.2502 26.8608 46.973C26.8465 46.2562 26.8709 45.659 26.8164 45.0547C26.5343 41.993 26.4724 38.9577 26.6316 35.9822C26.7321 34.1667 26.7515 32.326 26.7694 30.4876C26.8398 29.9975 26.7359 29.4564 26.48 28.9826L19.057 34.8056ZM15.6378 1.03322L25.8639 8.44445C26.3132 6.06122 26.7619 3.68129 27.2357 1.16704C23.2747 0.633063 19.6372 1.28339 15.6379 1.03332L15.6378 1.03322ZM27.8914 48.6935C29.5017 48.7268 31.0278 48.8363 32.5203 48.7678C34.0211 48.6989 35.6218 49.1343 37.0174 48.6649C34.4273 46.2663 31.8935 43.9018 29.342 41.5694C28.7482 41.0267 28.0932 40.591 27.3155 39.989L27.3154 39.9886C27.3356 42.8642 27.528 45.7729 27.8914 48.6935ZM1.53727 39.0169C1.5996 38.6919 1.68036 38.3742 1.72002 38.0402C1.81638 37.2325 1.85329 36.3999 1.98574 35.6087C2.37808 33.2651 2.74233 30.928 1.77581 28.3355L1.77597 28.3359C1.69575 28.0408 1.63946 27.7425 1.60775 27.4456C1.54245 27.1171 1.46765 26.7891 1.39656 26.4609C0.698709 30.4966 1.11443 34.7399 1.53727 39.0169ZM2.91345 21.8023L3.14955 22.1568C4.28595 21.396 5.43493 20.6571 6.54847 19.8583L6.54831 19.8579C6.82146 19.6578 7.02035 19.3504 7.11877 18.9769C7.36898 17.8787 7.54093 16.7398 7.74354 15.617L7.60409 15.4933L2.91345 21.8023Z" fill="#304973"/>
<path d="M11.9272 14.3384C11.5548 13.9931 11.2098 13.6039 10.8995 13.179C10.734 12.8907 10.6027 12.2434 10.6996 12.1773C10.9928 11.9729 11.3567 11.9105 11.7301 12.0012C11.9196 12.0613 12.1947 12.6174 12.2161 12.9233C12.1786 13.4211 12.0817 13.8977 11.9272 14.3384Z" fill="#304973"/>
<path d="M15.3331 16.7885C14.9936 16.9305 14.3272 16.4217 14.1052 15.8481C13.8947 15.3042 14.1562 15.0638 14.4659 14.9083C14.6457 14.8064 14.8708 14.8159 15.079 14.9338C15.2873 15.0521 15.4572 15.2662 15.5421 15.5188C15.7897 16.0062 15.697 16.5694 15.3331 16.7885Z" fill="#304973"/>
<path d="M21.1822 27.4678C21.3911 28.016 21.2895 28.5962 20.9335 28.889C20.5478 29.0709 20.2521 28.7739 20.031 28.3464C19.8907 28.1261 19.8249 27.8625 19.8491 27.6197C19.8732 27.3766 19.985 27.176 20.1579 27.0668C20.5722 26.8472 20.9627 27 21.1822 27.4678Z" fill="#304973"/>
<path d="M16.1422 29.2883C16.5105 29.3093 16.8845 29.3925 17.2531 29.5351C17.4897 29.734 17.656 30.036 17.7036 30.3542C17.7369 30.6437 17.6212 30.8958 17.4109 30.9931C17.2003 31.09 16.9364 31.013 16.7418 30.798C16.4525 30.4156 16.1897 30.0071 15.957 29.5793L16.1422 29.2883Z" fill="#304973"/>
<path d="M13.3403 12.6141C13.4224 11.9837 13.7245 11.6739 14.2052 11.892L14.2054 11.8923C14.4838 12.0981 14.6904 12.4287 14.7662 12.7899C14.7853 13.1017 14.6657 13.3727 14.4505 13.5044C13.913 13.625 13.6338 13.0451 13.3403 12.6141Z" fill="#304973"/>
<path d="M10.8978 15.6524C11.0082 15.8431 11.0505 16.0667 11.0138 16.2642C10.9773 16.462 10.8652 16.6134 10.7071 16.6792C10.4377 16.8324 9.83789 16.3601 9.67534 15.8701C9.60237 15.6856 9.59343 15.4869 9.6503 15.3229C9.70718 15.1588 9.82531 15.0443 9.97529 15.0076C10.3667 14.8389 10.6558 15.0396 10.8978 15.6524Z" fill="#304973"/>
<path d="M23.5039 27.6978C23.7148 28.9084 23.5292 29.356 22.9484 29.1277C22.6892 28.9962 22.4695 28.7468 22.3458 28.4429C22.2858 28.28 22.4732 27.9193 22.6395 27.8301L22.6398 27.8299C22.9137 27.7373 23.2046 27.6924 23.5039 27.6978Z" fill="#304973"/>
<path d="M10.5531 19.6991C10.1462 19.9437 9.58433 19.7126 9.28889 19.1793C9.11891 18.7447 9.33912 18.5713 9.59095 18.4528C9.99411 18.2632 10.4068 18.4621 10.5528 18.9659L10.5525 18.966C10.593 19.2169 10.5934 19.466 10.5531 19.6991Z" fill="#304973"/>
<path d="M12.1034 15.2122C12.7953 14.7851 13.1824 14.8115 13.2854 15.2861L13.2852 15.2857C13.3416 15.6383 13.2695 15.9743 13.0873 16.207C12.8371 16.4739 12.5005 16.1256 12.1034 15.2122Z" fill="#304973"/>
<path d="M12.5995 17.5719C12.4448 18.0378 12.4205 18.3304 12.2829 18.4776C12.0367 18.741 11.4346 18.5935 11.365 18.2718L11.3647 18.2719C11.333 18.0078 11.4124 17.7665 11.5776 17.6284C11.905 17.5509 12.2488 17.5319 12.5995 17.5719Z" fill="#304973"/>
<path d="M18.0475 31.3625L19.0545 30.995C19.3631 31.6174 19.4622 32.1426 18.9946 32.3452C18.5304 32.5461 18.2978 32.0382 18.0475 31.3625Z" fill="#304973"/>
<path d="M14.5343 27.4899L15.4075 27.1827C15.7234 27.7193 15.7004 28.0634 15.3822 28.2226C15.0573 28.3852 14.7881 28.1681 14.5343 27.4899Z" fill="#304973"/>
<path d="M19.2663 29.4863C18.8472 29.3595 18.4204 29.2786 18.4561 28.6222C18.4624 28.5045 18.7929 28.361 18.9357 28.428C19.3832 28.6381 19.4615 29.0202 19.2663 29.4863Z" fill="#304973"/>
<path d="M24.6325 26.4703C24.4526 26.759 24.3375 27.0873 24.2478 27.0591C24.0296 26.9707 23.8309 26.7965 23.6885 26.5682C23.6423 26.4959 23.81 26.0957 23.9165 26.0977C24.1061 26.1016 24.3235 26.2972 24.6325 26.4703Z" fill="#304973"/>
<path d="M13.6217 9.70931C13.0917 9.48133 12.7291 9.27458 12.9126 8.73861L12.9129 8.73849C13.0254 8.57303 13.2151 8.50635 13.4134 8.56347C13.9573 8.86887 13.6741 9.23686 13.6217 9.70931Z" fill="#304973"/>
<path d="M12.4478 24.7993C12.7046 24.389 12.9819 24.1745 13.3413 24.6309C13.4593 24.8812 13.4683 25.1633 13.3648 25.3742C12.9968 25.6809 12.7361 25.2765 12.4478 24.7993Z" fill="#304973"/>
<path d="M12.4022 10.0914C12.2809 10.4268 12.2611 10.7283 12.1316 10.7889C12.0163 10.8675 11.8624 10.8597 11.7261 10.7679C11.59 10.6765 11.4911 10.5144 11.4651 10.3412C11.4298 10.168 11.556 9.85018 11.6708 9.83149C11.853 9.80176 12.0874 9.96791 12.4022 10.0914Z" fill="#304973"/>
<path d="M11.7025 23.0416C11.312 23.6428 10.983 23.6594 10.5623 22.9275C10.8996 22.5754 11.2123 22.4554 11.7025 23.0416Z" fill="#304973"/>
<path d="M17.8744 26.6188C17.2088 27.372 17.1379 27.3383 16.7041 26.1208L17.8744 26.6188Z" fill="#304973"/>
<path d="M19.2283 27.0599C18.9827 26.9071 18.7492 26.7199 18.5334 26.5034C18.4757 26.4302 18.5779 26.0191 18.6273 26.0249C18.8502 26.039 19.0769 26.1286 19.2813 26.2832C19.3472 26.3402 19.2589 26.69 19.2283 27.0599Z" fill="#304973"/>
<path d="M21.4813 29.7836C21.282 30.1154 21.2148 30.3863 21.079 30.4111C20.9321 30.438 20.6975 30.2683 20.5516 30.1133C20.5029 30.0613 20.5736 29.6609 20.652 29.6473L20.6518 29.6474C20.9256 29.6517 21.2041 29.6976 21.4813 29.7836Z" fill="#304973"/>
<path d="M23.3193 23.4511C23.2189 23.6705 23.1624 23.9467 23.0822 23.9382C22.9052 23.9194 22.7163 23.7571 22.5323 23.6533C22.5872 23.4655 22.6101 23.1307 22.7038 23.1226C22.8615 23.109 23.064 23.303 23.3193 23.4511Z" fill="#304973"/>
<path d="M13.5302 6.15245C13.7051 6.26739 13.8713 6.40453 14.0254 6.56089C14.0546 6.59753 13.9378 6.89958 13.9002 6.88817L13.9 6.88779C13.7499 6.84468 13.6057 6.75 13.4868 6.61603C13.4393 6.55818 13.5056 6.36977 13.5302 6.15245Z" fill="#304973"/>
<path d="M45.5115 34.7027C45.4857 34.8249 45.4989 35.0325 45.4176 35.1088C43.0958 37.2976 40.7641 39.4731 38.3555 41.7246L38.3552 41.7247C38.2783 41.2647 38.4235 40.8416 38.7303 40.6335C40.2386 39.0699 41.7542 37.5161 43.2772 35.9718C43.7189 35.5229 44.1728 35.0885 44.6433 34.68C44.8666 34.4859 45.1152 34.2112 45.5112 34.7029L45.5115 34.7027Z" fill="#304973"/>
<path d="M39.5514 42.4939C39.6707 42.1666 39.8272 41.8665 40.0173 41.6002C41.4974 40.0588 42.9946 38.5397 44.5086 37.0427C44.7098 36.8448 44.9156 36.2645 45.3338 36.831C45.4206 36.9485 45.2359 37.5007 45.0519 37.6888C43.4626 39.3147 41.846 40.9049 40.2324 42.4983L40.2319 42.498C40.1044 42.5996 39.9666 42.6849 39.8209 42.753L39.5514 42.4939Z" fill="#304973"/>
<path d="M43.279 34.3878C41.9853 35.863 38.7078 38.5882 38.0413 38.6767C38.144 38.4122 38.1731 38.1624 38.2976 38.0443C39.6376 36.7697 40.9878 35.5101 42.3486 34.2651C42.578 34.0553 42.8553 33.7088 43.279 34.3878Z" fill="#304973"/>
<path d="M44.6116 39.9254C44.646 40.0774 44.7536 40.3246 44.7061 40.3772C43.7669 41.4161 42.8177 42.4432 41.8477 43.4425C41.6411 43.6082 41.3794 43.6731 41.1051 43.6272C41.5915 42.3055 42.6036 41.595 43.4012 40.6526C43.703 40.2953 43.9527 39.7592 44.6117 39.9254L44.6116 39.9254Z" fill="#304973"/>
<path d="M38.0858 36.1061C38.2954 34.8681 39.034 34.0138 40.3504 33.2598C40.6301 33.5338 40.7382 33.8211 40.4594 34.0686C39.7398 34.7062 39.0045 35.3201 38.0858 36.1061Z" fill="#304973"/>
<path d="M10.3133 39.3203C10.7214 38.3683 14.4088 35.7592 15.8281 35.4188C16.1785 35.8895 15.9474 36.0848 15.6712 36.2741C14.5701 37.0289 13.4748 37.7937 12.3726 38.5468C11.9769 38.8171 11.5774 39.0827 11.1613 39.3151C10.913 39.4537 10.6641 39.7482 10.3133 39.3203Z" fill="#304973"/>
<path d="M4.5844 43.4363C4.77861 42.6442 5.34738 42.425 5.77641 42.076C6.41809 41.5537 7.12529 41.1312 7.80814 40.6731C8.22816 40.3909 8.23121 40.3963 8.89046 41.0326C7.585 41.8937 6.31993 42.7345 5.04352 43.5546C4.9634 43.6058 4.79311 43.4943 4.5844 43.4363Z" fill="#304973"/>
<path d="M38.7762 12.2184C38.9577 12.4567 39.1151 12.7176 39.2434 12.9939C39.9667 16.0852 40.6784 19.1774 41.3789 22.2712C41.3965 22.5383 41.3808 22.7989 41.3317 23.0453C40.6267 21.9574 38.8609 15.5159 38.6453 13.336L38.6451 13.3365C38.6552 12.9522 38.6993 12.5776 38.7762 12.2184Z" fill="#304973"/>
<path d="M36.8272 10.5737C37.6348 11.5638 39.2718 19.7802 39.0457 21.1726C38.2848 20.0333 38.2673 18.8288 38 17.6989C37.7094 16.4686 37.486 15.2293 37.2667 13.993C37.0646 12.8518 36.5908 11.689 36.8274 10.5738L36.8272 10.5737Z" fill="#304973"/>
<path d="M35.1817 16.0174C34.2783 13.4143 34.1598 10.7415 33.5944 8.10839L33.5941 8.10852C33.5676 7.79407 33.5812 7.48546 33.6344 7.19368L33.8774 7.15131C34.0422 7.39907 34.1763 7.67017 34.2738 7.95405C34.5637 9.43698 34.8222 10.9215 35.078 12.4058C35.2167 13.211 35.3378 14.0172 35.4483 14.8223C35.5027 15.218 35.5145 15.6125 35.5452 16.0073L35.1817 16.0174Z" fill="#304973"/>
<path d="M35.3891 8.65295C35.6053 9.00491 35.7771 9.17466 35.8035 9.3441C36.2385 12.1409 36.6597 14.938 37.0669 17.7349C37.0851 17.8585 36.9615 17.9794 36.8889 18.1337C36.1919 16.7994 35.0897 10.0846 35.3891 8.65295Z" fill="#304973"/>
<path d="M33.7209 13.5478C33.5044 12.948 33.3125 12.3416 33.1455 11.7302C32.7533 10.0382 32.3976 8.34238 32.0336 6.64753C31.998 6.48077 31.9495 6.26394 32.0055 6.15369L32.0054 6.15331C32.0828 5.9942 32.2191 5.89338 32.3823 5.87507C32.5102 5.8839 32.7671 6.09998 32.7854 6.22223C33.1378 8.59215 33.9116 10.9573 33.9679 13.3286C33.9689 13.3802 33.8764 13.4139 33.7209 13.5478Z" fill="#304973"/>
</svg>
