<svg width="412" height="372" viewBox="0 0 412 372" fill="none" xmlns="http://www.w3.org/2000/svg">
<mask id="path-1-inside-1_604_6" fill="white">
<path d="M237.116 229.06C236.334 229.514 235.545 229.942 234.746 230.354C228.297 233.667 221.267 235.59 213.824 235.59C200.662 235.59 188.767 229.603 180.172 219.922C171.693 210.365 166.445 197.21 166.445 182.717C166.445 168.218 171.693 155.062 180.172 145.513C188.763 135.832 200.658 129.845 213.824 129.845C215.646 129.845 217.372 129.924 219.039 130.092C217.204 128.988 215.299 128 213.342 127.121C205.929 123.815 197.582 122.123 188.364 122.123C170.383 122.123 154.108 129.393 142.323 141.153C130.54 152.908 123.256 169.146 123.256 187.086C123.256 205.026 130.543 221.265 142.323 233.02C154.108 244.779 170.387 252.05 188.364 252.05C201.767 252.05 214.217 248.013 224.357 240.986C229.179 237.647 233.479 233.636 237.117 229.065L237.116 229.06ZM87.4875 205.205L86.4907 197.559L94.1611 196.564L95.1578 204.217L87.4875 205.208V205.205ZM56.8157 209.18L55.819 201.527L63.4893 200.536L64.4828 208.189L56.819 209.18H56.8157ZM72.1495 207.191L71.1527 199.545L78.8231 198.55L79.8165 206.196L72.1528 207.191H72.1495ZM285.012 197.555L284.016 205.202L276.352 204.21L277.345 196.557L285.016 197.552L285.012 197.555ZM315.684 201.527L314.691 209.179L307.02 208.188L308.017 200.535L315.681 201.527H315.684ZM300.35 199.544L299.354 207.19L291.69 206.196L292.687 198.55L300.35 199.544ZM5.02247 216.724L3.91679 209.084L11.5674 207.984L12.673 215.617L5.02247 216.721V216.724ZM-40.8943 223.346L-42 215.706L-34.3494 214.606L-33.2438 222.24L-40.8943 223.343V223.346ZM-25.5935 221.136L-26.6959 213.503L-19.0453 212.4L-17.9397 220.033L-25.5968 221.136H-25.5935ZM-10.2859 218.927L-11.3916 211.294L-3.73446 210.191L-2.62879 217.83L-10.2859 218.93V218.927ZM365.994 206.862L364.998 214.508L357.334 213.514L358.327 205.867L365.998 206.862H365.994ZM412 212.819L411.007 220.472L403.336 219.477L404.333 211.831L411.997 212.822L412 212.819ZM396.666 210.83L395.673 218.483L388.002 217.488L388.999 209.842L396.663 210.833L396.666 210.83ZM381.332 208.841L380.336 216.494L372.672 215.499L373.665 207.853L381.336 208.844L381.332 208.841ZM214.037 98.1622C213.512 100.224 211.409 101.475 209.337 100.951C207.271 100.428 206.02 98.3269 206.544 96.2622L239.012 -30.8634C239.543 -32.9314 241.642 -34.1762 243.712 -33.6526C245.778 -33.129 247.032 -31.0281 246.507 -28.9634L214.033 98.1622H214.037ZM234.398 87.2099C233.566 89.1659 231.299 90.0748 229.338 89.245C227.378 88.4152 226.467 86.1528 227.298 84.1968L257.92 12.7055C258.759 10.7495 261.019 9.84063 262.983 10.6704C264.944 11.5002 265.855 13.7626 265.023 15.7186L234.394 87.2099H234.398ZM236.893 115.661C235.833 117.509 233.474 118.151 231.622 117.091C229.767 116.033 229.127 113.679 230.19 111.832L254.871 68.8778C255.93 67.0305 258.29 66.3883 260.142 67.4487C261.997 68.5057 262.637 70.8602 261.581 72.7076L236.896 115.661H236.893ZM282.496 36.2998C281.437 38.1472 279.08 38.7893 277.225 37.7289C275.374 36.6719 274.73 34.3174 275.793 32.47L299.764 -9.2395C300.821 -11.0869 303.18 -11.729 305.035 -10.6687C306.887 -9.61161 307.524 -7.26038 306.468 -5.40972L282.496 36.2998ZM249.953 124.596C248.534 126.177 246.101 126.315 244.517 124.899C242.933 123.487 242.801 121.056 244.213 119.476L326.109 28.1865C327.528 26.6058 329.964 26.4675 331.551 27.8835C333.132 29.2995 333.268 31.7265 331.848 33.3071L249.953 124.596ZM269.267 145.072C267.422 146.139 265.066 145.51 263.996 143.669C262.927 141.832 263.557 139.477 265.402 138.414L379.223 72.7283C381.064 71.6614 383.424 72.2903 384.494 74.1311C385.56 75.9686 384.929 78.3231 383.087 79.3868L269.267 145.072ZM291.341 151.951C289.357 152.715 287.126 151.734 286.357 149.752C285.591 147.769 286.575 145.546 288.562 144.779L361.209 116.661C363.196 115.897 365.43 116.881 366.196 118.86C366.962 120.843 365.975 123.066 363.991 123.833L327.664 137.892L291.337 151.951H291.341ZM272.693 173.609C270.634 174.139 268.535 172.904 268 170.853C267.465 168.795 268.7 166.697 270.763 166.164L318.801 153.752C320.864 153.219 322.966 154.457 323.501 156.508C324.036 158.563 322.801 160.664 320.738 161.197L272.693 173.609ZM361.453 150.677C359.394 151.21 357.288 149.979 356.76 147.924C356.225 145.866 357.459 143.768 359.519 143.235L406.168 131.182C408.231 130.649 410.334 131.887 410.868 133.938C411.403 135.996 410.168 138.094 408.106 138.628L361.456 150.677L361.453 150.677ZM275.414 189.189C273.285 189.278 271.486 187.634 271.397 185.51C271.308 183.39 272.955 181.592 275.084 181.503L397.759 176.135C399.885 176.04 401.68 177.69 401.776 179.807C401.865 181.931 400.218 183.726 398.089 183.815L275.414 189.185V189.189ZM273.513 219.333C271.48 218.714 270.328 216.57 270.945 214.542C271.566 212.513 273.714 211.364 275.747 211.98L401.523 250.238C403.556 250.857 404.708 253.001 404.091 255.029C403.477 257.058 401.322 258.207 399.289 257.591L273.513 219.333ZM283.524 240.142C281.606 239.216 280.804 236.918 281.725 235.005C282.652 233.088 284.956 232.285 286.877 233.21L357.032 267.049C358.95 267.971 359.752 270.273 358.831 272.186C357.904 274.103 355.6 274.906 353.679 273.981L283.524 240.142ZM254.925 241.294C253.132 240.158 252.608 237.781 253.746 235.993C254.892 234.205 257.271 233.674 259.063 234.817L300.924 261.408C302.716 262.551 303.247 264.925 302.102 266.713C300.963 268.501 298.577 269.025 296.785 267.885L254.925 241.294ZM332.268 290.429C330.476 289.293 329.951 286.912 331.09 285.124C332.235 283.336 334.615 282.812 336.407 283.952L377.053 309.769C378.845 310.912 379.376 313.286 378.231 315.074C377.092 316.862 374.709 317.386 372.917 316.25L332.268 290.426L332.268 290.429ZM245.359 253.913C243.841 252.422 243.821 249.985 245.313 248.473C246.808 246.959 249.25 246.936 250.769 248.427L338.362 334.288C339.881 335.776 339.904 338.21 338.409 339.728C336.917 341.242 334.478 341.262 332.956 339.77L245.354 253.919L245.359 253.913ZM225.813 271.356C224.797 269.492 225.483 267.161 227.351 266.143C229.219 265.129 231.563 265.817 232.579 267.678L295.576 382.824C296.593 384.688 295.903 387.026 294.035 388.04C292.167 389.055 289.83 388.366 288.81 386.503L225.813 271.356ZM218.374 293.208C217.654 291.213 218.701 289.013 220.701 288.299C222.701 287.581 224.906 288.618 225.622 290.62L251.996 363.777C252.716 365.773 251.676 367.973 249.673 368.687C247.673 369.405 245.468 368.368 244.748 366.369L218.374 293.205V293.208ZM197.126 274.08C196.644 272.009 197.934 269.934 200.01 269.453C202.086 268.972 204.159 270.26 204.648 272.331L212.863 307.553C213.344 309.631 212.054 311.699 209.978 312.18C207.902 312.667 205.829 311.376 205.341 309.305L197.126 274.076V274.08ZM217.906 363.186C217.424 361.114 218.711 359.046 220.787 358.559C222.863 358.078 224.943 359.366 225.424 361.437L236.346 408.264C236.828 410.335 235.537 412.41 233.461 412.89C231.385 413.371 229.313 412.084 228.831 410.012L217.909 363.186H217.906ZM164.078 96.2725C164.603 98.334 163.349 100.435 161.283 100.962C159.216 101.485 157.114 100.234 156.589 98.1726L124.115 -28.953C123.59 -31.0144 124.838 -33.1153 126.911 -33.6422C128.977 -34.1658 131.079 -32.9211 131.604 -30.853L164.078 96.2725ZM143.325 84.2074C144.157 86.1635 143.246 88.4225 141.285 89.2556C139.325 90.0854 137.061 89.1766 136.226 87.2205L105.597 15.7292C104.765 13.7732 105.676 11.5142 107.637 10.681C109.597 9.85118 111.861 10.7601 112.696 12.7161L143.325 84.2074ZM140.44 111.842C141.5 113.689 140.856 116.044 139.008 117.101C137.153 118.158 134.796 117.516 133.737 115.672L109.052 72.7181C107.993 70.8707 108.636 68.5162 110.485 67.4591C112.34 66.4021 114.696 67.0442 115.756 68.8883L140.44 111.842ZM94.8369 32.4805C95.8964 34.3278 95.2528 36.6823 93.3979 37.7394C91.5464 38.7964 89.1865 38.1543 88.1303 36.3102L64.1588 -5.39927C63.0994 -7.24992 63.743 -9.60115 65.5912 -10.6582C67.4428 -11.7152 69.8027 -11.0731 70.8622 -9.22905L94.8336 32.4805H94.8369ZM126.409 119.487C127.829 121.068 127.693 123.501 126.106 124.911C124.525 126.327 122.089 126.192 120.673 124.608L38.7742 33.3186C37.3549 31.7379 37.4903 29.311 39.0778 27.895C40.662 26.479 43.0945 26.6141 44.5137 28.198L126.409 119.487ZM105.227 138.429C107.072 139.492 107.702 141.847 106.633 143.685C105.564 145.525 103.204 146.154 101.362 145.087L-12.4582 79.4019C-14.2999 78.3382 -14.927 75.9837 -13.8642 74.1462C-12.7949 72.3054 -10.4383 71.6764 -8.59331 72.7434L105.227 138.429ZM82.0675 144.791C84.0511 145.555 85.0379 147.778 84.2723 149.763C83.5066 151.746 81.2721 152.727 79.2853 151.963L6.63831 123.845C4.65467 123.081 3.66787 120.858 4.43355 118.872C5.19926 116.893 7.43372 115.908 9.41728 116.672L82.071 144.791H82.0675ZM99.8668 166.176C101.926 166.709 103.164 168.807 102.629 170.865C102.095 172.92 99.9922 174.151 97.9294 173.621L49.891 161.209C47.8281 160.676 46.5938 158.575 47.1219 156.52C47.6565 154.465 49.7623 153.23 51.8218 153.764L99.8668 166.176ZM11.107 143.247C13.1666 143.78 14.4042 145.878 13.8695 147.936C13.3349 149.991 11.2324 151.222 9.17621 150.689L-37.4731 138.64C-39.5359 138.106 -40.7703 136.008 -40.2422 133.95C-39.7075 131.896 -37.6018 130.661 -35.5423 131.194L11.107 143.247ZM95.5475 181.515C97.6763 181.604 99.3233 183.402 99.2342 185.523C99.1385 187.646 97.343 189.29 95.2175 189.201L-27.4661 183.83C-29.5916 183.741 -31.242 181.946 -31.1462 179.822C-31.0571 177.702 -29.2583 176.055 -27.1295 176.151L95.5457 181.518L95.5475 181.515ZM94.8808 211.988C96.9205 211.375 99.0691 212.521 99.683 214.55C100.304 216.578 99.1517 218.722 97.1185 219.341L-28.6575 257.6C-30.6906 258.212 -32.8458 257.066 -33.4598 255.038C-34.0803 253.009 -32.9284 250.865 -30.8952 250.246L94.8808 211.988ZM83.7514 233.222C85.6723 232.296 87.9761 233.1 88.9002 235.016C89.8277 236.93 89.0224 239.228 87.1081 240.153L16.9494 273.993C15.0319 274.918 12.7281 274.114 11.8006 272.198C10.8731 270.285 11.6785 267.983 13.5994 267.061L83.7546 233.222H83.7514ZM111.565 234.825C113.357 233.683 115.737 234.213 116.879 236.001C118.024 237.789 117.499 240.163 115.704 241.303L73.84 267.894C72.0478 269.036 69.6681 268.513 68.5261 266.721C67.3808 264.933 67.9122 262.559 69.7044 261.416L111.565 234.825ZM34.2209 283.96C36.013 282.817 38.3927 283.341 39.5347 285.132C40.68 286.92 40.1486 289.301 38.3564 290.437L-2.28884 316.261C-4.08102 317.397 -6.46067 316.874 -7.60597 315.086C-8.74468 313.298 -8.21987 310.923 -6.42772 309.781L34.2209 283.964L34.2209 283.96ZM119.863 248.435C121.381 246.943 123.823 246.966 125.315 248.481C126.81 249.992 126.787 252.426 125.272 253.921L37.6701 339.773C36.1519 341.265 33.7095 341.245 32.2144 339.73C30.7226 338.215 30.7424 335.778 32.2606 334.29L119.863 248.43L119.863 248.435ZM138.052 267.686C139.068 265.825 141.412 265.137 143.28 266.151C145.144 267.165 145.834 269.497 144.818 271.364L81.8206 386.511C80.804 388.374 78.4606 389.066 76.5926 388.048C74.7278 387.034 74.038 384.696 75.0546 382.832L138.052 267.686ZM145.006 290.628C145.719 288.626 147.927 287.589 149.927 288.307C151.927 289.018 152.97 291.221 152.25 293.217L125.876 366.38C125.163 368.376 122.955 369.417 120.955 368.699C118.955 367.987 117.912 365.784 118.631 363.789L145.006 290.632V290.628ZM165.98 272.339C166.462 270.268 168.541 268.977 170.617 269.461C172.693 269.942 173.987 272.016 173.499 274.088L165.284 309.316C164.802 311.387 162.723 312.678 160.653 312.191C158.571 311.71 157.28 309.642 157.769 307.564L165.984 272.343L165.98 272.339ZM145.203 361.445C145.685 359.374 147.758 358.083 149.841 358.567C151.913 359.054 153.204 361.122 152.722 363.194L141.801 410.02C141.319 412.092 139.239 413.382 137.163 412.898C135.087 412.418 133.793 410.343 134.282 408.272L145.203 361.445ZM179.72 367.573C179.753 365.449 181.503 363.754 183.628 363.786C185.757 363.819 187.45 365.565 187.417 367.692L186.82 398.906C186.787 401.027 185.038 402.719 182.906 402.686C180.78 402.653 179.084 400.908 179.117 398.781L179.717 367.57L179.72 367.573ZM188.89 282.564H181.153V274.849H188.89V282.564ZM188.89 297.992H181.153V290.277H188.89V297.992ZM185.025 347.453C189.174 347.453 192.936 345.777 195.656 343.064C198.375 340.35 200.062 336.596 200.062 332.457C200.062 328.311 198.379 324.56 195.656 321.844C192.936 319.13 189.173 317.447 185.025 317.447C180.869 317.447 177.11 319.127 174.387 321.844C171.667 324.557 169.981 328.311 169.981 332.457C169.981 336.596 171.664 340.35 174.387 343.064C177.107 345.777 180.869 347.453 185.025 347.453ZM201.122 348.517C197.006 352.63 191.313 355.172 185.025 355.172C178.737 355.172 173.044 352.627 168.921 348.517C164.799 344.404 162.251 338.727 162.251 332.457C162.251 326.184 164.802 320.503 168.921 316.39C173.044 312.277 178.733 309.735 185.025 309.735C191.312 309.735 197.006 312.28 201.122 316.39C205.244 320.503 207.792 326.18 207.792 332.457C207.792 338.727 205.241 344.404 201.122 348.517ZM181.153 5.2862H188.89V13.0049H181.153V5.2862ZM181.153 -41H188.89V-33.2813H181.153V-41ZM181.153 -25.5687H188.89V-17.8533H181.153V-25.5687ZM181.153 -10.1408H188.89V-2.42539H181.153V-10.1408ZM181.153 95.5133H188.89V103.229H181.153V95.5133ZM181.153 80.0855H188.89V87.8009H181.153V80.0855ZM185.025 21.7501C191.312 21.7501 197.006 24.2956 201.122 28.4053C205.244 32.5116 207.792 38.1951 207.792 44.4654C207.792 50.7386 205.241 56.4193 201.122 60.5323C197.006 64.6452 191.313 67.1874 185.025 67.1874C178.737 67.1874 173.044 64.642 168.921 60.5323C164.799 56.4193 162.251 50.7425 162.251 44.4654C162.251 38.1955 164.802 32.5116 168.921 28.4053C173.044 24.2923 178.733 21.7501 185.025 21.7501ZM195.656 33.8583C192.936 31.1448 189.173 29.4621 185.025 29.4621C180.869 29.4621 177.11 31.1416 174.387 33.8583C171.667 36.5717 169.981 40.3257 169.981 44.465C169.981 48.6109 171.664 52.3616 174.387 55.0785C177.107 57.7919 180.869 59.4746 185.025 59.4746C189.174 59.4746 192.936 57.7951 195.656 55.0785C198.375 52.365 200.062 48.611 200.062 44.465C200.062 40.3257 198.379 36.5717 195.656 33.8583ZM231.219 223.51C237.239 220.418 242.688 215.877 247.368 210.486H247.371C248.368 209.334 250.008 208.843 251.536 209.373C253.546 210.061 254.616 212.248 253.923 214.253C249.19 227.906 240.291 239.329 228.769 247.309C217.356 255.215 203.385 259.756 188.365 259.756C168.251 259.756 150.04 251.623 136.857 238.47C123.674 225.318 115.523 207.148 115.523 187.08C115.523 167.012 123.675 148.842 136.857 135.689C150.04 122.537 168.251 114.403 188.365 114.403C198.646 114.403 208.042 116.33 216.485 120.097C225.01 123.9 232.492 129.558 238.865 136.987H238.862C239.859 138.152 240.103 139.858 239.334 141.297C238.33 143.168 235.997 143.876 234.126 142.878C230.752 141.083 227.61 139.749 224.317 138.857C221.105 137.984 217.729 137.553 213.828 137.553C202.96 137.553 193.098 142.539 185.945 150.597C178.677 158.786 174.182 170.138 174.182 182.714C174.182 195.29 178.677 206.637 185.945 214.824C193.101 222.888 202.96 227.871 213.828 227.871C219.997 227.871 225.845 226.271 231.222 223.508L231.219 223.51Z"/>
</mask>
<path d="M237.116 229.06C236.334 229.514 235.545 229.942 234.746 230.354C228.297 233.667 221.267 235.59 213.824 235.59C200.662 235.59 188.767 229.603 180.172 219.922C171.693 210.365 166.445 197.21 166.445 182.717C166.445 168.218 171.693 155.062 180.172 145.513C188.763 135.832 200.658 129.845 213.824 129.845C215.646 129.845 217.372 129.924 219.039 130.092C217.204 128.988 215.299 128 213.342 127.121C205.929 123.815 197.582 122.123 188.364 122.123C170.383 122.123 154.108 129.393 142.323 141.153C130.54 152.908 123.256 169.146 123.256 187.086C123.256 205.026 130.543 221.265 142.323 233.02C154.108 244.779 170.387 252.05 188.364 252.05C201.767 252.05 214.217 248.013 224.357 240.986C229.179 237.647 233.479 233.636 237.117 229.065L237.116 229.06ZM87.4875 205.205L86.4907 197.559L94.1611 196.564L95.1578 204.217L87.4875 205.208V205.205ZM56.8157 209.18L55.819 201.527L63.4893 200.536L64.4828 208.189L56.819 209.18H56.8157ZM72.1495 207.191L71.1527 199.545L78.8231 198.55L79.8165 206.196L72.1528 207.191H72.1495ZM285.012 197.555L284.016 205.202L276.352 204.21L277.345 196.557L285.016 197.552L285.012 197.555ZM315.684 201.527L314.691 209.179L307.02 208.188L308.017 200.535L315.681 201.527H315.684ZM300.35 199.544L299.354 207.19L291.69 206.196L292.687 198.55L300.35 199.544ZM5.02247 216.724L3.91679 209.084L11.5674 207.984L12.673 215.617L5.02247 216.721V216.724ZM-40.8943 223.346L-42 215.706L-34.3494 214.606L-33.2438 222.24L-40.8943 223.343V223.346ZM-25.5935 221.136L-26.6959 213.503L-19.0453 212.4L-17.9397 220.033L-25.5968 221.136H-25.5935ZM-10.2859 218.927L-11.3916 211.294L-3.73446 210.191L-2.62879 217.83L-10.2859 218.93V218.927ZM365.994 206.862L364.998 214.508L357.334 213.514L358.327 205.867L365.998 206.862H365.994ZM412 212.819L411.007 220.472L403.336 219.477L404.333 211.831L411.997 212.822L412 212.819ZM396.666 210.83L395.673 218.483L388.002 217.488L388.999 209.842L396.663 210.833L396.666 210.83ZM381.332 208.841L380.336 216.494L372.672 215.499L373.665 207.853L381.336 208.844L381.332 208.841ZM214.037 98.1622C213.512 100.224 211.409 101.475 209.337 100.951C207.271 100.428 206.02 98.3269 206.544 96.2622L239.012 -30.8634C239.543 -32.9314 241.642 -34.1762 243.712 -33.6526C245.778 -33.129 247.032 -31.0281 246.507 -28.9634L214.033 98.1622H214.037ZM234.398 87.2099C233.566 89.1659 231.299 90.0748 229.338 89.245C227.378 88.4152 226.467 86.1528 227.298 84.1968L257.92 12.7055C258.759 10.7495 261.019 9.84063 262.983 10.6704C264.944 11.5002 265.855 13.7626 265.023 15.7186L234.394 87.2099H234.398ZM236.893 115.661C235.833 117.509 233.474 118.151 231.622 117.091C229.767 116.033 229.127 113.679 230.19 111.832L254.871 68.8778C255.93 67.0305 258.29 66.3883 260.142 67.4487C261.997 68.5057 262.637 70.8602 261.581 72.7076L236.896 115.661H236.893ZM282.496 36.2998C281.437 38.1472 279.08 38.7893 277.225 37.7289C275.374 36.6719 274.73 34.3174 275.793 32.47L299.764 -9.2395C300.821 -11.0869 303.18 -11.729 305.035 -10.6687C306.887 -9.61161 307.524 -7.26038 306.468 -5.40972L282.496 36.2998ZM249.953 124.596C248.534 126.177 246.101 126.315 244.517 124.899C242.933 123.487 242.801 121.056 244.213 119.476L326.109 28.1865C327.528 26.6058 329.964 26.4675 331.551 27.8835C333.132 29.2995 333.268 31.7265 331.848 33.3071L249.953 124.596ZM269.267 145.072C267.422 146.139 265.066 145.51 263.996 143.669C262.927 141.832 263.557 139.477 265.402 138.414L379.223 72.7283C381.064 71.6614 383.424 72.2903 384.494 74.1311C385.56 75.9686 384.929 78.3231 383.087 79.3868L269.267 145.072ZM291.341 151.951C289.357 152.715 287.126 151.734 286.357 149.752C285.591 147.769 286.575 145.546 288.562 144.779L361.209 116.661C363.196 115.897 365.43 116.881 366.196 118.86C366.962 120.843 365.975 123.066 363.991 123.833L327.664 137.892L291.337 151.951H291.341ZM272.693 173.609C270.634 174.139 268.535 172.904 268 170.853C267.465 168.795 268.7 166.697 270.763 166.164L318.801 153.752C320.864 153.219 322.966 154.457 323.501 156.508C324.036 158.563 322.801 160.664 320.738 161.197L272.693 173.609ZM361.453 150.677C359.394 151.21 357.288 149.979 356.76 147.924C356.225 145.866 357.459 143.768 359.519 143.235L406.168 131.182C408.231 130.649 410.334 131.887 410.868 133.938C411.403 135.996 410.168 138.094 408.106 138.628L361.456 150.677L361.453 150.677ZM275.414 189.189C273.285 189.278 271.486 187.634 271.397 185.51C271.308 183.39 272.955 181.592 275.084 181.503L397.759 176.135C399.885 176.04 401.68 177.69 401.776 179.807C401.865 181.931 400.218 183.726 398.089 183.815L275.414 189.185V189.189ZM273.513 219.333C271.48 218.714 270.328 216.57 270.945 214.542C271.566 212.513 273.714 211.364 275.747 211.98L401.523 250.238C403.556 250.857 404.708 253.001 404.091 255.029C403.477 257.058 401.322 258.207 399.289 257.591L273.513 219.333ZM283.524 240.142C281.606 239.216 280.804 236.918 281.725 235.005C282.652 233.088 284.956 232.285 286.877 233.21L357.032 267.049C358.95 267.971 359.752 270.273 358.831 272.186C357.904 274.103 355.6 274.906 353.679 273.981L283.524 240.142ZM254.925 241.294C253.132 240.158 252.608 237.781 253.746 235.993C254.892 234.205 257.271 233.674 259.063 234.817L300.924 261.408C302.716 262.551 303.247 264.925 302.102 266.713C300.963 268.501 298.577 269.025 296.785 267.885L254.925 241.294ZM332.268 290.429C330.476 289.293 329.951 286.912 331.09 285.124C332.235 283.336 334.615 282.812 336.407 283.952L377.053 309.769C378.845 310.912 379.376 313.286 378.231 315.074C377.092 316.862 374.709 317.386 372.917 316.25L332.268 290.426L332.268 290.429ZM245.359 253.913C243.841 252.422 243.821 249.985 245.313 248.473C246.808 246.959 249.25 246.936 250.769 248.427L338.362 334.288C339.881 335.776 339.904 338.21 338.409 339.728C336.917 341.242 334.478 341.262 332.956 339.77L245.354 253.919L245.359 253.913ZM225.813 271.356C224.797 269.492 225.483 267.161 227.351 266.143C229.219 265.129 231.563 265.817 232.579 267.678L295.576 382.824C296.593 384.688 295.903 387.026 294.035 388.04C292.167 389.055 289.83 388.366 288.81 386.503L225.813 271.356ZM218.374 293.208C217.654 291.213 218.701 289.013 220.701 288.299C222.701 287.581 224.906 288.618 225.622 290.62L251.996 363.777C252.716 365.773 251.676 367.973 249.673 368.687C247.673 369.405 245.468 368.368 244.748 366.369L218.374 293.205V293.208ZM197.126 274.08C196.644 272.009 197.934 269.934 200.01 269.453C202.086 268.972 204.159 270.26 204.648 272.331L212.863 307.553C213.344 309.631 212.054 311.699 209.978 312.18C207.902 312.667 205.829 311.376 205.341 309.305L197.126 274.076V274.08ZM217.906 363.186C217.424 361.114 218.711 359.046 220.787 358.559C222.863 358.078 224.943 359.366 225.424 361.437L236.346 408.264C236.828 410.335 235.537 412.41 233.461 412.89C231.385 413.371 229.313 412.084 228.831 410.012L217.909 363.186H217.906ZM164.078 96.2725C164.603 98.334 163.349 100.435 161.283 100.962C159.216 101.485 157.114 100.234 156.589 98.1726L124.115 -28.953C123.59 -31.0144 124.838 -33.1153 126.911 -33.6422C128.977 -34.1658 131.079 -32.9211 131.604 -30.853L164.078 96.2725ZM143.325 84.2074C144.157 86.1635 143.246 88.4225 141.285 89.2556C139.325 90.0854 137.061 89.1766 136.226 87.2205L105.597 15.7292C104.765 13.7732 105.676 11.5142 107.637 10.681C109.597 9.85118 111.861 10.7601 112.696 12.7161L143.325 84.2074ZM140.44 111.842C141.5 113.689 140.856 116.044 139.008 117.101C137.153 118.158 134.796 117.516 133.737 115.672L109.052 72.7181C107.993 70.8707 108.636 68.5162 110.485 67.4591C112.34 66.4021 114.696 67.0442 115.756 68.8883L140.44 111.842ZM94.8369 32.4805C95.8964 34.3278 95.2528 36.6823 93.3979 37.7394C91.5464 38.7964 89.1865 38.1543 88.1303 36.3102L64.1588 -5.39927C63.0994 -7.24992 63.743 -9.60115 65.5912 -10.6582C67.4428 -11.7152 69.8027 -11.0731 70.8622 -9.22905L94.8336 32.4805H94.8369ZM126.409 119.487C127.829 121.068 127.693 123.501 126.106 124.911C124.525 126.327 122.089 126.192 120.673 124.608L38.7742 33.3186C37.3549 31.7379 37.4903 29.311 39.0778 27.895C40.662 26.479 43.0945 26.6141 44.5137 28.198L126.409 119.487ZM105.227 138.429C107.072 139.492 107.702 141.847 106.633 143.685C105.564 145.525 103.204 146.154 101.362 145.087L-12.4582 79.4019C-14.2999 78.3382 -14.927 75.9837 -13.8642 74.1462C-12.7949 72.3054 -10.4383 71.6764 -8.59331 72.7434L105.227 138.429ZM82.0675 144.791C84.0511 145.555 85.0379 147.778 84.2723 149.763C83.5066 151.746 81.2721 152.727 79.2853 151.963L6.63831 123.845C4.65467 123.081 3.66787 120.858 4.43355 118.872C5.19926 116.893 7.43372 115.908 9.41728 116.672L82.071 144.791H82.0675ZM99.8668 166.176C101.926 166.709 103.164 168.807 102.629 170.865C102.095 172.92 99.9922 174.151 97.9294 173.621L49.891 161.209C47.8281 160.676 46.5938 158.575 47.1219 156.52C47.6565 154.465 49.7623 153.23 51.8218 153.764L99.8668 166.176ZM11.107 143.247C13.1666 143.78 14.4042 145.878 13.8695 147.936C13.3349 149.991 11.2324 151.222 9.17621 150.689L-37.4731 138.64C-39.5359 138.106 -40.7703 136.008 -40.2422 133.95C-39.7075 131.896 -37.6018 130.661 -35.5423 131.194L11.107 143.247ZM95.5475 181.515C97.6763 181.604 99.3233 183.402 99.2342 185.523C99.1385 187.646 97.343 189.29 95.2175 189.201L-27.4661 183.83C-29.5916 183.741 -31.242 181.946 -31.1462 179.822C-31.0571 177.702 -29.2583 176.055 -27.1295 176.151L95.5457 181.518L95.5475 181.515ZM94.8808 211.988C96.9205 211.375 99.0691 212.521 99.683 214.55C100.304 216.578 99.1517 218.722 97.1185 219.341L-28.6575 257.6C-30.6906 258.212 -32.8458 257.066 -33.4598 255.038C-34.0803 253.009 -32.9284 250.865 -30.8952 250.246L94.8808 211.988ZM83.7514 233.222C85.6723 232.296 87.9761 233.1 88.9002 235.016C89.8277 236.93 89.0224 239.228 87.1081 240.153L16.9494 273.993C15.0319 274.918 12.7281 274.114 11.8006 272.198C10.8731 270.285 11.6785 267.983 13.5994 267.061L83.7546 233.222H83.7514ZM111.565 234.825C113.357 233.683 115.737 234.213 116.879 236.001C118.024 237.789 117.499 240.163 115.704 241.303L73.84 267.894C72.0478 269.036 69.6681 268.513 68.5261 266.721C67.3808 264.933 67.9122 262.559 69.7044 261.416L111.565 234.825ZM34.2209 283.96C36.013 282.817 38.3927 283.341 39.5347 285.132C40.68 286.92 40.1486 289.301 38.3564 290.437L-2.28884 316.261C-4.08102 317.397 -6.46067 316.874 -7.60597 315.086C-8.74468 313.298 -8.21987 310.923 -6.42772 309.781L34.2209 283.964L34.2209 283.96ZM119.863 248.435C121.381 246.943 123.823 246.966 125.315 248.481C126.81 249.992 126.787 252.426 125.272 253.921L37.6701 339.773C36.1519 341.265 33.7095 341.245 32.2144 339.73C30.7226 338.215 30.7424 335.778 32.2606 334.29L119.863 248.43L119.863 248.435ZM138.052 267.686C139.068 265.825 141.412 265.137 143.28 266.151C145.144 267.165 145.834 269.497 144.818 271.364L81.8206 386.511C80.804 388.374 78.4606 389.066 76.5926 388.048C74.7278 387.034 74.038 384.696 75.0546 382.832L138.052 267.686ZM145.006 290.628C145.719 288.626 147.927 287.589 149.927 288.307C151.927 289.018 152.97 291.221 152.25 293.217L125.876 366.38C125.163 368.376 122.955 369.417 120.955 368.699C118.955 367.987 117.912 365.784 118.631 363.789L145.006 290.632V290.628ZM165.98 272.339C166.462 270.268 168.541 268.977 170.617 269.461C172.693 269.942 173.987 272.016 173.499 274.088L165.284 309.316C164.802 311.387 162.723 312.678 160.653 312.191C158.571 311.71 157.28 309.642 157.769 307.564L165.984 272.343L165.98 272.339ZM145.203 361.445C145.685 359.374 147.758 358.083 149.841 358.567C151.913 359.054 153.204 361.122 152.722 363.194L141.801 410.02C141.319 412.092 139.239 413.382 137.163 412.898C135.087 412.418 133.793 410.343 134.282 408.272L145.203 361.445ZM179.72 367.573C179.753 365.449 181.503 363.754 183.628 363.786C185.757 363.819 187.45 365.565 187.417 367.692L186.82 398.906C186.787 401.027 185.038 402.719 182.906 402.686C180.78 402.653 179.084 400.908 179.117 398.781L179.717 367.57L179.72 367.573ZM188.89 282.564H181.153V274.849H188.89V282.564ZM188.89 297.992H181.153V290.277H188.89V297.992ZM185.025 347.453C189.174 347.453 192.936 345.777 195.656 343.064C198.375 340.35 200.062 336.596 200.062 332.457C200.062 328.311 198.379 324.56 195.656 321.844C192.936 319.13 189.173 317.447 185.025 317.447C180.869 317.447 177.11 319.127 174.387 321.844C171.667 324.557 169.981 328.311 169.981 332.457C169.981 336.596 171.664 340.35 174.387 343.064C177.107 345.777 180.869 347.453 185.025 347.453ZM201.122 348.517C197.006 352.63 191.313 355.172 185.025 355.172C178.737 355.172 173.044 352.627 168.921 348.517C164.799 344.404 162.251 338.727 162.251 332.457C162.251 326.184 164.802 320.503 168.921 316.39C173.044 312.277 178.733 309.735 185.025 309.735C191.312 309.735 197.006 312.28 201.122 316.39C205.244 320.503 207.792 326.18 207.792 332.457C207.792 338.727 205.241 344.404 201.122 348.517ZM181.153 5.2862H188.89V13.0049H181.153V5.2862ZM181.153 -41H188.89V-33.2813H181.153V-41ZM181.153 -25.5687H188.89V-17.8533H181.153V-25.5687ZM181.153 -10.1408H188.89V-2.42539H181.153V-10.1408ZM181.153 95.5133H188.89V103.229H181.153V95.5133ZM181.153 80.0855H188.89V87.8009H181.153V80.0855ZM185.025 21.7501C191.312 21.7501 197.006 24.2956 201.122 28.4053C205.244 32.5116 207.792 38.1951 207.792 44.4654C207.792 50.7386 205.241 56.4193 201.122 60.5323C197.006 64.6452 191.313 67.1874 185.025 67.1874C178.737 67.1874 173.044 64.642 168.921 60.5323C164.799 56.4193 162.251 50.7425 162.251 44.4654C162.251 38.1955 164.802 32.5116 168.921 28.4053C173.044 24.2923 178.733 21.7501 185.025 21.7501ZM195.656 33.8583C192.936 31.1448 189.173 29.4621 185.025 29.4621C180.869 29.4621 177.11 31.1416 174.387 33.8583C171.667 36.5717 169.981 40.3257 169.981 44.465C169.981 48.6109 171.664 52.3616 174.387 55.0785C177.107 57.7919 180.869 59.4746 185.025 59.4746C189.174 59.4746 192.936 57.7951 195.656 55.0785C198.375 52.365 200.062 48.611 200.062 44.465C200.062 40.3257 198.379 36.5717 195.656 33.8583ZM231.219 223.51C237.239 220.418 242.688 215.877 247.368 210.486H247.371C248.368 209.334 250.008 208.843 251.536 209.373C253.546 210.061 254.616 212.248 253.923 214.253C249.19 227.906 240.291 239.329 228.769 247.309C217.356 255.215 203.385 259.756 188.365 259.756C168.251 259.756 150.04 251.623 136.857 238.47C123.674 225.318 115.523 207.148 115.523 187.08C115.523 167.012 123.675 148.842 136.857 135.689C150.04 122.537 168.251 114.403 188.365 114.403C198.646 114.403 208.042 116.33 216.485 120.097C225.01 123.9 232.492 129.558 238.865 136.987H238.862C239.859 138.152 240.103 139.858 239.334 141.297C238.33 143.168 235.997 143.876 234.126 142.878C230.752 141.083 227.61 139.749 224.317 138.857C221.105 137.984 217.729 137.553 213.828 137.553C202.96 137.553 193.098 142.539 185.945 150.597C178.677 158.786 174.182 170.138 174.182 182.714C174.182 195.29 178.677 206.637 185.945 214.824C193.101 222.888 202.96 227.871 213.828 227.871C219.997 227.871 225.845 226.271 231.222 223.508L231.219 223.51Z" fill="#E2EDFF" stroke="#D7E1EE" stroke-width="4" mask="url(#path-1-inside-1_604_6)"/>
</svg>
