<svg width="412" height="372" viewBox="0 0 412 372" fill="none" xmlns="http://www.w3.org/2000/svg">
<mask id="path-1-inside-1_604_93" fill="white">
<path d="M174.884 229.06C175.666 229.514 176.455 229.942 177.254 230.354C183.703 233.667 190.733 235.59 198.176 235.59C211.338 235.59 223.233 229.603 231.828 219.922C240.307 210.365 245.555 197.21 245.555 182.717C245.555 168.218 240.307 155.062 231.828 145.513C223.237 135.832 211.342 129.845 198.176 129.845C196.354 129.845 194.628 129.924 192.961 130.092C194.796 128.988 196.701 128 198.658 127.121C206.071 123.815 214.418 122.123 223.636 122.123C241.617 122.123 257.892 129.393 269.677 141.153C281.46 152.908 288.744 169.146 288.744 187.086C288.744 205.026 281.457 221.265 269.677 233.02C257.892 244.779 241.613 252.05 223.636 252.05C210.233 252.05 197.783 248.013 187.643 240.986C182.821 237.647 178.521 233.636 174.883 229.065L174.884 229.06ZM324.513 205.205L325.509 197.559L317.839 196.564L316.842 204.217L324.513 205.208V205.205ZM355.184 209.18L356.181 201.527L348.511 200.536L347.517 208.189L355.181 209.18H355.184ZM339.851 207.191L340.847 199.545L333.177 198.55L332.183 206.196L339.847 207.191H339.851ZM126.988 197.555L127.984 205.202L135.648 204.21L134.655 196.557L126.984 197.552L126.988 197.555ZM96.3159 201.527L97.3094 209.179L104.98 208.188L103.983 200.535L96.3192 201.527H96.3159ZM111.65 199.544L112.646 207.19L120.31 206.196L119.313 198.55L111.65 199.544ZM406.978 216.724L408.083 209.084L400.433 207.984L399.327 215.617L406.978 216.721V216.724ZM452.894 223.346L454 215.706L446.349 214.606L445.244 222.24L452.894 223.343V223.346ZM437.594 221.136L438.696 213.503L431.045 212.4L429.94 220.033L437.597 221.136H437.594ZM422.286 218.927L423.392 211.294L415.734 210.191L414.629 217.83L422.286 218.93V218.927ZM46.0055 206.862L47.0023 214.508L54.666 213.514L53.6726 205.867L46.0022 206.862H46.0055ZM-1.51728e-05 212.819L0.993462 220.472L8.6638 219.477L7.66708 211.831L0.00331111 212.822L-1.51728e-05 212.819ZM15.3338 210.83L16.3272 218.483L23.9976 217.488L23.0008 209.842L15.3371 210.833L15.3338 210.83ZM30.6675 208.841L31.6643 216.494L39.3281 215.499L38.3346 207.853L30.6642 208.844L30.6675 208.841ZM197.963 98.1622C198.488 100.224 200.591 101.475 202.663 100.951C204.729 100.428 205.98 98.3269 205.456 96.2622L172.988 -30.8634C172.457 -32.9314 170.358 -34.1762 168.288 -33.6526C166.222 -33.129 164.968 -31.0281 165.493 -28.9634L197.967 98.1622H197.963ZM177.602 87.2099C178.434 89.1659 180.701 90.0748 182.662 89.245C184.622 88.4152 185.533 86.1528 184.702 84.1968L154.08 12.7055C153.241 10.7495 150.981 9.84063 149.017 10.6704C147.056 11.5002 146.145 13.7626 146.977 15.7186L177.606 87.2099H177.602ZM175.107 115.661C176.167 117.509 178.526 118.151 180.378 117.091C182.233 116.033 182.873 113.679 181.81 111.832L157.129 68.8778C156.07 67.0305 153.71 66.3883 151.858 67.4487C150.003 68.5057 149.363 70.8602 150.419 72.7076L175.104 115.661H175.107ZM129.504 36.2998C130.563 38.1472 132.92 38.7893 134.775 37.7289C136.626 36.6719 137.27 34.3174 136.207 32.47L112.236 -9.2395C111.179 -11.0869 108.82 -11.729 106.965 -10.6687C105.113 -9.61161 104.476 -7.26038 105.532 -5.40972L129.504 36.2998ZM162.047 124.596C163.466 126.177 165.899 126.315 167.483 124.899C169.067 123.487 169.199 121.056 167.787 119.476L85.8911 28.1865C84.4719 26.6058 82.0361 26.4675 80.4486 27.8835C78.8676 29.2995 78.7324 31.7265 80.1515 33.3071L162.047 124.596ZM142.733 145.072C144.578 146.139 146.934 145.51 148.004 143.669C149.073 141.832 148.443 139.477 146.598 138.414L32.7774 72.7283C30.9357 71.6614 28.5758 72.2903 27.5065 74.1311C26.4404 75.9686 27.0708 78.3231 28.9125 79.3868L142.733 145.072ZM120.659 151.951C122.643 152.715 124.874 151.734 125.643 149.752C126.409 147.769 125.425 145.546 123.438 144.779L50.7911 116.661C48.8042 115.897 46.5698 116.881 45.8041 118.86C45.0384 120.843 46.0252 123.066 48.0088 123.833L84.3357 137.892L120.663 151.951H120.659ZM139.307 173.609C141.366 174.139 143.465 172.904 144 170.853C144.535 168.795 143.3 166.697 141.237 166.164L93.1991 153.752C91.1363 153.219 89.0338 154.457 88.4992 156.508C87.9645 158.563 89.1989 160.664 91.2617 161.197L139.307 173.609ZM50.5469 150.677C52.6064 151.21 54.7122 149.979 55.2402 147.924C55.7749 145.866 54.5406 143.768 52.4811 143.235L5.83174 131.182C3.76893 130.649 1.66648 131.887 1.13181 133.938C0.597133 135.996 1.8315 138.094 3.89429 138.628L50.5436 150.677L50.5469 150.677ZM136.586 189.189C138.715 189.278 140.514 187.634 140.603 185.51C140.692 183.39 139.045 181.592 136.916 181.503L14.2408 176.135C12.1153 176.04 10.3199 177.69 10.2241 179.807C10.135 181.931 11.782 183.726 13.9108 183.815L136.586 189.185V189.189ZM138.487 219.333C140.52 218.714 141.672 216.57 141.055 214.542C140.434 212.513 138.286 211.364 136.253 211.98L10.4766 250.238C8.44356 250.857 7.29164 253.001 7.90877 255.029C8.52266 257.058 10.6779 258.207 12.711 257.591L138.487 219.333ZM128.476 240.142C130.394 239.216 131.196 236.918 130.275 235.005C129.348 233.088 127.044 232.285 125.123 233.21L54.9677 267.049C53.0502 267.971 52.2481 270.273 53.169 272.186C54.0965 274.103 56.4001 274.906 58.3211 273.981L128.476 240.142ZM157.075 241.294C158.868 240.158 159.392 237.781 158.254 235.993C157.108 234.205 154.729 233.674 152.937 234.817L111.076 261.408C109.284 262.551 108.753 264.925 109.898 266.713C111.037 268.501 113.423 269.025 115.215 267.885L157.075 241.294ZM79.7316 290.429C81.5238 289.293 82.0485 286.912 80.9098 285.124C79.7645 283.336 77.3849 282.812 75.5927 283.952L34.9474 309.769C33.1552 310.912 32.6239 313.286 33.7692 315.074C34.9079 316.862 37.2908 317.386 39.083 316.25L79.7317 290.426L79.7316 290.429ZM166.641 253.913C168.159 252.422 168.179 249.985 166.687 248.473C165.192 246.959 162.75 246.936 161.231 248.427L73.6377 334.288C72.1195 335.776 72.0964 338.21 73.5915 339.728C75.0833 341.242 77.5224 341.262 79.0439 339.77L166.646 253.919L166.641 253.913ZM186.187 271.356C187.203 269.492 186.517 267.161 184.649 266.143C182.781 265.129 180.437 265.817 179.421 267.678L116.424 382.824C115.407 384.688 116.097 387.026 117.965 388.04C119.833 389.055 122.17 388.366 123.19 386.503L186.187 271.356ZM193.626 293.208C194.346 291.213 193.299 289.013 191.299 288.299C189.299 287.581 187.094 288.618 186.378 290.62L160.004 363.777C159.284 365.773 160.324 367.973 162.327 368.687C164.327 369.405 166.532 368.368 167.252 366.369L193.626 293.205V293.208ZM214.874 274.08C215.356 272.009 214.066 269.934 211.99 269.453C209.914 268.972 207.841 270.26 207.352 272.331L199.137 307.553C198.656 309.631 199.946 311.699 202.022 312.18C204.098 312.667 206.171 311.376 206.659 309.305L214.874 274.076V274.08ZM194.094 363.186C194.576 361.114 193.289 359.046 191.213 358.559C189.137 358.078 187.057 359.366 186.576 361.437L175.654 408.264C175.172 410.335 176.463 412.41 178.539 412.89C180.615 413.371 182.687 412.084 183.169 410.012L194.091 363.186H194.094ZM247.922 96.2725C247.397 98.334 248.651 100.435 250.717 100.962C252.784 101.485 254.886 100.234 255.411 98.1726L287.885 -28.953C288.41 -31.0144 287.162 -33.1153 285.089 -33.6422C283.023 -34.1658 280.921 -32.9211 280.396 -30.853L247.922 96.2725ZM268.675 84.2074C267.843 86.1635 268.754 88.4225 270.715 89.2556C272.675 90.0854 274.939 89.1766 275.774 87.2205L306.403 15.7292C307.235 13.7732 306.324 11.5142 304.363 10.681C302.403 9.85118 300.139 10.7601 299.304 12.7161L268.675 84.2074ZM271.56 111.842C270.5 113.689 271.144 116.044 272.992 117.101C274.847 118.158 277.204 117.516 278.263 115.672L302.948 72.7181C304.007 70.8707 303.364 68.5162 301.515 67.4591C299.66 66.4021 297.304 67.0442 296.244 68.8883L271.56 111.842ZM317.163 32.4805C316.104 34.3278 316.747 36.6823 318.602 37.7394C320.454 38.7964 322.814 38.1543 323.87 36.3102L347.841 -5.39927C348.901 -7.24992 348.257 -9.60115 346.409 -10.6582C344.557 -11.7152 342.197 -11.0731 341.138 -9.22905L317.166 32.4805H317.163ZM285.591 119.487C284.171 121.068 284.307 123.501 285.894 124.911C287.475 126.327 289.911 126.192 291.327 124.608L373.226 33.3186C374.645 31.7379 374.51 29.311 372.922 27.895C371.338 26.479 368.905 26.6141 367.486 28.198L285.591 119.487ZM306.773 138.429C304.928 139.492 304.298 141.847 305.367 143.685C306.436 145.525 308.796 146.154 310.638 145.087L424.458 79.4019C426.3 78.3382 426.927 75.9837 425.864 74.1462C424.795 72.3054 422.438 71.6764 420.593 72.7434L306.773 138.429ZM329.932 144.791C327.949 145.555 326.962 147.778 327.728 149.763C328.493 151.746 330.728 152.727 332.715 151.963L405.362 123.845C407.345 123.081 408.332 120.858 407.566 118.872C406.801 116.893 404.566 115.908 402.583 116.672L329.929 144.791H329.932ZM312.133 166.176C310.074 166.709 308.836 168.807 309.371 170.865C309.905 172.92 312.008 174.151 314.071 173.621L362.109 161.209C364.172 160.676 365.406 158.575 364.878 156.52C364.343 154.465 362.238 153.23 360.178 153.764L312.133 166.176ZM400.893 143.247C398.833 143.78 397.596 145.878 398.13 147.936C398.665 149.991 400.768 151.222 402.824 150.689L449.473 138.64C451.536 138.106 452.77 136.008 452.242 133.95C451.708 131.896 449.602 130.661 447.542 131.194L400.893 143.247ZM316.452 181.515C314.324 181.604 312.677 183.402 312.766 185.523C312.862 187.646 314.657 189.29 316.783 189.201L439.466 183.83C441.592 183.741 443.242 181.946 443.146 179.822C443.057 177.702 441.258 176.055 439.13 176.151L316.454 181.518L316.452 181.515ZM317.119 211.988C315.079 211.375 312.931 212.521 312.317 214.55C311.696 216.578 312.848 218.722 314.881 219.341L440.658 257.6C442.691 258.212 444.846 257.066 445.46 255.038C446.08 253.009 444.928 250.865 442.895 250.246L317.119 211.988ZM328.249 233.222C326.328 232.296 324.024 233.1 323.1 235.016C322.172 236.93 322.978 239.228 324.892 240.153L395.051 273.993C396.968 274.918 399.272 274.114 400.199 272.198C401.127 270.285 400.322 267.983 398.401 267.061L328.245 233.222H328.249ZM300.435 234.825C298.643 233.683 296.263 234.213 295.121 236.001C293.976 237.789 294.501 240.163 296.296 241.303L338.16 267.894C339.952 269.036 342.332 268.513 343.474 266.721C344.619 264.933 344.088 262.559 342.296 261.416L300.435 234.825ZM377.779 283.96C375.987 282.817 373.607 283.341 372.465 285.132C371.32 286.92 371.851 289.301 373.644 290.437L414.289 316.261C416.081 317.397 418.461 316.874 419.606 315.086C420.745 313.298 420.22 310.923 418.428 309.781L377.779 283.964L377.779 283.96ZM292.137 248.435C290.619 246.943 288.177 246.966 286.685 248.481C285.19 249.992 285.213 252.426 286.728 253.921L374.33 339.773C375.848 341.265 378.29 341.245 379.786 339.73C381.277 338.215 381.258 335.778 379.739 334.29L292.137 248.43L292.137 248.435ZM273.948 267.686C272.932 265.825 270.588 265.137 268.72 266.151C266.856 267.165 266.166 269.497 267.182 271.364L330.179 386.511C331.196 388.374 333.539 389.066 335.407 388.048C337.272 387.034 337.962 384.696 336.945 382.832L273.948 267.686ZM266.994 290.628C266.281 288.626 264.073 287.589 262.073 288.307C260.073 289.018 259.03 291.221 259.75 293.217L286.124 366.38C286.837 368.376 289.045 369.417 291.045 368.699C293.045 367.987 294.088 365.784 293.369 363.789L266.994 290.632V290.628ZM246.02 272.339C245.538 270.268 243.459 268.977 241.383 269.461C239.307 269.942 238.013 272.016 238.501 274.088L246.716 309.316C247.198 311.387 249.277 312.678 251.347 312.191C253.429 311.71 254.72 309.642 254.231 307.564L246.016 272.343L246.02 272.339ZM266.797 361.445C266.315 359.374 264.242 358.083 262.159 358.567C260.087 359.054 258.796 361.122 259.278 363.194L270.199 410.02C270.681 412.092 272.761 413.382 274.837 412.898C276.913 412.418 278.207 410.343 277.718 408.272L266.797 361.445ZM232.28 367.573C232.247 365.449 230.497 363.754 228.372 363.786C226.243 363.819 224.55 365.565 224.583 367.692L225.18 398.906C225.213 401.027 226.962 402.719 229.094 402.686C231.22 402.653 232.916 400.908 232.883 398.781L232.283 367.57L232.28 367.573ZM223.11 282.564H230.847V274.849H223.11V282.564ZM223.11 297.992H230.847V290.277H223.11V297.992ZM226.975 347.453C222.826 347.453 219.064 345.777 216.344 343.064C213.625 340.35 211.938 336.596 211.938 332.457C211.938 328.311 213.621 324.56 216.344 321.844C219.064 319.13 222.827 317.447 226.975 317.447C231.131 317.447 234.89 319.127 237.613 321.844C240.333 324.557 242.019 328.311 242.019 332.457C242.019 336.596 240.336 340.35 237.613 343.064C234.893 345.777 231.131 347.453 226.975 347.453ZM210.878 348.517C214.994 352.63 220.687 355.172 226.975 355.172C233.263 355.172 238.956 352.627 243.079 348.517C247.201 344.404 249.749 338.727 249.749 332.457C249.749 326.184 247.198 320.503 243.079 316.39C238.956 312.277 233.267 309.735 226.975 309.735C220.688 309.735 214.994 312.28 210.878 316.39C206.756 320.503 204.208 326.18 204.208 332.457C204.208 338.727 206.759 344.404 210.878 348.517ZM230.847 5.2862H223.11V13.0049H230.847V5.2862ZM230.847 -41H223.11V-33.2813H230.847V-41ZM230.847 -25.5687H223.11V-17.8533H230.847V-25.5687ZM230.847 -10.1408H223.11V-2.42539H230.847V-10.1408ZM230.847 95.5133H223.11V103.229H230.847V95.5133ZM230.847 80.0855H223.11V87.8009H230.847V80.0855ZM226.975 21.7501C220.688 21.7501 214.994 24.2956 210.878 28.4053C206.756 32.5116 204.208 38.1951 204.208 44.4654C204.208 50.7386 206.759 56.4193 210.878 60.5323C214.994 64.6452 220.687 67.1874 226.975 67.1874C233.263 67.1874 238.956 64.642 243.079 60.5323C247.201 56.4193 249.749 50.7425 249.749 44.4654C249.749 38.1955 247.198 32.5116 243.079 28.4053C238.956 24.2923 233.267 21.7501 226.975 21.7501ZM216.344 33.8583C219.064 31.1448 222.827 29.4621 226.975 29.4621C231.131 29.4621 234.89 31.1416 237.613 33.8583C240.333 36.5717 242.019 40.3257 242.019 44.465C242.019 48.6109 240.336 52.3616 237.613 55.0785C234.893 57.7919 231.131 59.4746 226.975 59.4746C222.826 59.4746 219.064 57.7951 216.344 55.0785C213.625 52.365 211.938 48.611 211.938 44.465C211.938 40.3257 213.621 36.5717 216.344 33.8583ZM180.781 223.51C174.761 220.418 169.312 215.877 164.632 210.486H164.629C163.632 209.334 161.992 208.843 160.464 209.373C158.454 210.061 157.384 212.248 158.077 214.253C162.81 227.906 171.709 239.329 183.231 247.309C194.644 255.215 208.615 259.756 223.635 259.756C243.749 259.756 261.96 251.623 275.143 238.47C288.326 225.318 296.477 207.148 296.477 187.08C296.477 167.012 288.325 148.842 275.143 135.689C261.96 122.537 243.749 114.403 223.635 114.403C213.354 114.403 203.958 116.33 195.515 120.097C186.99 123.9 179.508 129.558 173.135 136.987H173.138C172.141 138.152 171.897 139.858 172.666 141.297C173.67 143.168 176.003 143.876 177.874 142.878C181.248 141.083 184.39 139.749 187.683 138.857C190.895 137.984 194.271 137.553 198.172 137.553C209.04 137.553 218.902 142.539 226.055 150.597C233.323 158.786 237.818 170.138 237.818 182.714C237.818 195.29 233.323 206.637 226.055 214.824C218.899 222.888 209.04 227.871 198.172 227.871C192.003 227.871 186.155 226.271 180.778 223.508L180.781 223.51Z"/>
</mask>
<path d="M174.884 229.06C175.666 229.514 176.455 229.942 177.254 230.354C183.703 233.667 190.733 235.59 198.176 235.59C211.338 235.59 223.233 229.603 231.828 219.922C240.307 210.365 245.555 197.21 245.555 182.717C245.555 168.218 240.307 155.062 231.828 145.513C223.237 135.832 211.342 129.845 198.176 129.845C196.354 129.845 194.628 129.924 192.961 130.092C194.796 128.988 196.701 128 198.658 127.121C206.071 123.815 214.418 122.123 223.636 122.123C241.617 122.123 257.892 129.393 269.677 141.153C281.46 152.908 288.744 169.146 288.744 187.086C288.744 205.026 281.457 221.265 269.677 233.02C257.892 244.779 241.613 252.05 223.636 252.05C210.233 252.05 197.783 248.013 187.643 240.986C182.821 237.647 178.521 233.636 174.883 229.065L174.884 229.06ZM324.513 205.205L325.509 197.559L317.839 196.564L316.842 204.217L324.513 205.208V205.205ZM355.184 209.18L356.181 201.527L348.511 200.536L347.517 208.189L355.181 209.18H355.184ZM339.851 207.191L340.847 199.545L333.177 198.55L332.183 206.196L339.847 207.191H339.851ZM126.988 197.555L127.984 205.202L135.648 204.21L134.655 196.557L126.984 197.552L126.988 197.555ZM96.3159 201.527L97.3094 209.179L104.98 208.188L103.983 200.535L96.3192 201.527H96.3159ZM111.65 199.544L112.646 207.19L120.31 206.196L119.313 198.55L111.65 199.544ZM406.978 216.724L408.083 209.084L400.433 207.984L399.327 215.617L406.978 216.721V216.724ZM452.894 223.346L454 215.706L446.349 214.606L445.244 222.24L452.894 223.343V223.346ZM437.594 221.136L438.696 213.503L431.045 212.4L429.94 220.033L437.597 221.136H437.594ZM422.286 218.927L423.392 211.294L415.734 210.191L414.629 217.83L422.286 218.93V218.927ZM46.0055 206.862L47.0023 214.508L54.666 213.514L53.6726 205.867L46.0022 206.862H46.0055ZM-1.51728e-05 212.819L0.993462 220.472L8.6638 219.477L7.66708 211.831L0.00331111 212.822L-1.51728e-05 212.819ZM15.3338 210.83L16.3272 218.483L23.9976 217.488L23.0008 209.842L15.3371 210.833L15.3338 210.83ZM30.6675 208.841L31.6643 216.494L39.3281 215.499L38.3346 207.853L30.6642 208.844L30.6675 208.841ZM197.963 98.1622C198.488 100.224 200.591 101.475 202.663 100.951C204.729 100.428 205.98 98.3269 205.456 96.2622L172.988 -30.8634C172.457 -32.9314 170.358 -34.1762 168.288 -33.6526C166.222 -33.129 164.968 -31.0281 165.493 -28.9634L197.967 98.1622H197.963ZM177.602 87.2099C178.434 89.1659 180.701 90.0748 182.662 89.245C184.622 88.4152 185.533 86.1528 184.702 84.1968L154.08 12.7055C153.241 10.7495 150.981 9.84063 149.017 10.6704C147.056 11.5002 146.145 13.7626 146.977 15.7186L177.606 87.2099H177.602ZM175.107 115.661C176.167 117.509 178.526 118.151 180.378 117.091C182.233 116.033 182.873 113.679 181.81 111.832L157.129 68.8778C156.07 67.0305 153.71 66.3883 151.858 67.4487C150.003 68.5057 149.363 70.8602 150.419 72.7076L175.104 115.661H175.107ZM129.504 36.2998C130.563 38.1472 132.92 38.7893 134.775 37.7289C136.626 36.6719 137.27 34.3174 136.207 32.47L112.236 -9.2395C111.179 -11.0869 108.82 -11.729 106.965 -10.6687C105.113 -9.61161 104.476 -7.26038 105.532 -5.40972L129.504 36.2998ZM162.047 124.596C163.466 126.177 165.899 126.315 167.483 124.899C169.067 123.487 169.199 121.056 167.787 119.476L85.8911 28.1865C84.4719 26.6058 82.0361 26.4675 80.4486 27.8835C78.8676 29.2995 78.7324 31.7265 80.1515 33.3071L162.047 124.596ZM142.733 145.072C144.578 146.139 146.934 145.51 148.004 143.669C149.073 141.832 148.443 139.477 146.598 138.414L32.7774 72.7283C30.9357 71.6614 28.5758 72.2903 27.5065 74.1311C26.4404 75.9686 27.0708 78.3231 28.9125 79.3868L142.733 145.072ZM120.659 151.951C122.643 152.715 124.874 151.734 125.643 149.752C126.409 147.769 125.425 145.546 123.438 144.779L50.7911 116.661C48.8042 115.897 46.5698 116.881 45.8041 118.86C45.0384 120.843 46.0252 123.066 48.0088 123.833L84.3357 137.892L120.663 151.951H120.659ZM139.307 173.609C141.366 174.139 143.465 172.904 144 170.853C144.535 168.795 143.3 166.697 141.237 166.164L93.1991 153.752C91.1363 153.219 89.0338 154.457 88.4992 156.508C87.9645 158.563 89.1989 160.664 91.2617 161.197L139.307 173.609ZM50.5469 150.677C52.6064 151.21 54.7122 149.979 55.2402 147.924C55.7749 145.866 54.5406 143.768 52.4811 143.235L5.83174 131.182C3.76893 130.649 1.66648 131.887 1.13181 133.938C0.597133 135.996 1.8315 138.094 3.89429 138.628L50.5436 150.677L50.5469 150.677ZM136.586 189.189C138.715 189.278 140.514 187.634 140.603 185.51C140.692 183.39 139.045 181.592 136.916 181.503L14.2408 176.135C12.1153 176.04 10.3199 177.69 10.2241 179.807C10.135 181.931 11.782 183.726 13.9108 183.815L136.586 189.185V189.189ZM138.487 219.333C140.52 218.714 141.672 216.57 141.055 214.542C140.434 212.513 138.286 211.364 136.253 211.98L10.4766 250.238C8.44356 250.857 7.29164 253.001 7.90877 255.029C8.52266 257.058 10.6779 258.207 12.711 257.591L138.487 219.333ZM128.476 240.142C130.394 239.216 131.196 236.918 130.275 235.005C129.348 233.088 127.044 232.285 125.123 233.21L54.9677 267.049C53.0502 267.971 52.2481 270.273 53.169 272.186C54.0965 274.103 56.4001 274.906 58.3211 273.981L128.476 240.142ZM157.075 241.294C158.868 240.158 159.392 237.781 158.254 235.993C157.108 234.205 154.729 233.674 152.937 234.817L111.076 261.408C109.284 262.551 108.753 264.925 109.898 266.713C111.037 268.501 113.423 269.025 115.215 267.885L157.075 241.294ZM79.7316 290.429C81.5238 289.293 82.0485 286.912 80.9098 285.124C79.7645 283.336 77.3849 282.812 75.5927 283.952L34.9474 309.769C33.1552 310.912 32.6239 313.286 33.7692 315.074C34.9079 316.862 37.2908 317.386 39.083 316.25L79.7317 290.426L79.7316 290.429ZM166.641 253.913C168.159 252.422 168.179 249.985 166.687 248.473C165.192 246.959 162.75 246.936 161.231 248.427L73.6377 334.288C72.1195 335.776 72.0964 338.21 73.5915 339.728C75.0833 341.242 77.5224 341.262 79.0439 339.77L166.646 253.919L166.641 253.913ZM186.187 271.356C187.203 269.492 186.517 267.161 184.649 266.143C182.781 265.129 180.437 265.817 179.421 267.678L116.424 382.824C115.407 384.688 116.097 387.026 117.965 388.04C119.833 389.055 122.17 388.366 123.19 386.503L186.187 271.356ZM193.626 293.208C194.346 291.213 193.299 289.013 191.299 288.299C189.299 287.581 187.094 288.618 186.378 290.62L160.004 363.777C159.284 365.773 160.324 367.973 162.327 368.687C164.327 369.405 166.532 368.368 167.252 366.369L193.626 293.205V293.208ZM214.874 274.08C215.356 272.009 214.066 269.934 211.99 269.453C209.914 268.972 207.841 270.26 207.352 272.331L199.137 307.553C198.656 309.631 199.946 311.699 202.022 312.18C204.098 312.667 206.171 311.376 206.659 309.305L214.874 274.076V274.08ZM194.094 363.186C194.576 361.114 193.289 359.046 191.213 358.559C189.137 358.078 187.057 359.366 186.576 361.437L175.654 408.264C175.172 410.335 176.463 412.41 178.539 412.89C180.615 413.371 182.687 412.084 183.169 410.012L194.091 363.186H194.094ZM247.922 96.2725C247.397 98.334 248.651 100.435 250.717 100.962C252.784 101.485 254.886 100.234 255.411 98.1726L287.885 -28.953C288.41 -31.0144 287.162 -33.1153 285.089 -33.6422C283.023 -34.1658 280.921 -32.9211 280.396 -30.853L247.922 96.2725ZM268.675 84.2074C267.843 86.1635 268.754 88.4225 270.715 89.2556C272.675 90.0854 274.939 89.1766 275.774 87.2205L306.403 15.7292C307.235 13.7732 306.324 11.5142 304.363 10.681C302.403 9.85118 300.139 10.7601 299.304 12.7161L268.675 84.2074ZM271.56 111.842C270.5 113.689 271.144 116.044 272.992 117.101C274.847 118.158 277.204 117.516 278.263 115.672L302.948 72.7181C304.007 70.8707 303.364 68.5162 301.515 67.4591C299.66 66.4021 297.304 67.0442 296.244 68.8883L271.56 111.842ZM317.163 32.4805C316.104 34.3278 316.747 36.6823 318.602 37.7394C320.454 38.7964 322.814 38.1543 323.87 36.3102L347.841 -5.39927C348.901 -7.24992 348.257 -9.60115 346.409 -10.6582C344.557 -11.7152 342.197 -11.0731 341.138 -9.22905L317.166 32.4805H317.163ZM285.591 119.487C284.171 121.068 284.307 123.501 285.894 124.911C287.475 126.327 289.911 126.192 291.327 124.608L373.226 33.3186C374.645 31.7379 374.51 29.311 372.922 27.895C371.338 26.479 368.905 26.6141 367.486 28.198L285.591 119.487ZM306.773 138.429C304.928 139.492 304.298 141.847 305.367 143.685C306.436 145.525 308.796 146.154 310.638 145.087L424.458 79.4019C426.3 78.3382 426.927 75.9837 425.864 74.1462C424.795 72.3054 422.438 71.6764 420.593 72.7434L306.773 138.429ZM329.932 144.791C327.949 145.555 326.962 147.778 327.728 149.763C328.493 151.746 330.728 152.727 332.715 151.963L405.362 123.845C407.345 123.081 408.332 120.858 407.566 118.872C406.801 116.893 404.566 115.908 402.583 116.672L329.929 144.791H329.932ZM312.133 166.176C310.074 166.709 308.836 168.807 309.371 170.865C309.905 172.92 312.008 174.151 314.071 173.621L362.109 161.209C364.172 160.676 365.406 158.575 364.878 156.52C364.343 154.465 362.238 153.23 360.178 153.764L312.133 166.176ZM400.893 143.247C398.833 143.78 397.596 145.878 398.13 147.936C398.665 149.991 400.768 151.222 402.824 150.689L449.473 138.64C451.536 138.106 452.77 136.008 452.242 133.95C451.708 131.896 449.602 130.661 447.542 131.194L400.893 143.247ZM316.452 181.515C314.324 181.604 312.677 183.402 312.766 185.523C312.862 187.646 314.657 189.29 316.783 189.201L439.466 183.83C441.592 183.741 443.242 181.946 443.146 179.822C443.057 177.702 441.258 176.055 439.13 176.151L316.454 181.518L316.452 181.515ZM317.119 211.988C315.079 211.375 312.931 212.521 312.317 214.55C311.696 216.578 312.848 218.722 314.881 219.341L440.658 257.6C442.691 258.212 444.846 257.066 445.46 255.038C446.08 253.009 444.928 250.865 442.895 250.246L317.119 211.988ZM328.249 233.222C326.328 232.296 324.024 233.1 323.1 235.016C322.172 236.93 322.978 239.228 324.892 240.153L395.051 273.993C396.968 274.918 399.272 274.114 400.199 272.198C401.127 270.285 400.322 267.983 398.401 267.061L328.245 233.222H328.249ZM300.435 234.825C298.643 233.683 296.263 234.213 295.121 236.001C293.976 237.789 294.501 240.163 296.296 241.303L338.16 267.894C339.952 269.036 342.332 268.513 343.474 266.721C344.619 264.933 344.088 262.559 342.296 261.416L300.435 234.825ZM377.779 283.96C375.987 282.817 373.607 283.341 372.465 285.132C371.32 286.92 371.851 289.301 373.644 290.437L414.289 316.261C416.081 317.397 418.461 316.874 419.606 315.086C420.745 313.298 420.22 310.923 418.428 309.781L377.779 283.964L377.779 283.96ZM292.137 248.435C290.619 246.943 288.177 246.966 286.685 248.481C285.19 249.992 285.213 252.426 286.728 253.921L374.33 339.773C375.848 341.265 378.29 341.245 379.786 339.73C381.277 338.215 381.258 335.778 379.739 334.29L292.137 248.43L292.137 248.435ZM273.948 267.686C272.932 265.825 270.588 265.137 268.72 266.151C266.856 267.165 266.166 269.497 267.182 271.364L330.179 386.511C331.196 388.374 333.539 389.066 335.407 388.048C337.272 387.034 337.962 384.696 336.945 382.832L273.948 267.686ZM266.994 290.628C266.281 288.626 264.073 287.589 262.073 288.307C260.073 289.018 259.03 291.221 259.75 293.217L286.124 366.38C286.837 368.376 289.045 369.417 291.045 368.699C293.045 367.987 294.088 365.784 293.369 363.789L266.994 290.632V290.628ZM246.02 272.339C245.538 270.268 243.459 268.977 241.383 269.461C239.307 269.942 238.013 272.016 238.501 274.088L246.716 309.316C247.198 311.387 249.277 312.678 251.347 312.191C253.429 311.71 254.72 309.642 254.231 307.564L246.016 272.343L246.02 272.339ZM266.797 361.445C266.315 359.374 264.242 358.083 262.159 358.567C260.087 359.054 258.796 361.122 259.278 363.194L270.199 410.02C270.681 412.092 272.761 413.382 274.837 412.898C276.913 412.418 278.207 410.343 277.718 408.272L266.797 361.445ZM232.28 367.573C232.247 365.449 230.497 363.754 228.372 363.786C226.243 363.819 224.55 365.565 224.583 367.692L225.18 398.906C225.213 401.027 226.962 402.719 229.094 402.686C231.22 402.653 232.916 400.908 232.883 398.781L232.283 367.57L232.28 367.573ZM223.11 282.564H230.847V274.849H223.11V282.564ZM223.11 297.992H230.847V290.277H223.11V297.992ZM226.975 347.453C222.826 347.453 219.064 345.777 216.344 343.064C213.625 340.35 211.938 336.596 211.938 332.457C211.938 328.311 213.621 324.56 216.344 321.844C219.064 319.13 222.827 317.447 226.975 317.447C231.131 317.447 234.89 319.127 237.613 321.844C240.333 324.557 242.019 328.311 242.019 332.457C242.019 336.596 240.336 340.35 237.613 343.064C234.893 345.777 231.131 347.453 226.975 347.453ZM210.878 348.517C214.994 352.63 220.687 355.172 226.975 355.172C233.263 355.172 238.956 352.627 243.079 348.517C247.201 344.404 249.749 338.727 249.749 332.457C249.749 326.184 247.198 320.503 243.079 316.39C238.956 312.277 233.267 309.735 226.975 309.735C220.688 309.735 214.994 312.28 210.878 316.39C206.756 320.503 204.208 326.18 204.208 332.457C204.208 338.727 206.759 344.404 210.878 348.517ZM230.847 5.2862H223.11V13.0049H230.847V5.2862ZM230.847 -41H223.11V-33.2813H230.847V-41ZM230.847 -25.5687H223.11V-17.8533H230.847V-25.5687ZM230.847 -10.1408H223.11V-2.42539H230.847V-10.1408ZM230.847 95.5133H223.11V103.229H230.847V95.5133ZM230.847 80.0855H223.11V87.8009H230.847V80.0855ZM226.975 21.7501C220.688 21.7501 214.994 24.2956 210.878 28.4053C206.756 32.5116 204.208 38.1951 204.208 44.4654C204.208 50.7386 206.759 56.4193 210.878 60.5323C214.994 64.6452 220.687 67.1874 226.975 67.1874C233.263 67.1874 238.956 64.642 243.079 60.5323C247.201 56.4193 249.749 50.7425 249.749 44.4654C249.749 38.1955 247.198 32.5116 243.079 28.4053C238.956 24.2923 233.267 21.7501 226.975 21.7501ZM216.344 33.8583C219.064 31.1448 222.827 29.4621 226.975 29.4621C231.131 29.4621 234.89 31.1416 237.613 33.8583C240.333 36.5717 242.019 40.3257 242.019 44.465C242.019 48.6109 240.336 52.3616 237.613 55.0785C234.893 57.7919 231.131 59.4746 226.975 59.4746C222.826 59.4746 219.064 57.7951 216.344 55.0785C213.625 52.365 211.938 48.611 211.938 44.465C211.938 40.3257 213.621 36.5717 216.344 33.8583ZM180.781 223.51C174.761 220.418 169.312 215.877 164.632 210.486H164.629C163.632 209.334 161.992 208.843 160.464 209.373C158.454 210.061 157.384 212.248 158.077 214.253C162.81 227.906 171.709 239.329 183.231 247.309C194.644 255.215 208.615 259.756 223.635 259.756C243.749 259.756 261.96 251.623 275.143 238.47C288.326 225.318 296.477 207.148 296.477 187.08C296.477 167.012 288.325 148.842 275.143 135.689C261.96 122.537 243.749 114.403 223.635 114.403C213.354 114.403 203.958 116.33 195.515 120.097C186.99 123.9 179.508 129.558 173.135 136.987H173.138C172.141 138.152 171.897 139.858 172.666 141.297C173.67 143.168 176.003 143.876 177.874 142.878C181.248 141.083 184.39 139.749 187.683 138.857C190.895 137.984 194.271 137.553 198.172 137.553C209.04 137.553 218.902 142.539 226.055 150.597C233.323 158.786 237.818 170.138 237.818 182.714C237.818 195.29 233.323 206.637 226.055 214.824C218.899 222.888 209.04 227.871 198.172 227.871C192.003 227.871 186.155 226.271 180.778 223.508L180.781 223.51Z" fill="#E2EDFF" stroke="#D7E1EE" stroke-width="4" mask="url(#path-1-inside-1_604_93)"/>
</svg>
