<svg width="89" height="92" viewBox="0 0 89 92" fill="none" xmlns="http://www.w3.org/2000/svg">
<path d="M88.8357 75.2484C89.0647 75.529 89.0527 75.9696 88.8097 76.2333C88.5661 76.4971 88.1836 76.4832 87.9546 76.2034C87.6038 75.7759 87.2358 75.3258 86.8527 74.8567C80.8807 67.5506 71.1384 55.6313 64.2237 52.9116C63.0806 52.4622 61.8785 52.1188 60.4269 51.8426C58.9615 51.5635 57.2335 51.3509 55.0511 51.1638C51.4618 50.8569 49.2427 50.6107 47.0282 50.0583C44.8212 49.5081 42.6345 48.6561 39.1079 47.1371C38.759 46.9865 38.379 47.0311 38.0517 47.2152C37.8195 47.346 37.6152 47.5477 37.468 47.7998C37.3228 48.0489 37.2333 48.3485 37.2282 48.6802C37.22 49.2239 37.4344 49.8669 37.9825 50.5523C41.7463 54.9209 44.4126 55.4119 46.9571 55.8811C47.5909 55.998 48.217 56.1127 48.8444 56.2778C49.3106 56.4006 49.8562 56.6702 50.3916 57.0553C50.8224 57.3651 51.2531 57.7538 51.6369 58.2039C52.5764 57.6917 53.462 57.0721 54.2803 56.3589C54.3526 56.2961 54.4535 56.1974 54.5639 56.0893C54.7034 55.9527 54.8576 55.8021 55.0365 55.6458C55.3835 55.3425 55.7337 55.1964 56.0985 55.2351C56.4721 55.2753 56.8077 55.4974 57.1084 55.93C57.4211 56.3801 57.5296 56.7535 57.5004 57.1502C57.4732 57.5178 57.3336 57.8027 57.1357 58.1535C56.5413 59.2049 55.6455 60.5333 54.4427 61.7814C53.5324 62.7254 52.4438 63.6278 51.1718 64.3373C50.8711 64.5046 50.5095 64.3592 50.3643 64.0128C50.219 63.6665 50.3452 63.25 50.6459 63.0827C51.8018 62.4382 52.7971 61.6126 53.6326 60.7453C54.7485 59.5879 55.5751 58.3633 56.1219 57.3959C56.2202 57.222 56.2881 57.0956 56.2926 57.0364C56.2951 57.0064 56.259 56.9385 56.1657 56.804C56.082 56.6835 56.0242 56.6257 55.9893 56.6221C55.9449 56.6177 55.8694 56.6637 55.766 56.7543C55.6576 56.8493 55.4939 57.0093 55.3461 57.154C55.2173 57.2797 55.1 57.3944 55.0105 57.4726C53.6218 58.6826 52.0511 59.6448 50.3504 60.298C48.708 60.9293 46.9507 61.2713 45.1269 61.2713C40.6736 61.2713 36.6402 59.2421 33.7189 55.9614C30.7931 52.6756 28.9833 48.1373 28.9833 43.1241C28.9833 38.4309 30.5693 34.1543 33.1721 30.9312C35.7946 27.6841 39.4525 25.5096 43.5614 25.0638L43.6902 25.0507C44.2104 24.9973 44.8676 24.9294 44.9285 24.4018C44.9437 24.2674 44.9126 24.1709 44.8568 24.1015C44.7274 23.9422 44.4851 23.8355 44.244 23.7661C43.4498 23.5382 42.6308 23.3628 41.7903 23.2452C40.9719 23.1297 40.1357 23.0705 39.2864 23.0705C33.7794 23.0705 28.7956 25.5754 25.1898 29.6247C21.5884 33.669 19.3611 39.2565 19.3611 45.4292C19.3611 51.602 21.5884 57.1895 25.1898 61.2338C28.7956 65.2831 33.7794 67.788 39.2864 67.788C40.387 67.788 41.6989 67.6506 43.0445 67.2729C44.1363 66.9667 45.254 66.5034 46.3039 65.8276C46.5957 65.6405 46.9637 65.7618 47.1254 66.0979C47.2878 66.434 47.1825 66.8578 46.8907 67.0441C45.7393 67.785 44.5188 68.2921 43.3286 68.6261C41.8689 69.0352 40.4606 69.1843 39.2863 69.1843C33.4538 69.1843 28.1719 66.5276 24.3467 62.2319C20.517 57.9311 18.1482 51.9907 18.1482 45.4292C18.1482 38.8677 20.517 32.9265 24.3467 28.6265C28.172 24.3308 33.4538 21.6741 39.2863 21.6741C40.1826 21.6741 41.067 21.737 41.9367 21.8597C42.8146 21.9832 43.6812 22.1695 44.5325 22.4136C44.9613 22.5363 45.4181 22.7599 45.7372 23.1523C46.0296 23.5118 46.1958 23.9787 46.1267 24.5822C45.9389 26.2153 44.7418 26.3388 43.7941 26.4367L43.6698 26.4498C39.8699 26.8619 36.4855 28.8742 34.0576 31.8802C31.6578 34.8512 30.1962 38.7954 30.1962 43.1238C30.1962 47.7476 31.8645 51.9329 34.562 54.9623C37.2639 57.9968 40.9991 59.8739 45.127 59.8739C46.8252 59.8739 48.453 59.5583 49.9667 58.9766C50.1171 58.9189 50.2668 58.8583 50.4146 58.7954C50.2008 58.5865 49.9775 58.4001 49.7529 58.2386C49.3298 57.934 48.9149 57.7257 48.5755 57.6358C47.9678 57.4758 47.3721 57.3662 46.7688 57.2551C44.0283 56.751 41.1577 56.222 37.1097 51.5148L37.0932 51.4958C36.3123 50.5196 36.0084 49.5348 36.0217 48.6586C36.0312 48.0419 36.1962 47.4859 36.4651 47.0255C36.7322 46.5681 37.1021 46.2035 37.5227 45.966C38.1348 45.6204 38.8561 45.543 39.5304 45.833C42.9871 47.3222 45.1295 48.1574 47.2851 48.6944C49.4331 49.23 51.6096 49.4711 55.138 49.7722C57.3481 49.9607 59.1104 50.1791 60.6227 50.467C62.149 50.7578 63.4128 51.1188 64.6136 51.5908C71.8138 54.4222 81.6835 66.4981 87.7346 73.9007C88.1177 74.3698 88.4857 74.8199 88.8365 75.2474L88.8357 75.2484ZM80.1676 71.8676C80.0198 71.6973 80.0198 71.4211 80.1676 71.2501C80.3154 71.0799 80.5552 71.0799 80.7036 71.2501L84.3969 75.5041C84.5448 75.6744 84.5448 75.9506 84.3969 76.1215C84.2491 76.2918 84.0094 76.2918 83.8609 76.1215L80.1676 71.8676ZM36.0091 0.873167H35.2511V0H36.0091V0.873167ZM12.8849 42.6984V43.5716H12.1268V42.6984H12.8849ZM9.85319 42.6969V43.5701H9.0951V42.6969H9.85319ZM6.82149 42.6955V43.5686H6.0634V42.6955H6.82149ZM3.78979 42.694V43.5672H3.0317V42.694H3.78979ZM0.758087 42.6926V43.5657H0V42.6926H0.758087ZM11.7291 26.8003L11.3504 27.5565L10.6938 27.1203L11.0725 26.3641L11.7291 26.8003ZM9.10403 25.0547L8.72531 25.8109L8.06873 25.3747L8.44745 24.6185L9.10403 25.0547ZM6.47898 23.3091L6.10026 24.0654L5.44368 23.6292L5.8224 22.8729L6.47898 23.3091ZM3.85394 21.5635L3.47522 22.3198L2.81863 21.8836L3.19735 21.1273L3.85394 21.5635ZM22.0542 15.341L21.397 15.7757L21.0195 15.0187L21.6768 14.584L22.0542 15.341ZM20.5444 12.313L19.8872 12.7477L19.5097 11.9907L20.1669 11.556L20.5444 12.313ZM19.0346 9.28493L18.3773 9.71968L17.9999 8.96269L18.6571 8.52794L19.0346 9.28493ZM17.5247 6.2569L16.8675 6.69165L16.4901 5.93467L17.1473 5.49992L17.5247 6.2569ZM58.3767 43.5704V42.6972H59.1348V43.5704H58.3767ZM61.4084 43.5689V42.6958H62.1665V43.5689H61.4084ZM64.4401 43.5675V42.6943H65.1982V43.5675H64.4401ZM67.4718 43.566V42.6928H68.2299V43.566H67.4718ZM70.5035 43.5645V42.6914H71.2616V43.5645H70.5035ZM59.9112 27.5554L59.5325 26.7991L60.1891 26.3629L60.5678 27.1192L59.9112 27.5554ZM62.5362 25.8098L62.1575 25.0535L62.8141 24.6173L63.1928 25.3736L62.5362 25.8098ZM65.1613 24.0642L64.7826 23.3079L65.4392 22.8717L65.8179 23.628L65.1613 24.0642ZM67.7863 22.3186L67.4076 21.5623L68.0642 21.1261L68.4429 21.8824L67.7863 22.3186ZM49.8638 15.7747L49.2066 15.34L49.584 14.583L50.2412 15.0177L49.8638 15.7747ZM51.3736 12.7467L50.7164 12.3119L51.0938 11.5549L51.7511 11.9897L51.3736 12.7467ZM52.8834 9.71866L52.2262 9.28391L52.6037 8.52692L53.2609 8.96167L52.8834 9.71866ZM54.3933 6.69063L53.736 6.25588L54.1135 5.4989L54.7707 5.93365L54.3933 6.69063ZM36.0079 14.8378H35.2498V13.9646H36.0079V14.8378ZM36.0079 11.3458H35.2498V10.4727H36.0079V11.3458ZM36.0079 7.85392H35.2498V6.98075H36.0079V7.85392ZM36.0079 4.362H35.2498V3.48883H36.0079V4.362ZM21.4134 60.9383C21.742 61.0136 21.9545 61.3811 21.8892 61.7596C21.8238 62.1381 21.5047 62.3828 21.1761 62.3076C20.9725 62.2608 20.5024 62.152 19.035 61.8078C18.1475 61.5995 17.2493 61.3862 16.8096 61.2715C14.2252 60.6007 11.7715 59.5829 9.2999 58.5569L9.29673 58.5555C8.70296 58.3092 8.15357 58.1251 7.64105 58.0002C7.1399 57.8781 6.68315 57.8153 6.26318 57.8095C5.69224 57.8007 5.14921 57.9527 4.76161 58.2216C4.57065 58.3538 4.42729 58.5094 4.35434 58.6782C4.29661 58.8112 4.28455 58.9669 4.3334 59.1408C4.41016 59.4155 4.61824 59.7363 4.99315 60.0972C5.68019 60.7592 6.42368 61.3174 7.20457 61.8048C7.91951 62.2513 8.66744 62.6385 9.43255 62.9915C9.94448 62.7386 10.5586 62.6013 11.186 62.6108C11.691 62.6181 12.2251 62.6904 12.796 62.8292C13.3556 62.9651 13.9589 63.1675 14.613 63.4386C16.6753 64.2942 18.909 65.0936 21.1337 65.7891C23.4314 66.5081 25.6873 67.1066 27.704 67.534C28.0326 67.6034 28.2495 67.9658 28.1893 68.3443C28.129 68.7228 27.8143 68.9727 27.4857 68.9033C25.4088 68.4634 23.1186 67.8569 20.8159 67.1365C18.5962 66.4424 16.334 65.6306 14.2051 64.7473C13.6113 64.501 13.0619 64.3169 12.5494 64.1919C12.0483 64.0699 11.5915 64.0071 11.1715 64.0012C10.6609 63.9932 10.173 64.1138 9.79811 64.3322C9.76639 64.3571 9.73277 64.3775 9.69724 64.3951C9.68773 64.4009 9.67885 64.4075 9.66996 64.4141C9.47901 64.5463 9.33565 64.702 9.2627 64.8707C9.20497 65.0037 9.19291 65.1594 9.24176 65.3325C9.31852 65.6073 9.5266 65.928 9.90152 66.289C10.3773 66.7479 10.9501 67.1936 11.504 67.5838C12.3889 68.207 13.2225 68.6871 13.5543 68.8603L13.5682 68.8676L14.0434 69.0941C14.0852 69.0612 14.1277 69.0298 14.1715 68.9998C14.7431 68.6031 15.5177 68.3787 16.3126 68.3912C16.8176 68.3985 17.3517 68.4708 17.9227 68.6096C18.4822 68.7455 19.0855 68.9479 19.7396 69.219L19.7428 69.2205C22.1751 70.2295 24.5901 71.2321 27.1104 71.886C28.9025 72.3507 30.3934 72.7197 31.9602 72.9733C33.5239 73.2261 35.1639 73.3642 37.2579 73.3686C39.2372 73.3729 41.1162 73.3488 42.94 73.0193C44.7365 72.6941 46.4951 72.0687 48.2763 70.8682C52.5812 67.9673 56.1217 65.8215 59.5118 64.9576C62.9692 64.0772 66.2299 64.5251 69.8972 66.8508C70.1903 67.0364 70.2975 67.4602 70.1364 67.797C69.9752 68.1346 69.6073 68.2581 69.3149 68.0725C65.9311 65.9265 62.9362 65.5093 59.7725 66.3152C56.5415 67.138 53.0951 69.2322 48.8879 72.0671C46.9607 73.3663 45.0619 74.0422 43.1253 74.393C41.2164 74.7386 39.2873 74.7634 37.2586 74.759C35.0928 74.7547 33.4022 74.6122 31.7952 74.3528C30.1915 74.0934 28.6723 73.7178 26.8457 73.2436C24.2613 72.5728 21.8076 71.555 19.336 70.5291L19.3328 70.5276C18.739 70.2814 18.1897 70.0972 17.6771 69.9723C17.176 69.8503 16.7192 69.7874 16.2993 69.7816C15.7283 69.7728 15.1853 69.9248 14.7977 70.1937C14.6067 70.3259 14.4634 70.4816 14.3904 70.6504C14.3327 70.7833 14.3206 70.939 14.3695 71.1122C14.4462 71.3869 14.6543 71.7077 15.0292 72.0686C15.505 72.5275 16.0779 72.9732 16.6317 73.3634C17.5166 73.9866 18.3502 74.4667 18.682 74.6399L18.6959 74.6472C19.7008 75.1258 20.2895 75.4086 20.8591 75.6826C29.1073 79.6459 34.2186 82.1015 43.9525 81.5624C47.4125 81.371 50.2006 80.8858 52.596 80.4701C60.5447 79.0884 64.2926 78.4366 74.512 90.8231C74.7423 91.1015 74.7328 91.5428 74.4904 91.8081C74.2487 92.0733 73.8656 92.0623 73.6353 91.7832C63.8513 79.9249 60.3025 80.5417 52.7749 81.8503C50.3636 82.2697 47.5571 82.7571 44.0085 82.9536C33.9999 83.5082 28.7941 81.0064 20.3938 76.9701C19.5729 76.5756 18.7266 76.1693 18.233 75.934C18.2165 75.9274 18.2001 75.9201 18.1842 75.9114C17.8296 75.7265 16.9402 75.215 16.0014 74.553C15.3993 74.1292 14.7757 73.6426 14.2518 73.1384C13.691 72.5977 13.363 72.0556 13.2178 71.5383C13.0846 71.0633 13.1011 70.6183 13.2343 70.215L13.1061 70.1536C13.0896 70.1471 13.0731 70.1397 13.0573 70.131C12.7027 69.9461 11.8133 69.4346 10.8745 68.7726C10.2724 68.3489 9.64883 67.8622 9.12491 67.3581C8.56412 66.8174 8.23614 66.2752 8.09087 65.7579C7.93671 65.2091 7.98302 64.6991 8.17778 64.2483C8.21965 64.1518 8.26786 64.059 8.32242 63.9699C7.74703 63.6842 7.18181 63.3751 6.63182 63.0317C5.78048 62.5005 4.96851 61.8904 4.21676 61.1655C3.65597 60.6248 3.32799 60.0827 3.18272 59.5654C3.02857 59.0159 3.07488 58.5066 3.26963 58.0558C3.44917 57.6407 3.7524 57.293 4.13682 57.0263C4.70839 56.6295 5.48298 56.4052 6.27791 56.4176C6.78288 56.4249 7.31702 56.4972 7.88797 56.6361C8.44749 56.772 9.05079 56.9744 9.70491 57.2455L9.70808 57.2469C12.1404 58.256 14.5554 59.2585 17.0757 59.9124C17.5179 60.0271 18.4047 60.2383 19.2777 60.4429C19.5708 60.5116 20.8358 60.8039 21.4143 60.9368L21.4134 60.9383Z" fill="#D5DFED"/>
</svg>
