<svg width="85" height="11" viewBox="0 0 85 11" fill="none" xmlns="http://www.w3.org/2000/svg">
<path d="M6.50006 1L8.50848 4.29169L13 4.81972L9.74963 7.38181L10.517 11L6.5 9.29172L2.48216 11L3.24957 7.38181L0 4.81972L4.49152 4.29169L6.50006 1Z" fill="#1B263B"/>
<path d="M24.5001 0L26.5085 3.62086L31 4.2017L27.7496 7.02L28.517 11L24.5 9.12089L20.4822 11L21.2496 7.02L18 4.2017L22.4915 3.62086L24.5001 0Z" fill="#1B263B"/>
<path d="M42.5001 0L44.5085 3.62086L49 4.2017L45.7496 7.02L46.517 11L42.5 9.12089L38.4822 11L39.2496 7.02L36 4.2017L40.4915 3.62086L42.5001 0Z" fill="#1B263B"/>
<path d="M60.5001 1L62.5085 4.29169L67 4.81972L63.7496 7.38181L64.517 11L60.5 9.29172L56.4822 11L57.2496 7.38181L54 4.81972L58.4915 4.29169L60.5001 1Z" fill="#1B263B"/>
<path d="M78.5001 1L80.5085 4.29169L85 4.81972L81.7496 7.38181L82.517 11L78.5 9.29172L74.4822 11L75.2496 7.38181L72 4.81972L76.4915 4.29169L78.5001 1Z" fill="#1B263B"/>
</svg>
