<svg width="30" height="29" viewBox="0 0 30 29" fill="none" xmlns="http://www.w3.org/2000/svg">
<path d="M28.3437 0H1.65625C0.74125 0 0 0.716542 0 1.60104V27.4002C0 28.2835 0.74125 29 1.65625 29H16.025V17.7697H12.115V13.3932H16.025V10.1657C16.025 6.41987 18.3912 4.38021 21.8487 4.38021C23.505 4.38021 24.9275 4.49983 25.3425 4.553V8.468L22.945 8.46921C21.065 8.46921 20.7013 9.33317 20.7013 10.5995V13.3944H25.185L24.6013 17.771H20.7013V29H28.3463C29.2587 29 30 28.2835 30 27.399V1.60104C30 0.716542 29.2587 0 28.3437 0Z" fill="#7697AA"/>
</svg>
