<svg width="16" height="16" viewBox="0 0 16 16" fill="none" xmlns="http://www.w3.org/2000/svg">
<path d="M15.9994 14.2403C13.4087 15.9635 9.77222 16.5266 6.38231 15.4554C1.32023 13.8545 -1.26231 9.22579 0.609842 5.10423C0.983177 4.28071 1.50822 3.54028 2.14729 2.89461C4.70317 0.317264 9.10392 -0.73522 13.1541 0.544891C13.5125 0.658136 13.8554 0.782392 14.1871 0.933742C10.2273 0.121729 6.10459 1.699 4.38267 4.72525C4.28708 4.89366 4.19817 5.06773 4.11725 5.24495C2.45893 8.89779 4.75479 13.0037 9.23468 14.4187C11.5326 15.1463 13.9604 15.0216 16 14.2403L15.9994 14.2403Z" fill="#324C77"/>
<path d="M13.7719 11.68C12.2984 12.5326 10.2999 12.7202 8.49681 12.0272C5.80434 10.9916 4.5739 8.3904 5.74674 6.21027C5.98068 5.77464 6.294 5.38914 6.66576 5.05889C8.15238 3.74075 10.5849 3.31194 12.7392 4.1401C12.9298 4.21337 13.1116 4.29212 13.2863 4.38523C11.1636 3.81456 8.86253 4.53779 7.81252 6.12722C7.75422 6.21568 7.69933 6.30744 7.64868 6.40117C6.60972 8.33339 7.70391 10.6409 10.0868 11.5565C11.309 12.027 12.6336 12.0384 13.7719 11.68Z" fill="#636E80"/>
<path d="M11.1712 6.8358L11.4562 7.40147L12.0934 7.49221L11.6323 7.93251L11.7411 8.55429L11.1712 8.26072L10.6012 8.55429L10.71 7.93251L10.249 7.49221L10.8863 7.40147L11.1712 6.8358Z" fill="#253858"/>
</svg>
