<svg width="29" height="29" viewBox="0 0 29 29" fill="none" xmlns="http://www.w3.org/2000/svg">
<path d="M26.68 0H2.32C1.0387 0 0 1.0387 0 2.32V26.68C0 27.9613 1.0387 29 2.32 29H26.68C27.9613 29 29 27.9613 29 26.68V2.32C29 1.0387 27.9613 0 26.68 0Z" fill="#7697AA"/>
<path d="M14.5 6.71237C17.0365 6.71237 17.3373 6.72188 18.3396 6.76779C20.9141 6.88496 22.1166 8.1065 22.2338 10.662C22.2797 11.6635 22.2884 11.9643 22.2884 14.5008C22.2884 17.0381 22.2789 17.3381 22.2338 18.3396C22.1158 20.8927 20.9165 22.1166 18.3396 22.2338C17.3373 22.2797 17.0381 22.2892 14.5 22.2892C11.9635 22.2892 11.6627 22.2797 10.6612 22.2338C8.08037 22.1158 6.88417 20.8887 6.767 18.3388C6.72108 17.3373 6.71158 17.0373 6.71158 14.5C6.71158 11.9635 6.72188 11.6635 6.767 10.6612C6.88496 8.1065 8.08433 6.88417 10.6612 6.767C11.6635 6.72188 11.9635 6.71237 14.5 6.71237ZM14.5 5C11.92 5 11.597 5.01108 10.5836 5.057C7.13354 5.21533 5.21613 7.12958 5.05779 10.5828C5.01108 11.597 5 11.92 5 14.5C5 17.08 5.01108 17.4038 5.057 18.4172C5.21533 21.8672 7.12958 23.7847 10.5828 23.943C11.597 23.9889 11.92 24 14.5 24C17.08 24 17.4038 23.9889 18.4172 23.943C21.8641 23.7847 23.7862 21.8704 23.9422 18.4172C23.9889 17.4038 24 17.08 24 14.5C24 11.92 23.9889 11.597 23.943 10.5836C23.7878 7.13671 21.8712 5.21613 18.418 5.05779C17.4038 5.01108 17.08 5 14.5 5ZM14.5 9.62175C11.806 9.62175 9.62175 11.806 9.62175 14.5C9.62175 17.194 11.806 19.379 14.5 19.379C17.194 19.379 19.3783 17.1948 19.3783 14.5C19.3783 11.806 17.194 9.62175 14.5 9.62175ZM14.5 17.6667C12.7512 17.6667 11.3333 16.2496 11.3333 14.5C11.3333 12.7512 12.7512 11.3333 14.5 11.3333C16.2488 11.3333 17.6667 12.7512 17.6667 14.5C17.6667 16.2496 16.2488 17.6667 14.5 17.6667ZM19.5714 8.28938C18.9412 8.28938 18.4306 8.8 18.4306 9.42937C18.4306 10.0587 18.9412 10.5694 19.5714 10.5694C20.2008 10.5694 20.7106 10.0587 20.7106 9.42937C20.7106 8.8 20.2008 8.28938 19.5714 8.28938Z" fill="white"/>
</svg>
