<svg width="84" height="74" viewBox="0 0 84 74" fill="none" xmlns="http://www.w3.org/2000/svg">
<path d="M45.587 20.3864C43.1907 21.8745 39.9406 22.2019 37.0083 20.9924C32.6297 19.1848 30.6287 14.6447 32.5361 10.8395C32.9165 10.0791 33.426 9.40626 34.0306 8.82983C36.4482 6.52914 40.4041 5.7807 43.9074 7.22617C44.2175 7.35405 44.5131 7.4915 44.7972 7.65403C41.3452 6.65797 37.6031 7.92031 35.8955 10.6945C35.8007 10.8489 35.7114 11.0091 35.6291 11.1727C33.9395 14.5452 35.7189 18.5727 39.594 20.1708C41.5817 20.9921 43.7357 21.0119 45.587 20.3864Z" fill="#636E80"/>
<path d="M16.1478 73.6843V62.6123H5.71582C5.86515 62.207 6.05715 61.8336 6.29182 61.4923C6.52648 61.151 6.81448 60.879 7.15582 60.6763C7.50782 60.4736 7.93448 60.3723 8.43582 60.3723H16.1478V50.4203H19.1878V73.6843H16.1478ZM1.45982 73.6843V50.4203H4.49982V73.6843H1.45982Z" fill="#1B263B"/>
<path d="M25.3148 73.6843V50.4203H38.5628V52.7243H28.3548V71.3803H39.0428V73.6843H25.3148ZM29.5708 62.6123C29.7201 62.207 29.9121 61.8336 30.1468 61.4923C30.3815 61.151 30.6748 60.879 31.0268 60.6763C31.3788 60.4736 31.8108 60.3723 32.3228 60.3723H37.4748V62.6123H29.5708Z" fill="#1B263B"/>
<path d="M44.2636 73.6843V50.7083C45.0636 50.5483 45.8156 50.415 46.5196 50.3083C47.2236 50.2016 47.9222 50.1216 48.6156 50.0683C49.3089 50.0043 50.0449 49.9723 50.8236 49.9723C52.5409 49.9723 54.0289 50.287 55.2876 50.9163C56.5569 51.535 57.5382 52.367 58.2316 53.4123C58.9249 54.4576 59.2716 55.6043 59.2716 56.8523C59.2716 58.143 58.9142 59.2736 58.1996 60.2443C57.4849 61.215 56.5729 61.983 55.4636 62.5483L54.6956 62.8043L55.3356 63.0603C56.1249 63.583 56.7329 64.2283 57.1596 64.9963C57.5862 65.7643 57.9329 66.6176 58.1996 67.5563C58.4662 68.4843 58.7382 69.471 59.0156 70.5163C59.2929 71.551 59.6769 72.607 60.1676 73.6843H56.9676C56.5409 72.767 56.1996 71.791 55.9436 70.7563C55.6876 69.711 55.4209 68.703 55.1436 67.7323C54.8662 66.7616 54.4929 65.9083 54.0236 65.1723C53.5649 64.4256 52.9142 63.8923 52.0716 63.5723C51.4636 63.6363 50.8769 63.6523 50.3116 63.6203C49.7569 63.5776 49.1809 63.487 48.5836 63.3483C48.7436 62.9856 48.9569 62.6603 49.2236 62.3723C49.5009 62.0736 49.8209 61.839 50.1836 61.6683C50.5462 61.4976 50.9516 61.407 51.3996 61.3963C52.1356 61.375 52.8556 61.167 53.5596 60.7723C54.2742 60.3776 54.8662 59.839 55.3356 59.1563C55.8049 58.4736 56.0396 57.695 56.0396 56.8203C56.0396 55.9776 55.8049 55.215 55.3356 54.5323C54.8662 53.8496 54.2369 53.311 53.4476 52.9163C52.6582 52.511 51.7836 52.3083 50.8236 52.3083C50.2369 52.3083 49.6929 52.319 49.1916 52.3403C48.7009 52.3616 48.0716 52.447 47.3036 52.5963V73.6843H44.2636Z" fill="#1B263B"/>
<path d="M63.7656 73.6843L72.1496 50.4203H75.1256L83.5096 73.6843H80.2456L73.7496 54.9323L73.5256 54.0043L73.3016 54.9323L69.7176 65.2043L69.3656 65.8763L69.7496 65.8123H74.0696C74.5816 65.8123 75.0082 65.919 75.3496 66.1323C75.7016 66.3456 75.9896 66.6283 76.2136 66.9803C76.4482 67.3323 76.6402 67.711 76.7896 68.1163H68.7256L66.8056 73.6843H63.7656Z" fill="#1B263B"/>
<path d="M4.54102 33.0202V43.6843H3.64746V33.0202H4.54102ZM8.1958 33.0202V33.7966H0V33.0202H8.1958Z" fill="#91A3C1"/>
<path d="M20.3792 42.9152V43.6843H14.3807V42.9152H20.3792ZM14.6517 33.0202V43.6843H13.7508V33.0202H14.6517ZM19.6321 37.8029V38.572H14.3807V37.8029H19.6321ZM20.3426 33.0202V33.7966H14.3807V33.0202H20.3426Z" fill="#91A3C1"/>
<path d="M26.6812 33.0202H27.5895L31.5299 42.4099L35.4776 33.0202H36.3785L31.8741 43.6843H31.1856L26.6812 33.0202ZM26.4029 33.0202H27.2013L27.2965 39.0261V43.6843H26.4029V33.0202ZM35.8731 33.0202H36.6715V43.6843H35.7706V39.0261L35.8731 33.0202Z" fill="#91A3C1"/>
<path d="M47.119 39.341H44.0795V38.572H47.119C47.7538 38.572 48.2689 38.4694 48.6645 38.2644C49.0648 38.0544 49.3554 37.7712 49.536 37.4148C49.7216 37.0583 49.8144 36.6579 49.8144 36.2136C49.8144 35.779 49.7216 35.3786 49.536 35.0124C49.3554 34.6462 49.0648 34.3532 48.6645 34.1335C48.2689 33.9089 47.7538 33.7966 47.119 33.7966H44.3944V43.6843H43.4936V33.0202H47.119C47.9003 33.0202 48.557 33.1545 49.0893 33.4231C49.6264 33.6916 50.0316 34.0652 50.3051 34.5437C50.5785 35.0222 50.7152 35.5739 50.7152 36.1989C50.7152 36.8532 50.5785 37.4172 50.3051 37.8908C50.0316 38.3596 49.6288 38.7185 49.0966 38.9675C48.5644 39.2165 47.9052 39.341 47.119 39.341Z" fill="#91A3C1"/>
<path d="M63.0158 42.9152V43.6843H57.486V42.9152H63.0158ZM57.7497 33.0202V43.6843H56.8488V33.0202H57.7497Z" fill="#91A3C1"/>
<path d="M76.7446 37.781V38.9235C76.7446 39.6706 76.647 40.3469 76.4517 40.9524C76.2612 41.5529 75.9829 42.0681 75.6167 42.4978C75.2554 42.9275 74.8208 43.257 74.313 43.4865C73.8052 43.716 73.2339 43.8308 72.5991 43.8308C71.979 43.8308 71.4126 43.716 70.8999 43.4865C70.3921 43.257 69.9551 42.9275 69.5889 42.4978C69.2227 42.0681 68.9395 41.5529 68.7393 40.9524C68.5391 40.3469 68.439 39.6706 68.439 38.9235V37.781C68.439 37.0339 68.5366 36.3601 68.7319 35.7595C68.9321 35.154 69.2153 34.6364 69.5815 34.2068C69.9478 33.7771 70.3848 33.4475 70.8926 33.218C71.4004 32.9885 71.9644 32.8737 72.5845 32.8737C73.2192 32.8737 73.7905 32.9885 74.2983 33.218C74.8062 33.4475 75.2432 33.7771 75.6094 34.2068C75.9756 34.6364 76.2563 35.154 76.4517 35.7595C76.647 36.3601 76.7446 37.0339 76.7446 37.781ZM75.8511 38.9235V37.7663C75.8511 37.1364 75.7778 36.57 75.6313 36.0671C75.4897 35.5642 75.2773 35.1345 74.9941 34.778C74.7158 34.4216 74.374 34.1482 73.9688 33.9577C73.5635 33.7673 73.1021 33.6721 72.5845 33.6721C72.0815 33.6721 71.6299 33.7673 71.2295 33.9577C70.8291 34.1482 70.4873 34.4216 70.2041 34.778C69.9258 35.1345 69.7109 35.5642 69.5596 36.0671C69.4131 36.57 69.3398 37.1364 69.3398 37.7663V38.9235C69.3398 39.5583 69.4131 40.1296 69.5596 40.6374C69.7109 41.1403 69.9282 41.5725 70.2114 41.9338C70.4946 42.2902 70.8364 42.5637 71.2368 42.7541C71.6421 42.9445 72.0962 43.0398 72.5991 43.0398C73.1216 43.0398 73.583 42.9445 73.9834 42.7541C74.3838 42.5637 74.7231 42.2902 75.0015 41.9338C75.2798 41.5725 75.4897 41.1403 75.6313 40.6374C75.7778 40.1296 75.8511 39.5583 75.8511 38.9235Z" fill="#91A3C1"/>
<path d="M49.2092 24.8551C44.996 27.8629 39.0823 28.8457 33.5695 26.9761C25.3373 24.1818 21.1375 16.1028 24.182 8.90898C24.7892 7.4716 25.643 6.17925 26.6823 5.05229C30.8388 0.553756 37.9955 -1.28326 44.582 0.95106C45.1648 1.14872 45.7226 1.3656 46.2619 1.62976C39.8224 0.212468 33.1178 2.96546 30.3176 8.2475C30.1621 8.54145 30.0175 8.84527 29.8859 9.1546C27.1891 15.5303 30.9227 22.6967 38.2081 25.1666C41.9452 26.4365 45.8924 26.2189 49.2092 24.8551Z" fill="#324C77"/>
<path d="M41.0076 11.6843L41.4711 12.6718L42.5076 12.8302L41.7575 13.5988L41.9346 14.6843L41.0076 14.1718L40.0804 14.6843L40.2575 13.5988L39.5076 12.8302L40.5441 12.6718L41.0076 11.6843Z" fill="#253858"/>
</svg>
