<svg width="36" height="38" viewBox="0 0 36 38" fill="none" xmlns="http://www.w3.org/2000/svg">
<path d="M35.471 33.2348C29.8523 37.2459 21.966 38.5565 14.6143 36.0633C3.63613 32.3369 -1.96463 21.563 2.09551 11.9696C2.90517 10.0527 4.04384 8.3293 5.42979 6.82643C10.9727 0.827338 20.5166 -1.62245 29.3002 1.35717C30.0775 1.62076 30.8212 1.90998 31.5405 2.26226C22.953 0.372207 14.012 4.0435 10.2776 11.0875C10.0704 11.4795 9.87753 11.8846 9.70204 12.2971C6.10564 20.7996 11.0847 30.3565 20.8002 33.6503C25.7838 35.3437 31.049 35.0536 35.4722 33.2349L35.471 33.2348Z" fill="#324C77"/>
<path d="M30.6402 27.2755C27.4446 29.26 23.1104 29.6966 19.2 28.0836C13.3608 25.6731 10.6924 19.6185 13.2359 14.544C13.7433 13.5301 14.4228 12.6327 15.229 11.864C18.453 8.79591 23.7285 7.79782 28.4004 9.72546C28.8138 9.89599 29.2082 10.0793 29.5869 10.296C24.9835 8.96772 19.9931 10.6511 17.716 14.3507C17.5895 14.5566 17.4705 14.7702 17.3606 14.9884C15.1075 19.4858 17.4804 24.8569 22.6482 26.988C25.2988 28.0832 28.1714 28.1097 30.6402 27.2755Z" fill="#636E80"/>
<path d="M25 16L25.618 17.3167L27 17.5279L25.9999 18.5527L26.236 20L25 19.3167L23.7637 20L23.9998 18.5527L23 17.5279L24.382 17.3167L25 16Z" fill="#253858"/>
</svg>
